 <!DOCTYPE svg PUBLIC "-//W3C//DTD SVG 1.1//EN" "http://www.w3.org/Graphics/SVG/1.1/DTD/svg11.dtd">
<svg id="b8d218b0-5ac1-4af4-a2d4-c3a3e38422a6" data-name="Layer 1" xmlns="http://www.w3.org/2000/svg" width="865.76" height="682.89" viewBox="0 0 865.76 682.89">
<defs>
<style xmlns="http://www.w3.org/1999/xhtml">*, ::after, ::before { box-sizing: border-box; }
img, svg { vertical-align: middle; }
</style>
<style xmlns="http://www.w3.org/1999/xhtml">*, body, html { -webkit-font-smoothing: antialiased; }
img, svg { max-width: 100%; }
</style>
</defs>
<rect x="206.21" y="38.87" width="605.14" height="605.14" rx="22" fill="#c70f37" data-primary="true"/>
<rect x="206.21" y="38.87" width="605.14" height="605.14" rx="22" fill="#fff" opacity="0.9" style="isolation:isolate"/>
<rect x="206.21" y="116.97" width="605.14" height="1.09" fill="#2f2e41" data-secondary="true"/>
<rect x="206.21" y="113.7" width="291.43" height="3.81" fill="#c70f37" data-primary="true"/>
<rect x="332.75" y="145.22" width="354.26" height="54.11" rx="11.4" fill="#fff"/>
<path d="M644,167.34h19.93a.6.6,0,0,1,.44,1l-10,10.56a.6.6,0,0,1-.87,0l-10-10.56A.6.6,0,0,1,644,167.34Z" fill="#2f2e41" data-secondary="true"/>
<path d="M707.4,185V159.61a.7.7,0,0,1,1.16-.43L722,171.84a.54.54,0,0,1,0,.87l-13.45,12.71A.7.7,0,0,1,707.4,185Z" fill="#c70f37" data-primary="true"/>
<path d="M311,160.53v25.38a.7.7,0,0,1-1.16.43l-13.45-12.66a.54.54,0,0,1,0-.87l13.45-12.71A.7.7,0,0,1,311,160.53Z" fill="#c70f37" data-primary="true"/>
<rect x="239.14" y="271.35" width="542.22" height="0.82" fill="#2f2e41" data-secondary="true"/>
<rect x="238.16" y="223.7" width="542.22" height="1" fill="#2f2e41" data-secondary="true"/>
<rect x="239.14" y="579.23" width="542.22" height="1" fill="#2f2e41" data-secondary="true"/>
<rect x="703.49" y="224.2" width="0.82" height="355.53" fill="#2f2e41" data-secondary="true"/>
<rect x="316.19" y="224.2" width="0.82" height="355.53" fill="#2f2e41" data-secondary="true"/>
<rect x="238.73" y="224.2" width="0.82" height="355.53" fill="#2f2e41" data-secondary="true"/>
<rect x="393.65" y="224.2" width="0.82" height="355.53" fill="#2f2e41" data-secondary="true"/>
<rect x="471.11" y="224.2" width="0.82" height="355.53" fill="#2f2e41" data-secondary="true"/>
<rect x="548.57" y="224.2" width="0.82" height="355.53" fill="#2f2e41" data-secondary="true"/>
<rect x="626.03" y="224.2" width="0.82" height="355.53" fill="#2f2e41" data-secondary="true"/>
<rect x="780.95" y="224.2" width="0.82" height="355.53" fill="#2f2e41" data-secondary="true"/>
<path d="M269.47,246a8.69,8.69,0,0,1-3.42-1.66,3.2,3.2,0,0,1-1.07-2.44,3.37,3.37,0,0,1,1.31-2.71,5.22,5.22,0,0,1,3.4-1.07,5.79,5.79,0,0,1,2.55.55,4.17,4.17,0,0,1,1.73,1.53,3.86,3.86,0,0,1,.62,2.12h-1.84a2.54,2.54,0,0,0-.8-2,3.26,3.26,0,0,0-2.26-.72,3.33,3.33,0,0,0-2.11.59,2,2,0,0,0-.75,1.66,1.78,1.78,0,0,0,.72,1.43,6.87,6.87,0,0,0,2.44,1.08,11.11,11.11,0,0,1,2.71,1.07,4.18,4.18,0,0,1,1.45,1.37,3.51,3.51,0,0,1,.47,1.83,3.22,3.22,0,0,1-1.32,2.7,5.57,5.57,0,0,1-3.51,1,6.48,6.48,0,0,1-2.67-.55,4.46,4.46,0,0,1-1.91-1.5,3.62,3.62,0,0,1-.67-2.16h1.84a2.37,2.37,0,0,0,.93,2,3.87,3.87,0,0,0,2.48.73,3.58,3.58,0,0,0,2.22-.59,1.92,1.92,0,0,0,.77-1.61,1.86,1.86,0,0,0-.72-1.57A8.16,8.16,0,0,0,269.47,246Z" fill="#2f2e41" data-secondary="true"/>
<path d="M283.05,251.17a3.75,3.75,0,0,1-3,1.21,3.19,3.19,0,0,1-2.51-1,4.08,4.08,0,0,1-.87-2.83v-6.71h1.76v6.66c0,1.56.63,2.34,1.9,2.34a2.65,2.65,0,0,0,2.69-1.5v-7.5h1.76v10.31h-1.68Z" fill="#2f2e41" data-secondary="true"/>
<path d="M289.1,241.88l.06,1.3a3.77,3.77,0,0,1,3.09-1.49q3.25,0,3.29,3.69v6.81h-1.76v-6.82a2.43,2.43,0,0,0-.51-1.65,2.06,2.06,0,0,0-1.56-.53,2.49,2.49,0,0,0-1.5.46,3,3,0,0,0-1,1.2v7.34h-1.76V241.88Z" fill="#2f2e41" data-secondary="true"/>
<path d="M360.05,163.93h2v10.74a4.47,4.47,0,0,1-1.31,3.41,4.88,4.88,0,0,1-3.49,1.23,5,5,0,0,1-3.52-1.16,4.17,4.17,0,0,1-1.26-3.24h2a2.52,2.52,0,0,0,2.78,2.76,2.69,2.69,0,0,0,2-.78,3,3,0,0,0,.78-2.19Z" fill="#2f2e41" data-secondary="true"/>
<path d="M372.12,179.1a4.11,4.11,0,0,1-.27-1.19,4.29,4.29,0,0,1-3.21,1.4,4,4,0,0,1-2.73-.95,3,3,0,0,1-1.07-2.39,3.19,3.19,0,0,1,1.34-2.73,6.31,6.31,0,0,1,3.77-1h1.87v-.88a2.17,2.17,0,0,0-.6-1.61,2.43,2.43,0,0,0-1.78-.6,2.78,2.78,0,0,0-1.73.52A1.53,1.53,0,0,0,367,171h-1.94a2.65,2.65,0,0,1,.6-1.63,4.1,4.1,0,0,1,1.62-1.25,5.6,5.6,0,0,1,2.26-.45,4.43,4.43,0,0,1,3.05,1,3.5,3.5,0,0,1,1.15,2.68v5.19a6.21,6.21,0,0,0,.4,2.47v.17Zm-3.19-1.47a3.45,3.45,0,0,0,1.72-.47,2.8,2.8,0,0,0,1.17-1.22v-2.31h-1.51q-3.54,0-3.54,2.07a1.76,1.76,0,0,0,.6,1.42A2.34,2.34,0,0,0,368.93,177.63Z" fill="#2f2e41" data-secondary="true"/>
<path d="M378.6,167.82l.06,1.42a4.12,4.12,0,0,1,3.38-1.62q3.57,0,3.6,4v7.45h-1.93v-7.46a2.57,2.57,0,0,0-.55-1.8,2.26,2.26,0,0,0-1.71-.59,2.79,2.79,0,0,0-1.64.5,3.36,3.36,0,0,0-1.11,1.31v8h-1.93V167.82Z" fill="#2f2e41" data-secondary="true"/>
<path d="M395.51,178a4.07,4.07,0,0,1-3.3,1.33,3.5,3.5,0,0,1-2.75-1.05,4.49,4.49,0,0,1-.95-3.1v-7.34h1.93v7.29c0,1.71.69,2.56,2.08,2.56a2.9,2.9,0,0,0,2.94-1.64v-8.21h1.93V179.1h-1.84Z" fill="#2f2e41" data-secondary="true"/>
<path d="M407.28,179.1a3.74,3.74,0,0,1-.28-1.19,4.28,4.28,0,0,1-3.2,1.4,4,4,0,0,1-2.74-.95A3,3,0,0,1,400,176a3.19,3.19,0,0,1,1.34-2.73,6.31,6.31,0,0,1,3.77-1H407v-.88a2.17,2.17,0,0,0-.6-1.61,2.43,2.43,0,0,0-1.78-.6,2.78,2.78,0,0,0-1.73.52,1.53,1.53,0,0,0-.7,1.26h-1.94a2.65,2.65,0,0,1,.6-1.63,4.07,4.07,0,0,1,1.63-1.25,5.51,5.51,0,0,1,2.25-.45,4.48,4.48,0,0,1,3.06,1,3.53,3.53,0,0,1,1.14,2.68v5.19a6.21,6.21,0,0,0,.4,2.47v.17Zm-3.2-1.47a3.45,3.45,0,0,0,1.72-.47,2.8,2.8,0,0,0,1.17-1.22v-2.31h-1.51q-3.54,0-3.54,2.07a1.76,1.76,0,0,0,.6,1.42A2.34,2.34,0,0,0,404.08,177.63Z" fill="#2f2e41" data-secondary="true"/>
<path d="M417.37,169.55a6.79,6.79,0,0,0-.94-.07,2.54,2.54,0,0,0-2.58,1.62v8h-1.93V167.82h1.88l0,1.31a3,3,0,0,1,2.69-1.51,1.92,1.92,0,0,1,.85.14Z" fill="#2f2e41" data-secondary="true"/>
<path d="M423,176.28l2.63-8.46h2.06l-4.53,13c-.7,1.88-1.82,2.81-3.35,2.81l-.36,0-.72-.13v-1.57l.52.05a2.62,2.62,0,0,0,1.53-.4,2.92,2.92,0,0,0,.9-1.45l.43-1.15-4-11.15h2.11Z" fill="#2f2e41" data-secondary="true"/>
<path d="M444.46,179.1h-9.94v-1.39l5.25-5.83a12.63,12.63,0,0,0,1.61-2.15,3.7,3.7,0,0,0,.44-1.72,2.73,2.73,0,0,0-.72-1.95,2.54,2.54,0,0,0-1.91-.76,3,3,0,0,0-2.24.82,3.14,3.14,0,0,0-.8,2.28h-1.93a4.47,4.47,0,0,1,1.35-3.39,5,5,0,0,1,3.62-1.29,4.79,4.79,0,0,1,3.34,1.11,3.78,3.78,0,0,1,1.23,2.95c0,1.5-.95,3.27-2.86,5.34l-4.06,4.41h7.62Z" fill="#2f2e41" data-secondary="true"/>
<path d="M456,172.63a8.81,8.81,0,0,1-1.16,5,4.8,4.8,0,0,1-7.21,0,8.39,8.39,0,0,1-1.21-4.81v-2.58a8.56,8.56,0,0,1,1.16-5,4.89,4.89,0,0,1,7.23-.05,8.39,8.39,0,0,1,1.19,4.84ZM454.09,170a7.06,7.06,0,0,0-.69-3.57,2.38,2.38,0,0,0-2.18-1.12,2.35,2.35,0,0,0-2.16,1.12,6.86,6.86,0,0,0-.69,3.43v3.08a7.13,7.13,0,0,0,.71,3.63,2.37,2.37,0,0,0,2.16,1.17,2.32,2.32,0,0,0,2.12-1.1,6.83,6.83,0,0,0,.73-3.48Z" fill="#2f2e41" data-secondary="true"/>
<path d="M468.43,179.1h-9.94v-1.39l5.25-5.83a12.63,12.63,0,0,0,1.61-2.15,3.7,3.7,0,0,0,.44-1.72,2.73,2.73,0,0,0-.72-1.95,2.54,2.54,0,0,0-1.92-.76,3,3,0,0,0-2.23.82,3.14,3.14,0,0,0-.8,2.28h-1.93a4.47,4.47,0,0,1,1.35-3.39,5,5,0,0,1,3.61-1.29,4.82,4.82,0,0,1,3.35,1.11,3.78,3.78,0,0,1,1.23,2.95c0,1.5-1,3.27-2.86,5.34l-4.06,4.41h7.62Z" fill="#2f2e41" data-secondary="true"/>
<path d="M480.41,179.1h-9.94v-1.39l5.25-5.83a12.11,12.11,0,0,0,1.61-2.15,3.59,3.59,0,0,0,.45-1.72,2.73,2.73,0,0,0-.72-1.95,2.54,2.54,0,0,0-1.92-.76,3,3,0,0,0-2.24.82,3.13,3.13,0,0,0-.79,2.28h-1.93a4.47,4.47,0,0,1,1.35-3.39,5,5,0,0,1,3.61-1.29,4.79,4.79,0,0,1,3.34,1.11,3.78,3.78,0,0,1,1.23,2.95c0,1.5-.95,3.27-2.85,5.34l-4.07,4.41h7.62Z" fill="#2f2e41" data-secondary="true"/>
<path d="M287.35,79.09A11,11,0,0,1,283,77a4.06,4.06,0,0,1-1.38-3.12,4.27,4.27,0,0,1,1.69-3.48A6.65,6.65,0,0,1,287.63,69a7.34,7.34,0,0,1,3.27.71,5.4,5.4,0,0,1,2.23,2,5.05,5.05,0,0,1,.79,2.73h-2.36a3.28,3.28,0,0,0-1-2.55,4.18,4.18,0,0,0-2.9-.93,4.28,4.28,0,0,0-2.71.77,2.54,2.54,0,0,0-1,2.12,2.29,2.29,0,0,0,.92,1.85A9.18,9.18,0,0,0,288,77a14.53,14.53,0,0,1,3.48,1.37,5.46,5.46,0,0,1,1.86,1.76,4.53,4.53,0,0,1,.6,2.36A4.18,4.18,0,0,1,292.27,86a7.2,7.2,0,0,1-4.52,1.3,8.34,8.34,0,0,1-3.42-.7,5.8,5.8,0,0,1-2.46-1.93,4.72,4.72,0,0,1-.86-2.78h2.36a3.1,3.1,0,0,0,1.19,2.56,5.06,5.06,0,0,0,3.19.93,4.59,4.59,0,0,0,2.85-.76,2.45,2.45,0,0,0,1-2.06,2.42,2.42,0,0,0-.91-2A10.59,10.59,0,0,0,287.35,79.09Z" fill="#2f2e41" data-secondary="true"/>
<path d="M307.79,80.56a7.91,7.91,0,0,1-1.38,4.86,4.41,4.41,0,0,1-3.75,1.85,4.86,4.86,0,0,1-3.79-1.53v6.38h-2.26V73.79h2.07l.11,1.47a4.66,4.66,0,0,1,3.84-1.71,4.52,4.52,0,0,1,3.77,1.79,8,8,0,0,1,1.39,5Zm-2.26-.26a5.85,5.85,0,0,0-1-3.54A3.07,3.07,0,0,0,302,75.47a3.32,3.32,0,0,0-3.08,1.82v6.32A3.33,3.33,0,0,0,302,85.42a3.07,3.07,0,0,0,2.59-1.29A6.36,6.36,0,0,0,305.53,80.3Z" fill="#2f2e41" data-secondary="true"/>
<path d="M316.16,87.27a5.76,5.76,0,0,1-4.38-1.77,6.51,6.51,0,0,1-1.69-4.72v-.42a8,8,0,0,1,.75-3.52A5.86,5.86,0,0,1,313,74.42a5.29,5.29,0,0,1,2.93-.87,4.94,4.94,0,0,1,4,1.7,7.37,7.37,0,0,1,1.43,4.87v.94h-9a4.74,4.74,0,0,0,1.15,3.16,3.59,3.59,0,0,0,2.78,1.2,4,4,0,0,0,2-.48,5.14,5.14,0,0,0,1.46-1.3l1.38,1.08A5.56,5.56,0,0,1,316.16,87.27Zm-.28-11.86a3,3,0,0,0-2.3,1,4.83,4.83,0,0,0-1.15,2.8h6.63V79a4.41,4.41,0,0,0-.93-2.68A2.86,2.86,0,0,0,315.88,75.41Z" fill="#2f2e41" data-secondary="true"/>
<path d="M329.25,85.42a3.22,3.22,0,0,0,2.11-.73,2.58,2.58,0,0,0,1-1.83h2.14a4.1,4.1,0,0,1-.78,2.16,5.24,5.24,0,0,1-1.93,1.64,5.54,5.54,0,0,1-2.55.61,5.46,5.46,0,0,1-4.3-1.8,7.16,7.16,0,0,1-1.6-4.94v-.38a8,8,0,0,1,.71-3.44,5.33,5.33,0,0,1,2-2.33,5.73,5.73,0,0,1,3.14-.83,5.32,5.32,0,0,1,3.7,1.33,4.79,4.79,0,0,1,1.57,3.46h-2.14a3.13,3.13,0,0,0-1-2.11,3,3,0,0,0-2.15-.82,3.17,3.17,0,0,0-2.68,1.24,5.84,5.84,0,0,0-.95,3.59v.43a5.69,5.69,0,0,0,.95,3.52A3.17,3.17,0,0,0,329.25,85.42Z" fill="#2f2e41" data-secondary="true"/>
<path d="M337.06,70.28a1.36,1.36,0,0,1,.34-.93,1.51,1.51,0,0,1,2,0,1.32,1.32,0,0,1,.34.93,1.29,1.29,0,0,1-.34.92,1.57,1.57,0,0,1-2,0A1.34,1.34,0,0,1,337.06,70.28ZM339.51,87h-2.26V73.79h2.26Z" fill="#2f2e41" data-secondary="true"/>
<path d="M343.89,87V75.54H341.8V73.79h2.09V72.67a4.57,4.57,0,0,1,1.27-3.45A4.87,4.87,0,0,1,348.74,68a10.76,10.76,0,0,1,3.46.75l-.38,1.9a8,8,0,0,0-2.91-.61,2.84,2.84,0,0,0-2.1.66,2.68,2.68,0,0,0-.64,2v1.15h2.7v1.75h-2.7V87Zm9.43,0h-2.27V73.79h2.27Z" fill="#2f2e41" data-secondary="true"/>
<path d="M362.32,85.42a3.24,3.24,0,0,0,2.11-.73,2.54,2.54,0,0,0,1-1.83h2.15a4.2,4.2,0,0,1-.79,2.16,5.13,5.13,0,0,1-1.92,1.64,5.57,5.57,0,0,1-2.55.61,5.44,5.44,0,0,1-4.3-1.8,7.16,7.16,0,0,1-1.6-4.94v-.38a8,8,0,0,1,.71-3.44,5.38,5.38,0,0,1,2-2.33,5.77,5.77,0,0,1,3.14-.83,5.29,5.29,0,0,1,3.7,1.33,4.76,4.76,0,0,1,1.58,3.46h-2.15a3.08,3.08,0,0,0-1-2.11,3,3,0,0,0-2.16-.82,3.15,3.15,0,0,0-2.67,1.24,5.84,5.84,0,0,0-.95,3.59v.43a5.76,5.76,0,0,0,.94,3.52A3.2,3.2,0,0,0,362.32,85.42Z" fill="#2f2e41" data-secondary="true"/>
<path d="M375.77,80.3a7.72,7.72,0,0,1,1.45-4.9A4.54,4.54,0,0,1,381,73.55a4.59,4.59,0,0,1,3.68,1.59v-6.9h2.26V87h-2.08l-.11-1.42A4.59,4.59,0,0,1,381,87.27a4.54,4.54,0,0,1-3.75-1.88,7.9,7.9,0,0,1-1.45-4.92Zm2.27.26a5.86,5.86,0,0,0,.93,3.52,3,3,0,0,0,2.56,1.27,3.3,3.3,0,0,0,3.15-1.93V77.34a3.33,3.33,0,0,0-3.12-1.87A3,3,0,0,0,379,76.75,6.49,6.49,0,0,0,378,80.56Z" fill="#2f2e41" data-secondary="true"/>
<path d="M398.62,87a4.81,4.81,0,0,1-.31-1.4,5,5,0,0,1-3.77,1.64,4.64,4.64,0,0,1-3.21-1.11,3.55,3.55,0,0,1-1.26-2.8,3.74,3.74,0,0,1,1.58-3.21A7.33,7.33,0,0,1,396.07,79h2.2V78a2.56,2.56,0,0,0-.71-1.89,2.84,2.84,0,0,0-2.09-.7,3.26,3.26,0,0,0-2,.61,1.8,1.8,0,0,0-.82,1.48h-2.28a3.1,3.1,0,0,1,.71-1.91,4.72,4.72,0,0,1,1.9-1.47,6.6,6.6,0,0,1,2.65-.53,5.26,5.26,0,0,1,3.59,1.14,4.12,4.12,0,0,1,1.34,3.15v6.09a7.43,7.43,0,0,0,.47,2.9V87Zm-3.75-1.73a4,4,0,0,0,2-.55,3.33,3.33,0,0,0,1.38-1.43V80.6H396.5c-2.78,0-4.16.82-4.16,2.44a2,2,0,0,0,.71,1.66A2.72,2.72,0,0,0,394.87,85.3Z" fill="#2f2e41" data-secondary="true"/>
<path d="M407.15,70.59v3.2h2.47v1.75h-2.47v8.22a1.82,1.82,0,0,0,.33,1.19,1.39,1.39,0,0,0,1.13.4,5.26,5.26,0,0,0,1.07-.15V87a6.61,6.61,0,0,1-1.73.24,2.8,2.8,0,0,1-2.29-.92,4,4,0,0,1-.77-2.6V75.54h-2.41V73.79h2.41v-3.2Z" fill="#2f2e41" data-secondary="true"/>
<path d="M417.76,87.27a5.76,5.76,0,0,1-4.38-1.77,6.51,6.51,0,0,1-1.69-4.72v-.42a8,8,0,0,1,.75-3.52,5.86,5.86,0,0,1,2.11-2.42,5.29,5.29,0,0,1,2.93-.87,4.94,4.94,0,0,1,4,1.7,7.37,7.37,0,0,1,1.43,4.87v.94h-9a4.74,4.74,0,0,0,1.15,3.16,3.59,3.59,0,0,0,2.78,1.2,4,4,0,0,0,2-.48,5.14,5.14,0,0,0,1.46-1.3l1.38,1.08A5.56,5.56,0,0,1,417.76,87.27Zm-.28-11.86a3,3,0,0,0-2.3,1A4.83,4.83,0,0,0,414,79.2h6.63V79a4.41,4.41,0,0,0-.93-2.68A2.86,2.86,0,0,0,417.48,75.41Z" fill="#2f2e41" data-secondary="true"/>
<path d="M596.43,81.41l.35,2.35.5-2.12,3.52-12.42h2l3.44,12.42.49,2.16.38-2.4,2.76-12.18h2.37L607.9,87h-2.14l-3.67-13-.29-1.36-.28,1.36-3.8,13h-2.14l-4.31-17.81h2.35Z" fill="#2f2e41" data-secondary="true"/>
<path d="M616.73,75.39a4.81,4.81,0,0,1,3.91-1.84c2.8,0,4.21,1.57,4.24,4.73V87h-2.27V78.27a3,3,0,0,0-.65-2.12,2.66,2.66,0,0,0-2-.68,3.26,3.26,0,0,0-1.93.58,4,4,0,0,0-1.3,1.55V87h-2.26V68.24h2.26Z" fill="#2f2e41" data-secondary="true"/>
<path d="M627.67,80.29a7.79,7.79,0,0,1,.76-3.5,5.67,5.67,0,0,1,2.13-2.4,5.82,5.82,0,0,1,3.11-.84,5.59,5.59,0,0,1,4.38,1.87,7.23,7.23,0,0,1,1.67,5v.16A7.91,7.91,0,0,1,639,84a5.69,5.69,0,0,1-2.12,2.4,5.86,5.86,0,0,1-3.16.85,5.54,5.54,0,0,1-4.36-1.87,7.13,7.13,0,0,1-1.67-5Zm2.27.27a5.67,5.67,0,0,0,1,3.53,3.47,3.47,0,0,0,5.48,0,6.16,6.16,0,0,0,1-3.78,5.65,5.65,0,0,0-1-3.53,3.28,3.28,0,0,0-2.75-1.35,3.24,3.24,0,0,0-2.7,1.33A6.12,6.12,0,0,0,629.94,80.56Z" fill="#2f2e41" data-secondary="true"/>
<path d="M645,87h-2.26V68.24H645Z" fill="#2f2e41" data-secondary="true"/>
<path d="M654.13,87.27a5.76,5.76,0,0,1-4.38-1.77,6.51,6.51,0,0,1-1.69-4.72v-.42a8,8,0,0,1,.75-3.52,5.86,5.86,0,0,1,2.11-2.42,5.29,5.29,0,0,1,2.93-.87,4.93,4.93,0,0,1,4,1.7,7.37,7.37,0,0,1,1.43,4.87v.94h-9a4.74,4.74,0,0,0,1.15,3.16,3.59,3.59,0,0,0,2.78,1.2,4,4,0,0,0,2-.48,5.14,5.14,0,0,0,1.46-1.3l1.38,1.08A5.56,5.56,0,0,1,654.13,87.27Zm-.28-11.86a3,3,0,0,0-2.3,1,4.83,4.83,0,0,0-1.15,2.8H657V79a4.41,4.41,0,0,0-.93-2.68A2.86,2.86,0,0,0,653.85,75.41Z" fill="#2f2e41" data-secondary="true"/>
<path d="M670.24,73.79l.06,1.47a4.89,4.89,0,0,1,3.93-1.71A3.79,3.79,0,0,1,678,75.67a5,5,0,0,1,1.72-1.54,5.08,5.08,0,0,1,2.5-.58c2.9,0,4.38,1.53,4.43,4.61V87h-2.27V78.29a3.05,3.05,0,0,0-.64-2.12,2.87,2.87,0,0,0-2.18-.7,3,3,0,0,0-2.09.75,3,3,0,0,0-1,2V87h-2.28V78.35q0-2.88-2.82-2.88a3,3,0,0,0-3,1.89V87H668.1V73.79Z" fill="#2f2e41" data-secondary="true"/>
<path d="M689.47,80.29a7.79,7.79,0,0,1,.77-3.5,5.65,5.65,0,0,1,2.12-2.4,5.83,5.83,0,0,1,3.12-.84,5.57,5.57,0,0,1,4.37,1.87,7.23,7.23,0,0,1,1.67,5v.16a7.91,7.91,0,0,1-.74,3.46,5.63,5.63,0,0,1-2.12,2.4,5.84,5.84,0,0,1-3.16.85,5.56,5.56,0,0,1-4.36-1.87,7.18,7.18,0,0,1-1.67-5Zm2.28.27a5.67,5.67,0,0,0,1,3.53,3.46,3.46,0,0,0,5.47,0,6.16,6.16,0,0,0,1-3.78,5.65,5.65,0,0,0-1-3.53,3.44,3.44,0,0,0-5.45,0A6.18,6.18,0,0,0,691.75,80.56Z" fill="#2f2e41" data-secondary="true"/>
<path d="M706.5,73.79l.07,1.66a4.83,4.83,0,0,1,4-1.9c2.79,0,4.21,1.57,4.23,4.73V87h-2.26V78.27a3.05,3.05,0,0,0-.66-2.12,2.64,2.64,0,0,0-2-.68,3.26,3.26,0,0,0-1.93.58,4,4,0,0,0-1.3,1.55V87h-2.26V73.79Z" fill="#2f2e41" data-secondary="true"/>
<path d="M721.25,70.59v3.2h2.48v1.75h-2.48v8.22a1.82,1.82,0,0,0,.33,1.19,1.39,1.39,0,0,0,1.13.4,5.44,5.44,0,0,0,1.08-.15V87a6.74,6.74,0,0,1-1.74.24,2.81,2.81,0,0,1-2.29-.92,4,4,0,0,1-.77-2.6V75.54h-2.41V73.79H719v-3.2Z" fill="#2f2e41" data-secondary="true"/>
<path d="M728.63,75.39a4.81,4.81,0,0,1,3.92-1.84c2.79,0,4.2,1.57,4.23,4.73V87h-2.26V78.27a3.05,3.05,0,0,0-.66-2.12,2.64,2.64,0,0,0-2-.68,3.26,3.26,0,0,0-1.93.58,4,4,0,0,0-1.3,1.55V87h-2.26V68.24h2.26Z" fill="#2f2e41" data-secondary="true"/>
<path d="M346.43,238.32,351,249.64l4.54-11.32h2.37v13.87H356v-5.4l.17-5.83-4.55,11.23h-1.4L345.72,241l.18,5.8v5.4h-1.83V238.32Z" fill="#2f2e41" data-secondary="true"/>
<path d="M360.35,246.94a6,6,0,0,1,.6-2.72,4.39,4.39,0,0,1,4.08-2.53,4.37,4.37,0,0,1,3.41,1.46,5.63,5.63,0,0,1,1.3,3.88v.12a6.22,6.22,0,0,1-.58,2.7,4.27,4.27,0,0,1-1.65,1.86,4.49,4.49,0,0,1-2.46.67,4.35,4.35,0,0,1-3.4-1.46,5.61,5.61,0,0,1-1.3-3.86Zm1.78.21a4.4,4.4,0,0,0,.79,2.75,2.55,2.55,0,0,0,2.13,1,2.51,2.51,0,0,0,2.13-1.05,4.81,4.81,0,0,0,.79-2.95,4.38,4.38,0,0,0-.8-2.75,2.57,2.57,0,0,0-2.14-1.05,2.52,2.52,0,0,0-2.1,1A4.73,4.73,0,0,0,362.13,247.15Z" fill="#2f2e41" data-secondary="true"/>
<path d="M373.61,241.88l.06,1.3a3.75,3.75,0,0,1,3.08-1.49q3.27,0,3.3,3.69v6.81h-1.76v-6.82a2.43,2.43,0,0,0-.51-1.65,2.06,2.06,0,0,0-1.56-.53,2.49,2.49,0,0,0-1.5.46,3,3,0,0,0-1,1.2v7.34H372V241.88Z" fill="#2f2e41" data-secondary="true"/>
<path d="M431.3,240h-4.45V252.4H425V240h-4.45v-1.49H431.3Z" fill="#2f2e41" data-secondary="true"/>
<path d="M438.54,251.38a3.72,3.72,0,0,1-3,1.21,3.25,3.25,0,0,1-2.51-1,4.21,4.21,0,0,1-.87-2.84v-6.7h1.76v6.65c0,1.57.64,2.35,1.91,2.35a2.64,2.64,0,0,0,2.69-1.51V242.1h1.76v10.3h-1.68Z" fill="#2f2e41" data-secondary="true"/>
<path d="M447.21,252.59a4.53,4.53,0,0,1-3.41-1.37,5.1,5.1,0,0,1-1.31-3.68v-.33a6.22,6.22,0,0,1,.58-2.74,4.56,4.56,0,0,1,1.64-1.88,4.06,4.06,0,0,1,2.28-.68,3.85,3.85,0,0,1,3.12,1.32,5.7,5.7,0,0,1,1.12,3.79v.73h-7a3.65,3.65,0,0,0,.89,2.47,2.81,2.81,0,0,0,2.16.93,3,3,0,0,0,1.59-.38,3.86,3.86,0,0,0,1.13-1l1.08.84A4.33,4.33,0,0,1,447.21,252.59Zm-.22-9.24a2.34,2.34,0,0,0-1.79.78,3.76,3.76,0,0,0-.89,2.18h5.16v-.14a3.39,3.39,0,0,0-.73-2.08A2.21,2.21,0,0,0,447,243.35Z" fill="#2f2e41" data-secondary="true"/>
<path d="M502.25,247.82l.26,1.82.39-1.64,2.75-9.68h1.54l2.67,9.68.39,1.67.29-1.86,2.15-9.49h1.84l-3.36,13.87H509.5l-2.85-10.11-.22-1.05-.22,1.05-3,10.11h-1.67l-3.35-13.87h1.83Z" fill="#2f2e41" data-secondary="true"/>
<path d="M520.26,252.38a4.48,4.48,0,0,1-3.4-1.38,5.09,5.09,0,0,1-1.32-3.68V247a6.2,6.2,0,0,1,.59-2.74,4.63,4.63,0,0,1,1.63-1.89,4.2,4.2,0,0,1,2.29-.68,3.83,3.83,0,0,1,3.12,1.33,5.73,5.73,0,0,1,1.11,3.79v.73h-7a3.7,3.7,0,0,0,.89,2.46,2.79,2.79,0,0,0,2.17.94,3.11,3.11,0,0,0,1.58-.38,4,4,0,0,0,1.13-1l1.08.84A4.34,4.34,0,0,1,520.26,252.38Zm-.21-9.24a2.33,2.33,0,0,0-1.79.78,3.67,3.67,0,0,0-.9,2.17h5.16V246a3.34,3.34,0,0,0-.72-2.08A2.22,2.22,0,0,0,520.05,243.14Z" fill="#2f2e41" data-secondary="true"/>
<path d="M525.89,247a6,6,0,0,1,1.13-3.81,3.54,3.54,0,0,1,2.94-1.45,3.6,3.6,0,0,1,2.87,1.24v-5.37h1.76v14.63H533l-.09-1.11a3.56,3.56,0,0,1-2.94,1.3,3.52,3.52,0,0,1-2.92-1.47,6.12,6.12,0,0,1-1.13-3.83Zm1.77.2a4.57,4.57,0,0,0,.72,2.74,2.34,2.34,0,0,0,2,1,2.58,2.58,0,0,0,2.45-1.5v-4.74a2.59,2.59,0,0,0-2.43-1.45,2.33,2.33,0,0,0-2,1A5,5,0,0,0,527.66,247.15Z" fill="#2f2e41" data-secondary="true"/>
<path d="M586.75,239.82h-4.46v12.37h-1.82V239.82H576v-1.5h10.72Z" fill="#2f2e41" data-secondary="true"/>
<path d="M590.29,243.13a3.75,3.75,0,0,1,3.05-1.44q3.27,0,3.3,3.69v6.81h-1.77v-6.82a2.38,2.38,0,0,0-.5-1.65,2.09,2.09,0,0,0-1.56-.53,2.52,2.52,0,0,0-1.51.46,3,3,0,0,0-1,1.2v7.34h-1.76V237.56h1.76Z" fill="#2f2e41" data-secondary="true"/>
<path d="M605.64,251.17a3.75,3.75,0,0,1-3,1.21,3.19,3.19,0,0,1-2.51-1,4.08,4.08,0,0,1-.87-2.83v-6.71H601v6.66c0,1.56.63,2.34,1.9,2.34a2.65,2.65,0,0,0,2.69-1.5v-7.5h1.76v10.31h-1.68Z" fill="#2f2e41" data-secondary="true"/>
<path d="M663.18,246.49h-5.81v6.13h-1.83V238.75h8.59v1.5h-6.76V245h5.81Z" fill="#2f2e41" data-secondary="true"/>
<path d="M670.78,243.89a5.94,5.94,0,0,0-.87-.06,2.31,2.31,0,0,0-2.35,1.47v7.32h-1.77V242.31h1.72l0,1.19a2.72,2.72,0,0,1,2.45-1.38,2,2,0,0,1,.79.13Z" fill="#2f2e41" data-secondary="true"/>
<path d="M672.4,239.58a1,1,0,0,1,.27-.73,1,1,0,0,1,.77-.29,1,1,0,0,1,.78.29,1,1,0,0,1,.27.73,1,1,0,0,1-.27.71,1,1,0,0,1-.78.29,1,1,0,0,1-.77-.29A1,1,0,0,1,672.4,239.58Zm1.91,13h-1.76V242.31h1.76Z" fill="#2f2e41" data-secondary="true"/>
<path d="M736.45,246.44a8.49,8.49,0,0,1-3.42-1.67,3.14,3.14,0,0,1-1.08-2.43,3.37,3.37,0,0,1,1.31-2.71,5.25,5.25,0,0,1,3.41-1.07,5.69,5.69,0,0,1,2.55.55,4.23,4.23,0,0,1,1.73,1.53,3.85,3.85,0,0,1,.61,2.12h-1.83a2.54,2.54,0,0,0-.8-2,4,4,0,0,0-4.37-.13,2,2,0,0,0-.76,1.66,1.78,1.78,0,0,0,.72,1.43,7.21,7.21,0,0,0,2.45,1.08,11.18,11.18,0,0,1,2.7,1.07,4.07,4.07,0,0,1,1.45,1.36,3.57,3.57,0,0,1,.47,1.84,3.24,3.24,0,0,1-1.31,2.7,5.6,5.6,0,0,1-3.52,1,6.56,6.56,0,0,1-2.66-.55,4.55,4.55,0,0,1-1.91-1.5,3.66,3.66,0,0,1-.67-2.16h1.83a2.37,2.37,0,0,0,.93,2,3.89,3.89,0,0,0,2.48.73,3.54,3.54,0,0,0,2.22-.59,1.9,1.9,0,0,0,.77-1.61,1.86,1.86,0,0,0-.71-1.57A8,8,0,0,0,736.45,246.44Z" fill="#2f2e41" data-secondary="true"/>
<path d="M750,252.62a4.08,4.08,0,0,1-.25-1.09,3.93,3.93,0,0,1-2.93,1.28,3.65,3.65,0,0,1-2.5-.86,2.81,2.81,0,0,1-1-2.19,2.91,2.91,0,0,1,1.23-2.5,5.77,5.77,0,0,1,3.44-.89h1.71v-.81a2,2,0,0,0-.55-1.47,2.2,2.2,0,0,0-1.63-.55A2.56,2.56,0,0,0,746,244a1.41,1.41,0,0,0-.64,1.15h-1.77a2.45,2.45,0,0,1,.55-1.49,3.76,3.76,0,0,1,1.49-1.14,5,5,0,0,1,2.06-.42,4.08,4.08,0,0,1,2.79.89,3.25,3.25,0,0,1,1,2.45v4.75a5.78,5.78,0,0,0,.36,2.25v.16Zm-2.92-1.35a3.16,3.16,0,0,0,1.57-.42,2.61,2.61,0,0,0,1.07-1.12v-2.11h-1.38c-2.16,0-3.23.63-3.23,1.89a1.61,1.61,0,0,0,.55,1.3A2.13,2.13,0,0,0,747.1,251.27Z" fill="#2f2e41" data-secondary="true"/>
<path d="M756.66,239.82v2.49h1.92v1.36h-1.92v6.4a1.36,1.36,0,0,0,.26.93,1.06,1.06,0,0,0,.87.31,4.71,4.71,0,0,0,.84-.11v1.42a5.36,5.36,0,0,1-1.35.19,2.18,2.18,0,0,1-1.78-.72,3.05,3.05,0,0,1-.6-2v-6.39H753v-1.36h1.88v-2.49Z" fill="#2f2e41" data-secondary="true"/>
<path d="M281.22,313.1h-1.78V301.36l-3.55,1.3v-1.6l5.05-1.89h.28Z" fill="#c70f37" data-primary="true"/>
<path d="M282.64,350.39a3.17,3.17,0,0,1-.55,1.84,3.67,3.67,0,0,1-1.48,1.27,4,4,0,0,1,1.72,1.36,3.46,3.46,0,0,1,.63,2,3.62,3.62,0,0,1-1.21,2.87,4.68,4.68,0,0,1-3.2,1.06,4.6,4.6,0,0,1-3.2-1.07,3.65,3.65,0,0,1-1.21-2.86,3.55,3.55,0,0,1,.62-2,3.8,3.8,0,0,1,1.7-1.37,3.61,3.61,0,0,1-1.46-1.27,3.3,3.3,0,0,1-.53-1.83,3.57,3.57,0,0,1,1.12-2.78,4.77,4.77,0,0,1,5.92,0A3.57,3.57,0,0,1,282.64,350.39Zm-1.44,6.46a2.52,2.52,0,0,0-.74-1.89,2.63,2.63,0,0,0-4.55,1.89,2.45,2.45,0,0,0,.7,1.86,2.66,2.66,0,0,0,1.94.68,2.71,2.71,0,0,0,1.95-.68A2.48,2.48,0,0,0,281.2,356.85ZM278.55,348a2.28,2.28,0,0,0-1.68.65,2.66,2.66,0,0,0,0,3.45,2.25,2.25,0,0,0,1.69.66,2.22,2.22,0,0,0,1.69-.66,2.31,2.31,0,0,0,.64-1.71,2.35,2.35,0,0,0-.66-1.72A2.26,2.26,0,0,0,278.55,348Z" fill="#c70f37" data-primary="true"/>
<path d="M274.12,408.17h-1.77V396.42l-3.55,1.31v-1.6l5-1.9h.28Z" fill="#c70f37" data-primary="true"/>
<path d="M280.09,401.21l.71-6.91h7.1v1.63h-5.61l-.42,3.78a4.48,4.48,0,0,1,2.32-.6,3.86,3.86,0,0,1,3,1.25,4.93,4.93,0,0,1,1.11,3.39,4.68,4.68,0,0,1-1.16,3.37,4.19,4.19,0,0,1-3.23,1.24,4.38,4.38,0,0,1-3-1,4.05,4.05,0,0,1-1.32-2.82h1.66a2.78,2.78,0,0,0,.85,1.79,2.61,2.61,0,0,0,1.81.61,2.38,2.38,0,0,0,1.93-.84,3.48,3.48,0,0,0,.7-2.31,3.2,3.2,0,0,0-.76-2.24,2.56,2.56,0,0,0-2-.84,3,3,0,0,0-1.81.5l-.47.39Z" fill="#c70f37" data-primary="true"/>
<path d="M277.42,455.7h-9.09v-1.27l4.8-5.33a11.39,11.39,0,0,0,1.47-2,3.28,3.28,0,0,0,.41-1.57,2.5,2.5,0,0,0-.66-1.78,2.3,2.3,0,0,0-1.75-.69,2.73,2.73,0,0,0-2.05.75,2.86,2.86,0,0,0-.72,2.08h-1.77a4.08,4.08,0,0,1,1.24-3.1,4.6,4.6,0,0,1,3.3-1.18,4.36,4.36,0,0,1,3,1,3.44,3.44,0,0,1,1.13,2.7c0,1.36-.87,3-2.61,4.87l-3.72,4h7Z" fill="#c70f37" data-primary="true"/>
<path d="M288.37,455.7h-9.09v-1.27l4.8-5.33a11.39,11.39,0,0,0,1.47-2,3.28,3.28,0,0,0,.41-1.57,2.5,2.5,0,0,0-.66-1.78,2.3,2.3,0,0,0-1.75-.69,2.7,2.7,0,0,0-2,.75,2.82,2.82,0,0,0-.73,2.08H279a4.1,4.1,0,0,1,1.23-3.1,4.6,4.6,0,0,1,3.3-1.18,4.38,4.38,0,0,1,3.06,1,3.44,3.44,0,0,1,1.12,2.7c0,1.36-.87,3-2.61,4.87l-3.71,4h7Z" fill="#c70f37" data-primary="true"/>
<path d="M277.42,503.23h-9.09V502l4.8-5.33a11.39,11.39,0,0,0,1.47-2,3.25,3.25,0,0,0,.41-1.56,2.46,2.46,0,0,0-.66-1.78,2.28,2.28,0,0,0-1.75-.7,2.73,2.73,0,0,0-2.05.75,2.87,2.87,0,0,0-.72,2.08h-1.77a4.08,4.08,0,0,1,1.24-3.1,4.6,4.6,0,0,1,3.3-1.18,4.36,4.36,0,0,1,3,1,3.44,3.44,0,0,1,1.13,2.7c0,1.36-.87,3-2.61,4.87l-3.72,4h7Z" fill="#c70f37" data-primary="true"/>
<path d="M286,497.14a4.19,4.19,0,0,1-1.31,1.05,3.6,3.6,0,0,1-1.69.4,3.66,3.66,0,0,1-2.09-.59,3.82,3.82,0,0,1-1.37-1.66,5.55,5.55,0,0,1-.49-2.37,5.8,5.8,0,0,1,.53-2.5,3.92,3.92,0,0,1,1.5-1.71,4.31,4.31,0,0,1,2.27-.59,3.88,3.88,0,0,1,3.24,1.54,6.74,6.74,0,0,1,1.19,4.2v.51c0,2.7-.54,4.67-1.6,5.91a6.16,6.16,0,0,1-4.83,1.91H281v-1.5h.38a4.18,4.18,0,0,0,4.62-4.6Zm-2.71,0a2.71,2.71,0,0,0,1.63-.55,3.12,3.12,0,0,0,1.09-1.34v-.71a4.83,4.83,0,0,0-.75-2.81,2.22,2.22,0,0,0-1.9-1.09,2.27,2.27,0,0,0-1.87.89,3.67,3.67,0,0,0-.7,2.35,3.82,3.82,0,0,0,.68,2.34A2.15,2.15,0,0,0,283.32,497.14Z" fill="#c70f37" data-primary="true"/>
<path d="M274.69,543.81l.71-6.91h7.1v1.62h-5.61l-.42,3.79a4.48,4.48,0,0,1,2.32-.6,3.82,3.82,0,0,1,3,1.25,4.9,4.9,0,0,1,1.11,3.38,4.7,4.7,0,0,1-1.16,3.38,4.22,4.22,0,0,1-3.23,1.23,4.36,4.36,0,0,1-3-1,4.05,4.05,0,0,1-1.32-2.82h1.66a2.79,2.79,0,0,0,.85,1.8,2.65,2.65,0,0,0,1.81.6,2.37,2.37,0,0,0,1.93-.83,3.49,3.49,0,0,0,.7-2.32,3.19,3.19,0,0,0-.76-2.23,2.56,2.56,0,0,0-2-.84,2.88,2.88,0,0,0-1.81.5l-.47.38Z" fill="#c70f37" data-primary="true"/>
<path d="M361.31,313.1h-9.08v-1.26l4.8-5.34a11.39,11.39,0,0,0,1.47-2,3.3,3.3,0,0,0,.4-1.57,2.5,2.5,0,0,0-.65-1.78,2.3,2.3,0,0,0-1.76-.7,2.73,2.73,0,0,0-2,.75,2.84,2.84,0,0,0-.73,2.08H352a4.07,4.07,0,0,1,1.23-3.09,4.55,4.55,0,0,1,3.3-1.18,4.38,4.38,0,0,1,3.06,1,3.47,3.47,0,0,1,1.12,2.7q0,2-2.61,4.88l-3.71,4h7Z" fill="#c70f37" data-primary="true"/>
<path d="M359.23,354.54a4.38,4.38,0,0,1-1.32,1.06,3.65,3.65,0,0,1-1.68.4,3.71,3.71,0,0,1-2.09-.59,3.8,3.8,0,0,1-1.38-1.67,5.69,5.69,0,0,1-.49-2.36,5.84,5.84,0,0,1,.53-2.51,3.84,3.84,0,0,1,1.5-1.7,4.25,4.25,0,0,1,2.27-.59,3.88,3.88,0,0,1,3.24,1.53,6.74,6.74,0,0,1,1.19,4.2v.51c0,2.7-.54,4.67-1.6,5.91a6.12,6.12,0,0,1-4.83,1.91h-.34v-1.49h.37a4.21,4.21,0,0,0,4.63-4.61Zm-2.72,0a2.75,2.75,0,0,0,1.64-.54,3.3,3.3,0,0,0,1.09-1.35V352a4.85,4.85,0,0,0-.76-2.82,2.25,2.25,0,0,0-1.9-1.09,2.27,2.27,0,0,0-1.87.89,3.69,3.69,0,0,0-.7,2.35,3.78,3.78,0,0,0,.68,2.34A2.15,2.15,0,0,0,356.51,354.54Z" fill="#c70f37" data-primary="true"/>
<path d="M352.28,408.17h-1.77V396.42L347,397.73v-1.6l5.05-1.9h.27Z" fill="#c70f37" data-primary="true"/>
<path d="M364.36,394.29v1.5H364a4.63,4.63,0,0,0-3.28,1.21,5.12,5.12,0,0,0-1.41,3.33,3.76,3.76,0,0,1,3-1.26,3.59,3.59,0,0,1,2.89,1.28,5.58,5.58,0,0,1-.09,6.72,4,4,0,0,1-3.12,1.29,4,4,0,0,1-3.23-1.53,6,6,0,0,1-1.24-3.94v-.68a9.12,9.12,0,0,1,1.63-5.85,6,6,0,0,1,4.86-2.07ZM362,400.54a2.81,2.81,0,0,0-1.66.54,2.86,2.86,0,0,0-1.06,1.36v.65a4.58,4.58,0,0,0,.77,2.76,2.33,2.33,0,0,0,1.93,1,2.24,2.24,0,0,0,1.87-.88,4.2,4.2,0,0,0,0-4.6A2.21,2.21,0,0,0,362,400.54Z" fill="#c70f37" data-primary="true"/>
<path d="M355.58,455.7h-9.09v-1.27l4.8-5.33a11.39,11.39,0,0,0,1.47-2,3.28,3.28,0,0,0,.41-1.57,2.5,2.5,0,0,0-.66-1.78,2.3,2.3,0,0,0-1.75-.69,2.7,2.7,0,0,0-2,.75,2.82,2.82,0,0,0-.73,2.08h-1.76a4.1,4.1,0,0,1,1.23-3.1,4.6,4.6,0,0,1,3.3-1.18,4.38,4.38,0,0,1,3.06,1,3.44,3.44,0,0,1,1.12,2.7c0,1.36-.87,3-2.61,4.87l-3.71,4h7Z" fill="#c70f37" data-primary="true"/>
<path d="M360,447.91h1.32a2.91,2.91,0,0,0,2-.66,2.18,2.18,0,0,0,.72-1.72,2.15,2.15,0,0,0-2.43-2.44,2.57,2.57,0,0,0-1.83.65,2.3,2.3,0,0,0-.68,1.73h-1.76a3.53,3.53,0,0,1,1.21-2.74,4.94,4.94,0,0,1,6.13-.05,3.71,3.71,0,0,1,1.12,2.88,3.07,3.07,0,0,1-.59,1.76,3.56,3.56,0,0,1-1.59,1.26,3.48,3.48,0,0,1,1.76,1.2,3.33,3.33,0,0,1,.63,2.05,3.78,3.78,0,0,1-1.22,3,4.56,4.56,0,0,1-3.17,1.1,4.68,4.68,0,0,1-3.18-1.06,3.51,3.51,0,0,1-1.22-2.79H359a2.27,2.27,0,0,0,.71,1.75,2.73,2.73,0,0,0,1.92.66,2.64,2.64,0,0,0,2-.67,2.56,2.56,0,0,0,.68-1.91,2.32,2.32,0,0,0-.75-1.86,3.22,3.22,0,0,0-2.14-.66H360Z" fill="#c70f37" data-primary="true"/>
<path d="M349.05,495.44h1.33a2.88,2.88,0,0,0,2-.66,2.17,2.17,0,0,0,.71-1.72,2.14,2.14,0,0,0-2.42-2.44,2.56,2.56,0,0,0-1.83.65,2.3,2.3,0,0,0-.68,1.73h-1.76a3.55,3.55,0,0,1,1.2-2.74,4.45,4.45,0,0,1,3.07-1.09,4.34,4.34,0,0,1,3.07,1,3.74,3.74,0,0,1,1.12,2.89,3.07,3.07,0,0,1-.59,1.75,3.58,3.58,0,0,1-1.59,1.27,3.36,3.36,0,0,1,1.76,1.2,3.28,3.28,0,0,1,.63,2,3.8,3.8,0,0,1-1.22,3,4.57,4.57,0,0,1-3.17,1.09,4.66,4.66,0,0,1-3.18-1.06,3.48,3.48,0,0,1-1.22-2.79H348a2.3,2.3,0,0,0,.71,1.76,2.77,2.77,0,0,0,1.92.65,2.68,2.68,0,0,0,1.95-.66,2.6,2.6,0,0,0,.67-1.92,2.34,2.34,0,0,0-.74-1.86,3.22,3.22,0,0,0-2.14-.66h-1.33Z" fill="#c70f37" data-primary="true"/>
<path d="M366.14,497.32a8,8,0,0,1-1.06,4.6,3.75,3.75,0,0,1-3.3,1.5,3.79,3.79,0,0,1-3.29-1.47,7.63,7.63,0,0,1-1.1-4.4V495.2a7.82,7.82,0,0,1,1.06-4.54,4.45,4.45,0,0,1,6.6-.05,7.55,7.55,0,0,1,1.09,4.42Zm-1.76-2.41a6.48,6.48,0,0,0-.63-3.27,2.16,2.16,0,0,0-2-1,2.13,2.13,0,0,0-2,1,6.29,6.29,0,0,0-.64,3.13v2.82a6.6,6.6,0,0,0,.65,3.32,2.16,2.16,0,0,0,2,1.07,2.13,2.13,0,0,0,1.94-1,6.34,6.34,0,0,0,.66-3.18Z" fill="#c70f37" data-primary="true"/>
<path d="M359.06,536.89v1.49h-.32a4.67,4.67,0,0,0-3.28,1.22,5.12,5.12,0,0,0-1.41,3.32,3.79,3.79,0,0,1,3-1.25,3.62,3.62,0,0,1,2.9,1.27,5.6,5.6,0,0,1-.09,6.73,4,4,0,0,1-3.13,1.28,4,4,0,0,1-3.23-1.53,6.06,6.06,0,0,1-1.24-3.93v-.68a9.12,9.12,0,0,1,1.64-5.85,6,6,0,0,1,4.86-2.07Zm-2.31,6.24A3,3,0,0,0,354,545v.65a4.51,4.51,0,0,0,.77,2.76,2.3,2.3,0,0,0,1.92,1,2.25,2.25,0,0,0,1.87-.88,3.6,3.6,0,0,0,.68-2.3,3.65,3.65,0,0,0-.69-2.31A2.23,2.23,0,0,0,356.75,543.13Z" fill="#c70f37" data-primary="true"/>
<path d="M429.74,360.63H428V348.89l-3.55,1.31v-1.6l5.05-1.9h.27Z" fill="#c70f37" data-primary="true"/>
<path d="M443.6,354.72a8,8,0,0,1-1.06,4.6,3.75,3.75,0,0,1-3.3,1.5,3.79,3.79,0,0,1-3.29-1.47,7.59,7.59,0,0,1-1.1-4.39v-2.35a7.86,7.86,0,0,1,1.06-4.55,3.78,3.78,0,0,1,3.31-1.48,3.83,3.83,0,0,1,3.3,1.43,7.66,7.66,0,0,1,1.08,4.42Zm-1.76-2.41a6.43,6.43,0,0,0-.63-3.26,2.17,2.17,0,0,0-2-1,2.13,2.13,0,0,0-2,1,6.33,6.33,0,0,0-.64,3.14V355a6.66,6.66,0,0,0,.65,3.32,2.18,2.18,0,0,0,2,1.07,2.15,2.15,0,0,0,1.94-1,6.39,6.39,0,0,0,.66-3.18Z" fill="#c70f37" data-primary="true"/>
<path d="M429.74,408.17H428V396.42l-3.55,1.31v-1.6l5.05-1.9h.27Z" fill="#c70f37" data-primary="true"/>
<path d="M443.86,395.29l-5.74,12.88h-1.85L442,395.75h-7.5V394.3h9.37Z" fill="#c70f37" data-primary="true"/>
<path d="M433,455.7H424v-1.27l4.8-5.33a11.39,11.39,0,0,0,1.47-2,3.28,3.28,0,0,0,.41-1.57,2.5,2.5,0,0,0-.66-1.78,2.3,2.3,0,0,0-1.75-.69,2.7,2.7,0,0,0-2,.75,2.82,2.82,0,0,0-.73,2.08h-1.76a4.1,4.1,0,0,1,1.23-3.1,4.6,4.6,0,0,1,3.3-1.18,4.38,4.38,0,0,1,3.06,1,3.44,3.44,0,0,1,1.12,2.7c0,1.36-.87,3-2.61,4.87l-3.71,4h7Z" fill="#c70f37" data-primary="true"/>
<path d="M442.34,451h1.93v1.44h-1.93v3.22h-1.77v-3.22h-6.31v-1l6.21-9.61h1.87Zm-6.08,0h4.31v-6.8l-.21.38Z" fill="#c70f37" data-primary="true"/>
<path d="M426.52,495.44h1.32a2.88,2.88,0,0,0,2-.66,2.18,2.18,0,0,0,.72-1.72,2.15,2.15,0,0,0-2.43-2.44,2.56,2.56,0,0,0-1.83.65,2.3,2.3,0,0,0-.68,1.73h-1.76a3.55,3.55,0,0,1,1.2-2.74,4.45,4.45,0,0,1,3.07-1.09,4.34,4.34,0,0,1,3.07,1,3.74,3.74,0,0,1,1.12,2.89,3.07,3.07,0,0,1-.59,1.75,3.58,3.58,0,0,1-1.59,1.27,3.36,3.36,0,0,1,1.76,1.2,3.28,3.28,0,0,1,.63,2,3.8,3.8,0,0,1-1.22,3,4.57,4.57,0,0,1-3.17,1.09,4.66,4.66,0,0,1-3.18-1.06,3.48,3.48,0,0,1-1.22-2.79h1.77a2.3,2.3,0,0,0,.71,1.76,2.77,2.77,0,0,0,1.92.65,2.68,2.68,0,0,0,1.95-.66,2.6,2.6,0,0,0,.67-1.92,2.34,2.34,0,0,0-.74-1.86,3.22,3.22,0,0,0-2.14-.66h-1.32Z" fill="#c70f37" data-primary="true"/>
<path d="M440.7,503.23h-1.78V491.49l-3.55,1.3v-1.6l5.05-1.89h.28Z" fill="#c70f37" data-primary="true"/>
<path d="M438.66,537.89l-5.74,12.87h-1.85l5.73-12.42h-7.51V536.9h9.37Z" fill="#c70f37" data-primary="true"/>
<path d="M513,308.44h1.92v1.44H513v3.22h-1.77v-3.22h-6.32v-1l6.21-9.6H513Zm-6.09,0h4.32v-6.8L511,302Z" fill="#c70f37" data-primary="true"/>
<path d="M507.05,360.63h-1.77V348.89l-3.55,1.31v-1.6l5-1.9h.27Z" fill="#c70f37" data-primary="true"/>
<path d="M518,360.63h-1.78V348.89l-3.55,1.31v-1.6l5.05-1.9H518Z" fill="#c70f37" data-primary="true"/>
<path d="M507.05,408.17h-1.77V396.42l-3.55,1.31v-1.6l5-1.9h.27Z" fill="#c70f37" data-primary="true"/>
<path d="M520.62,397.92a3.27,3.27,0,0,1-.54,1.85A3.72,3.72,0,0,1,518.6,401a4,4,0,0,1,1.71,1.36,3.4,3.4,0,0,1,.64,2,3.63,3.63,0,0,1-1.22,2.87,5.32,5.32,0,0,1-6.4,0,3.66,3.66,0,0,1-1.2-2.87,3.54,3.54,0,0,1,.61-2,3.86,3.86,0,0,1,1.7-1.37,3.56,3.56,0,0,1-1.45-1.26,3.26,3.26,0,0,1-.54-1.84,3.57,3.57,0,0,1,1.13-2.78,4.77,4.77,0,0,1,5.92,0A3.57,3.57,0,0,1,520.62,397.92Zm-1.43,6.46a2.56,2.56,0,0,0-.74-1.89,2.62,2.62,0,0,0-1.93-.73,2.47,2.47,0,0,0-2.63,2.62,2.45,2.45,0,0,0,.7,1.86,3.12,3.12,0,0,0,3.89,0A2.47,2.47,0,0,0,519.19,404.38Zm-2.65-8.82a2.27,2.27,0,0,0-1.68.64,2.67,2.67,0,0,0,0,3.46,2.52,2.52,0,0,0,3.38,0,2.63,2.63,0,0,0,0-3.44A2.27,2.27,0,0,0,516.54,395.56Z" fill="#c70f37" data-primary="true"/>
<path d="M510.35,455.7h-9.09v-1.27l4.8-5.33a11.39,11.39,0,0,0,1.47-2,3.28,3.28,0,0,0,.41-1.57,2.5,2.5,0,0,0-.66-1.78,2.3,2.3,0,0,0-1.75-.69,2.7,2.7,0,0,0-2,.75,2.82,2.82,0,0,0-.73,2.08H501a4.1,4.1,0,0,1,1.23-3.1,4.6,4.6,0,0,1,3.3-1.18,4.38,4.38,0,0,1,3.06,1,3.44,3.44,0,0,1,1.12,2.7c0,1.36-.87,3-2.61,4.87l-3.71,4h7Z" fill="#c70f37" data-primary="true"/>
<path d="M513,448.75l.71-6.92h7.1v1.63h-5.61l-.41,3.78a4.44,4.44,0,0,1,2.31-.6,3.84,3.84,0,0,1,3,1.25,4.94,4.94,0,0,1,1.11,3.39,4.76,4.76,0,0,1-1.15,3.38,4.24,4.24,0,0,1-3.24,1.23,4.4,4.4,0,0,1-3-1,4.1,4.1,0,0,1-1.32-2.82h1.67a2.83,2.83,0,0,0,.84,1.8,2.65,2.65,0,0,0,1.81.6,2.38,2.38,0,0,0,1.93-.84,3.48,3.48,0,0,0,.7-2.31,3.22,3.22,0,0,0-.76-2.24,2.56,2.56,0,0,0-2-.84,2.88,2.88,0,0,0-1.81.51l-.47.38Z" fill="#c70f37" data-primary="true"/>
<path d="M512.53,503.23h-1.77V491.49l-3.55,1.3v-1.6l5-1.89h.28Z" fill="#c70f37" data-primary="true"/>
<path d="M514,540.51a3.24,3.24,0,0,1-.54,1.85,3.78,3.78,0,0,1-1.49,1.27,3.9,3.9,0,0,1,1.72,1.36,3.38,3.38,0,0,1,.64,2,3.63,3.63,0,0,1-1.22,2.87,5.34,5.34,0,0,1-6.4,0,3.64,3.64,0,0,1-1.2-2.86,3.52,3.52,0,0,1,.61-2,3.86,3.86,0,0,1,1.7-1.37,3.66,3.66,0,0,1-1.45-1.27,3.23,3.23,0,0,1-.54-1.84,3.6,3.6,0,0,1,1.13-2.78,4.79,4.79,0,0,1,5.91,0A3.57,3.57,0,0,1,514,540.51ZM512.52,547a2.56,2.56,0,0,0-.74-1.89,2.62,2.62,0,0,0-1.93-.74,2.49,2.49,0,0,0-2.63,2.63,2.45,2.45,0,0,0,.7,1.86,2.7,2.7,0,0,0,1.95.67,2.65,2.65,0,0,0,1.94-.68A2.45,2.45,0,0,0,512.52,547Zm-2.65-8.83a2.28,2.28,0,0,0-1.68.65,2.34,2.34,0,0,0-.65,1.74,2.31,2.31,0,0,0,.64,1.71,2.49,2.49,0,0,0,3.38,0,2.6,2.6,0,0,0,0-3.43A2.24,2.24,0,0,0,509.87,538.15Z" fill="#c70f37" data-primary="true"/>
<path d="M585.27,306.15l.7-6.91h7.1v1.62h-5.6l-.42,3.78a4.47,4.47,0,0,1,2.31-.6,3.82,3.82,0,0,1,3,1.26,4.9,4.9,0,0,1,1.11,3.38,4.74,4.74,0,0,1-1.15,3.38,4.23,4.23,0,0,1-3.24,1.23,4.4,4.4,0,0,1-3-1,4.1,4.1,0,0,1-1.32-2.82h1.67a2.78,2.78,0,0,0,.84,1.8,2.65,2.65,0,0,0,1.81.6A2.39,2.39,0,0,0,591,311a3.49,3.49,0,0,0,.7-2.32,3.22,3.22,0,0,0-.75-2.23,2.6,2.6,0,0,0-2-.84,2.88,2.88,0,0,0-1.81.5l-.47.38Z" fill="#c70f37" data-primary="true"/>
<path d="M584.67,360.63h-1.78V348.89l-3.55,1.31v-1.6l5-1.9h.28Z" fill="#c70f37" data-primary="true"/>
<path d="M598.91,360.63h-9.08v-1.26l4.8-5.34a11.39,11.39,0,0,0,1.47-2,3.3,3.3,0,0,0,.4-1.57,2.52,2.52,0,0,0-.65-1.78,2.33,2.33,0,0,0-1.76-.7,2.73,2.73,0,0,0-2,.75,2.88,2.88,0,0,0-.73,2.08h-1.76a4.1,4.1,0,0,1,1.23-3.09,4.59,4.59,0,0,1,3.3-1.18,4.43,4.43,0,0,1,3.06,1,3.47,3.47,0,0,1,1.12,2.7c0,1.37-.87,3-2.61,4.88l-3.71,4h7Z" fill="#c70f37" data-primary="true"/>
<path d="M584.67,408.17h-1.78V396.42l-3.55,1.31v-1.6l5-1.9h.28Z" fill="#c70f37" data-primary="true"/>
<path d="M596.58,402.07a4.38,4.38,0,0,1-1.32,1.06,3.65,3.65,0,0,1-1.68.4,3.71,3.71,0,0,1-2.09-.59,4,4,0,0,1-1.38-1.66,5.77,5.77,0,0,1-.48-2.37,5.7,5.7,0,0,1,.53-2.51,3.84,3.84,0,0,1,1.5-1.7,4.28,4.28,0,0,1,2.26-.59,3.86,3.86,0,0,1,3.24,1.54,6.63,6.63,0,0,1,1.19,4.19v.52c0,2.7-.53,4.66-1.6,5.91a6.19,6.19,0,0,1-4.83,1.91h-.34v-1.5H592a4.21,4.21,0,0,0,4.63-4.61Zm-2.72,0a2.73,2.73,0,0,0,1.64-.54,3.2,3.2,0,0,0,1.09-1.34v-.71a4.87,4.87,0,0,0-.75-2.82,2.26,2.26,0,0,0-1.91-1.08,2.23,2.23,0,0,0-1.86.89,3.59,3.59,0,0,0-.71,2.34,3.84,3.84,0,0,0,.68,2.34A2.15,2.15,0,0,0,593.86,402.07Z" fill="#c70f37" data-primary="true"/>
<path d="M588,455.7h-9.09v-1.27l4.8-5.33a11,11,0,0,0,1.48-2,3.27,3.27,0,0,0,.4-1.57,2.5,2.5,0,0,0-.66-1.78,2.29,2.29,0,0,0-1.75-.69,2.7,2.7,0,0,0-2,.75,2.82,2.82,0,0,0-.73,2.08h-1.76a4.1,4.1,0,0,1,1.23-3.1,4.6,4.6,0,0,1,3.3-1.18,4.38,4.38,0,0,1,3.06,1,3.44,3.44,0,0,1,1.12,2.7c0,1.36-.87,3-2.61,4.87l-3.71,4h7Z" fill="#c70f37" data-primary="true"/>
<path d="M596.74,441.82v1.5h-.32a4.61,4.61,0,0,0-3.28,1.22,5.07,5.07,0,0,0-1.41,3.32,3.76,3.76,0,0,1,3-1.26,3.59,3.59,0,0,1,2.89,1.28,5.6,5.6,0,0,1-.08,6.72,4,4,0,0,1-3.13,1.29,4,4,0,0,1-3.23-1.53,6,6,0,0,1-1.24-3.94v-.67a9.13,9.13,0,0,1,1.64-5.86,6,6,0,0,1,4.86-2.07Zm-2.31,6.25a2.82,2.82,0,0,0-1.67.54A2.86,2.86,0,0,0,591.7,450v.65a4.56,4.56,0,0,0,.77,2.76,2.33,2.33,0,0,0,1.93,1.05,2.24,2.24,0,0,0,1.87-.87,4.22,4.22,0,0,0,0-4.61A2.2,2.2,0,0,0,594.43,448.07Z" fill="#c70f37" data-primary="true"/>
<path d="M593.8,503.23h-9.08V502l4.8-5.33a11.39,11.39,0,0,0,1.47-2,3.23,3.23,0,0,0,.4-1.56,2.5,2.5,0,0,0-.65-1.78,2.3,2.3,0,0,0-1.76-.7,2.73,2.73,0,0,0-2,.75,2.88,2.88,0,0,0-.73,2.08h-1.76a4.1,4.1,0,0,1,1.23-3.1,4.63,4.63,0,0,1,3.3-1.18,4.38,4.38,0,0,1,3.06,1,3.44,3.44,0,0,1,1.13,2.7c0,1.36-.87,3-2.61,4.87l-3.72,4h7Z" fill="#c70f37" data-primary="true"/>
<path d="M591.72,544.67a4.2,4.2,0,0,1-1.32,1.05,3.53,3.53,0,0,1-1.68.4,3.64,3.64,0,0,1-2.09-.59,3.72,3.72,0,0,1-1.38-1.66,5.69,5.69,0,0,1-.48-2.36,5.81,5.81,0,0,1,.52-2.51,4,4,0,0,1,1.5-1.7,4.25,4.25,0,0,1,2.27-.59,3.88,3.88,0,0,1,3.24,1.53,6.74,6.74,0,0,1,1.19,4.2V543q0,4-1.6,5.91a6.16,6.16,0,0,1-4.83,1.91h-.34v-1.49h.37a4.21,4.21,0,0,0,4.63-4.61Zm-2.72,0a2.7,2.7,0,0,0,1.64-.55,3.28,3.28,0,0,0,1.09-1.34v-.7a4.77,4.77,0,0,0-.76-2.82,2.22,2.22,0,0,0-1.9-1.09,2.28,2.28,0,0,0-1.87.89,3.69,3.69,0,0,0-.7,2.35,3.84,3.84,0,0,0,.68,2.34A2.15,2.15,0,0,0,589,544.67Z" fill="#c70f37" data-primary="true"/>
<path d="M668.55,299.44v1.5h-.33a4.62,4.62,0,0,0-3.27,1.21,5.12,5.12,0,0,0-1.41,3.33,3.76,3.76,0,0,1,3-1.26,3.59,3.59,0,0,1,2.89,1.28,5.58,5.58,0,0,1-.09,6.72,4,4,0,0,1-3.12,1.29A4,4,0,0,1,663,312a6,6,0,0,1-1.24-3.94v-.68a9.12,9.12,0,0,1,1.63-5.85,6,6,0,0,1,4.86-2.07Zm-2.32,6.25a2.81,2.81,0,0,0-1.66.54,2.86,2.86,0,0,0-1.06,1.36v.65a4.58,4.58,0,0,0,.77,2.76,2.33,2.33,0,0,0,1.93,1.05,2.24,2.24,0,0,0,1.87-.88,4.2,4.2,0,0,0,0-4.6A2.21,2.21,0,0,0,666.23,305.69Z" fill="#c70f37" data-primary="true"/>
<path d="M661.93,360.85h-1.77V349.11l-3.55,1.3v-1.6l5-1.89h.27Z" fill="#c70f37" data-primary="true"/>
<path d="M669.66,353.06H671a2.86,2.86,0,0,0,2-.66,2.18,2.18,0,0,0,.72-1.72,2.15,2.15,0,0,0-2.43-2.44,2.53,2.53,0,0,0-1.82.65,2.27,2.27,0,0,0-.69,1.73H667a3.53,3.53,0,0,1,1.21-2.74,5,5,0,0,1,6.14-.05,3.74,3.74,0,0,1,1.11,2.88,3.07,3.07,0,0,1-.59,1.76,3.56,3.56,0,0,1-1.59,1.26,3.55,3.55,0,0,1,1.77,1.2,3.39,3.39,0,0,1,.62,2.05,3.78,3.78,0,0,1-1.22,3,4.56,4.56,0,0,1-3.17,1.1,4.68,4.68,0,0,1-3.18-1.06,3.51,3.51,0,0,1-1.22-2.79h1.77a2.27,2.27,0,0,0,.71,1.75,2.73,2.73,0,0,0,1.92.66,2.64,2.64,0,0,0,2-.67,2.56,2.56,0,0,0,.68-1.91,2.32,2.32,0,0,0-.75-1.86,3.22,3.22,0,0,0-2.14-.66h-1.32Z" fill="#c70f37" data-primary="true"/>
<path d="M665.23,408.38h-9.09v-1.27l4.8-5.33a11.55,11.55,0,0,0,1.48-2,3.35,3.35,0,0,0,.4-1.56,2.46,2.46,0,0,0-.66-1.78,2.28,2.28,0,0,0-1.75-.7,2.7,2.7,0,0,0-2,.75,2.84,2.84,0,0,0-.73,2.08h-1.76a4.1,4.1,0,0,1,1.23-3.1,4.6,4.6,0,0,1,3.3-1.18,4.38,4.38,0,0,1,3.06,1,3.44,3.44,0,0,1,1.12,2.7c0,1.36-.87,3-2.61,4.87l-3.71,4h7Z" fill="#c70f37" data-primary="true"/>
<path d="M675.79,402.47a8,8,0,0,1-1.06,4.6,3.75,3.75,0,0,1-3.3,1.5,3.79,3.79,0,0,1-3.29-1.47,7.63,7.63,0,0,1-1.1-4.4v-2.35a7.82,7.82,0,0,1,1.06-4.54,3.78,3.78,0,0,1,3.31-1.49,3.83,3.83,0,0,1,3.3,1.44,7.63,7.63,0,0,1,1.08,4.42ZM674,400.06a6.48,6.48,0,0,0-.63-3.27,2.16,2.16,0,0,0-2-1,2.13,2.13,0,0,0-2,1,6.29,6.29,0,0,0-.64,3.13v2.82a6.6,6.6,0,0,0,.65,3.32,2.16,2.16,0,0,0,2,1.07,2.12,2.12,0,0,0,1.94-1,6.34,6.34,0,0,0,.66-3.18Z" fill="#c70f37" data-primary="true"/>
<path d="M665.23,455.91h-9.09v-1.26l4.8-5.34a11.56,11.56,0,0,0,1.48-2,3.42,3.42,0,0,0,.4-1.57,2.48,2.48,0,0,0-.66-1.78,2.28,2.28,0,0,0-1.75-.7,2.7,2.7,0,0,0-2,.75,2.84,2.84,0,0,0-.73,2.08h-1.76a4.08,4.08,0,0,1,1.23-3.09,4.55,4.55,0,0,1,3.3-1.18,4.38,4.38,0,0,1,3.06,1,3.47,3.47,0,0,1,1.12,2.7q0,2-2.61,4.88l-3.71,4h7Z" fill="#c70f37" data-primary="true"/>
<path d="M676.05,443l-5.74,12.87h-1.85l5.72-12.42h-7.5v-1.44h9.37Z" fill="#c70f37" data-primary="true"/>
<path d="M664.54,495.65h1.33a2.93,2.93,0,0,0,2-.65,2.19,2.19,0,0,0,.71-1.73,2.15,2.15,0,0,0-2.42-2.44,2.52,2.52,0,0,0-1.83.66,2.29,2.29,0,0,0-.68,1.73h-1.76a3.55,3.55,0,0,1,1.2-2.74,4.4,4.4,0,0,1,3.07-1.09,4.29,4.29,0,0,1,3.07,1,3.75,3.75,0,0,1,1.12,2.88,3,3,0,0,1-.59,1.75,3.49,3.49,0,0,1-1.6,1.27,3.35,3.35,0,0,1,1.77,1.2,3.31,3.31,0,0,1,.63,2.05,3.79,3.79,0,0,1-1.22,3,4.58,4.58,0,0,1-3.18,1.09,4.68,4.68,0,0,1-3.17-1.05,3.51,3.51,0,0,1-1.23-2.79h1.78a2.25,2.25,0,0,0,.71,1.75,3.15,3.15,0,0,0,3.87,0,2.56,2.56,0,0,0,.67-1.91,2.31,2.31,0,0,0-.74-1.86,3.22,3.22,0,0,0-2.14-.67h-1.33Z" fill="#c70f37" data-primary="true"/>
<path d="M661.93,551h-1.77V539.23l-3.55,1.31v-1.6l5-1.9h.27Z" fill="#c70f37" data-primary="true"/>
<path d="M675.79,545.06a8,8,0,0,1-1.06,4.6,3.73,3.73,0,0,1-3.3,1.51,3.79,3.79,0,0,1-3.29-1.47,7.65,7.65,0,0,1-1.1-4.4V543a7.82,7.82,0,0,1,1.06-4.54,3.78,3.78,0,0,1,3.31-1.49,3.85,3.85,0,0,1,3.3,1.43,7.67,7.67,0,0,1,1.08,4.43ZM674,542.65a6.43,6.43,0,0,0-.63-3.26,2.16,2.16,0,0,0-2-1,2.13,2.13,0,0,0-2,1,6.29,6.29,0,0,0-.64,3.13v2.82a6.63,6.63,0,0,0,.65,3.32,2.18,2.18,0,0,0,2,1.07,2.14,2.14,0,0,0,1.94-1,6.34,6.34,0,0,0,.66-3.18Z" fill="#c70f37" data-primary="true"/>
<path d="M748.87,300.44l-5.74,12.88h-1.85L747,300.9H739.5v-1.45h9.37Z" fill="#c70f37" data-primary="true"/>
<path d="M739.59,360.85h-1.78V349.11l-3.55,1.3v-1.6l5-1.89h.28Z" fill="#c70f37" data-primary="true"/>
<path d="M752.19,356.19h1.92v1.44h-1.92v3.22h-1.78v-3.22H744.1v-1l6.21-9.61h1.88Zm-6.09,0h4.31v-6.8l-.2.38Z" fill="#c70f37" data-primary="true"/>
<path d="M742.88,408.38H733.8v-1.27l4.8-5.33a11.39,11.39,0,0,0,1.47-2,3.23,3.23,0,0,0,.4-1.56,2.46,2.46,0,0,0-.66-1.78,2.26,2.26,0,0,0-1.75-.7,2.73,2.73,0,0,0-2,.75,2.84,2.84,0,0,0-.73,2.08h-1.76a4.1,4.1,0,0,1,1.23-3.1,4.6,4.6,0,0,1,3.3-1.18,4.38,4.38,0,0,1,3.06,1,3.44,3.44,0,0,1,1.12,2.7c0,1.36-.87,3-2.61,4.87l-3.71,4h7Z" fill="#c70f37" data-primary="true"/>
<path d="M750.54,408.38h-1.77V396.64l-3.56,1.3v-1.6l5-1.89h.28Z" fill="#c70f37" data-primary="true"/>
<path d="M742.88,455.91H733.8v-1.26l4.8-5.34a11.39,11.39,0,0,0,1.47-2,3.3,3.3,0,0,0,.4-1.57,2.48,2.48,0,0,0-.66-1.78,2.26,2.26,0,0,0-1.75-.7,2.73,2.73,0,0,0-2,.75,2.84,2.84,0,0,0-.73,2.08h-1.76a4.08,4.08,0,0,1,1.23-3.09,4.55,4.55,0,0,1,3.3-1.18,4.38,4.38,0,0,1,3.06,1,3.47,3.47,0,0,1,1.12,2.7q0,2-2.61,4.88l-3.71,4h7Z" fill="#c70f37" data-primary="true"/>
<path d="M753.16,445.66a3.25,3.25,0,0,1-.55,1.85,3.82,3.82,0,0,1-1.48,1.27,4,4,0,0,1,1.72,1.36,3.44,3.44,0,0,1,.63,2,3.62,3.62,0,0,1-1.21,2.87,4.68,4.68,0,0,1-3.2,1.06,4.6,4.6,0,0,1-3.2-1.07,3.62,3.62,0,0,1-1.21-2.86,3.53,3.53,0,0,1,.62-2,3.8,3.8,0,0,1,1.7-1.37,3.62,3.62,0,0,1-1.46-1.27,3.23,3.23,0,0,1-.53-1.84,3.6,3.6,0,0,1,1.12-2.78,4.8,4.8,0,0,1,5.92,0A3.6,3.6,0,0,1,753.16,445.66Zm-1.44,6.47a2.56,2.56,0,0,0-.74-1.89,2.61,2.61,0,0,0-1.93-.74,2.49,2.49,0,0,0-2.63,2.63,2.49,2.49,0,0,0,.7,1.86,2.7,2.7,0,0,0,2,.67A2.64,2.64,0,0,0,751,454,2.45,2.45,0,0,0,751.72,452.13Zm-2.65-8.83a2.28,2.28,0,0,0-1.68.65,2.66,2.66,0,0,0,0,3.45,2.49,2.49,0,0,0,3.38,0,2.59,2.59,0,0,0,0-3.43A2.28,2.28,0,0,0,749.07,443.3Z" fill="#c70f37" data-primary="true"/>
<path d="M747.27,498.79h1.92v1.44h-1.92v3.21H745.5v-3.21h-6.32v-1l6.21-9.61h1.88Zm-6.09,0h4.32V492l-.21.38Z" fill="#c70f37" data-primary="true"/>
<path d="M739.59,551h-1.78V539.23l-3.55,1.31v-1.6l5-1.9h.28Z" fill="#c70f37" data-primary="true"/>
<path d="M750.54,551h-1.77V539.23l-3.56,1.31v-1.6l5-1.9h.28Z" fill="#c70f37" data-primary="true"/>
<circle cx="433.9" cy="306.44" r="13.92" fill="#c70f37" data-primary="true"/>
<path d="M432.32,305.59h1.33a2.93,2.93,0,0,0,2-.66,2.18,2.18,0,0,0,.71-1.72,2.14,2.14,0,0,0-2.42-2.44,2.56,2.56,0,0,0-1.83.65,2.3,2.3,0,0,0-.68,1.73h-1.76a3.55,3.55,0,0,1,1.2-2.74,4.4,4.4,0,0,1,3.07-1.09,4.34,4.34,0,0,1,3.07,1,3.71,3.71,0,0,1,1.12,2.88,3.07,3.07,0,0,1-.59,1.76,3.56,3.56,0,0,1-1.59,1.26,3.36,3.36,0,0,1,1.76,1.2,3.31,3.31,0,0,1,.63,2.05,3.78,3.78,0,0,1-1.22,3,4.58,4.58,0,0,1-3.17,1.1,4.66,4.66,0,0,1-3.18-1.06,3.48,3.48,0,0,1-1.22-2.79h1.77a2.28,2.28,0,0,0,.71,1.75,2.73,2.73,0,0,0,1.92.66,2.64,2.64,0,0,0,1.95-.67,2.56,2.56,0,0,0,.67-1.91,2.31,2.31,0,0,0-.74-1.86,3.27,3.27,0,0,0-2.14-.67h-1.33Z" fill="#fff"/>
<path d="M114.35,449.08l3.8,32.39s-3.39,23.39-2,38.47-.67,71.19-.53,72.16a86.17,86.17,0,0,1-1.6,12.19c-.62,2.28-1.27,14.45-.44,17.66s6.49,2.56,6.49,2.56,28.16-.33,29.5,0,6.36,0,6.06-2.24-3.87-2.21-9.13-5.12-12.58-10.6-12.58-10.6a44.2,44.2,0,0,1-2.31-8.67c-.09-2.56,7.38-28.52,13.49-52.9s4.22-54.83,4.22-54.83l2-11.55c.85-4.81,3.94-32.06,3.94-32.06Z" fill="#fff"/>
<path d="M149.39,625.22c-1.18-.23-18.17-.13-29.19,0-.26,0-6.45.69-7.45-3.22-.89-3.42-.2-15.79.44-18.1a94,94,0,0,0,1.59-11.82c0-.21,0-1.64.18-8.83.45-16.83,1.41-51.85.35-63.29-1.36-14.47,1.69-36.81,2-38.57l-3.8-32.27v-.06a.88.88,0,0,1,.83-.93l41-2.56a.87.87,0,0,1,.93,1c-.12,1.11-3.1,27.34-3.95,32.13l-2,11.44c.11,2,1.65,31.49-4.23,55-2.55,10.1-5.28,20.34-7.69,29.37-3.12,11.76-5.79,21.91-5.79,23.29a39.53,39.53,0,0,0,2.21,8.21c1,1,7.5,7.7,12.22,10.28a41.23,41.23,0,0,0,5.17,2.32c2.39,1,4.12,1.66,4.42,3.53a2.2,2.2,0,0,1-.72,2,8.12,8.12,0,0,1-5,1.36A6,6,0,0,1,149.39,625.22Z" fill="#f9b499"/>
<path d="M156.53,622.11c-.3-1.87-2-2.54-4.42-3.53a41.23,41.23,0,0,1-5.17-2.32,26.15,26.15,0,0,1-3.53-2.36.87.87,0,0,0-1.15,0L139,617l-25.62-3.83a.87.87,0,0,0-.71.21.89.89,0,0,0-.3.66,38.08,38.08,0,0,0,.39,8c1,3.9,7.19,3.25,7.45,3.21,11-.12,28-.22,29.2,0a5.56,5.56,0,0,0,1.46.23,8.12,8.12,0,0,0,5-1.36A2.2,2.2,0,0,0,156.53,622.11Z" fill="#c70f37" data-primary="true"/>
<path d="M82.92,444l12.17,30.47a70,70,0,0,1-1.77,11.87c-1.5,6.67-3,25.64-2,42s7.91,60.62,7,64.78-11.18,18.6-9.62,28.54,8.58,7.69,11.58,6.42,7.58-2.88,8-8.34,3.13-14.77,3.62-21.81S126.65,484,127.32,474.36s-5.65-29.74-5.65-29.74Z" fill="#f9b499"/>
<path d="M108.67,615.59a1,1,0,0,0-.46,0,19.09,19.09,0,0,1-6.11,1.59c-3.27,0-8.83-1.43-9.31-2.42,0-.14-.44-1.09-.72-6.83a.88.88,0,0,0-.73-.83.9.9,0,0,0-1,.53c-2.4,5.81-3.28,10.42-2.7,14.13s2,6.27,4.2,7.49a6.91,6.91,0,0,0,3.39.77,13.18,13.18,0,0,0,5.21-1.23l.52-.21c3-1.28,7.55-3.18,8-8.83a22.92,22.92,0,0,1,.44-3.18A.91.91,0,0,0,108.67,615.59Z" fill="#c70f37" data-primary="true"/>
<path d="M101.92,208.35s-34.84,18.77-34.31,23.13,9.3,20.65,13.3,37.09.79,25.27.79,25.27,3.46,7.53-1.59,22.08S67.55,346,68.37,381.69,81.7,454,81.7,454H161s10.65-52.68,10.38-81.42-8-44.7-8.51-45.76-9.41-22.83-9.06-29,.62-38.05,2.21-43.11,1.32-18.61,1.32-18.61,36.47-1.57,43.66-3.71,22.08-20,22.08-20l-11.17-14.37-18.63,12-27.94-1.59s-13.56-2.93-20.75-3.72-21.81,1.06-21.81,1.06Z" fill="#c70f37" data-primary="true"/>
<path d="M106.81,203.3s-8.53,1.06-10.12,9,6.66,26.07,6.66,26.07l19.16-8,14.89,2.67S132,214.3,130.5,211.9s-5.07-6.93-5.07-6.93Z" fill="#2f2e41" data-secondary="true"/>
<path d="M134.21,147.5s-8.87-5.59-16.85-3.19-21.28,12.22-21.55,26.33,9,24.48,9,24.48-1.06,7.72,0,11.44,15.1,21.55,17.58,23.95,2.2-16.49,3.53-20.75a57.9,57.9,0,0,1,4.25-9.31s11.29,2.53,13.48-2.38C159.86,161.86,134.21,147.5,134.21,147.5Z" fill="#f9b499"/>
<path d="M104.41,134.47c-11.18,3-16.76,11.18-20.75,18.9S80,168.8,86.59,177.85s17,17.82,18.35,17.29,6.39-8.52,6.39-8.52-4.25-2.65-5-11.16a.68.68,0,0,0,0-.14,8.3,8.3,0,0,1,6.93-9.45s4.27,7.19,6.13,6.4,1.06-4.79,1.06-4.79l2.93-4.8s18.1-15.18,20.22-19.43S126,132.86,126,132.86A63.83,63.83,0,0,0,104.41,134.47Z" fill="#2f2e41" data-secondary="true"/>
<path d="M85.74,168.79c-2.06,6.39-7.43,9.57-10.89,9.57s-11.43-6.66-12.51-12.77,2.1-14.36,4-17,9.61-4.25,14.13-2.4a13.88,13.88,0,0,1,6.4,5.07S87.81,162.39,85.74,168.79Z" fill="#2f2e41" data-secondary="true"/>
<polygon points="127.04 206.83 124.63 199.66 130.22 200.45 127.04 206.83" fill="#f7a48b"/>
<path d="M81,268.55l-6.9,29.53,9.84,3.53L80.2,316a85.86,85.86,0,0,1-10.92-1.85c-4.82-1.54-15-4.05-13.82-6.13.9-1.64,2.64-27.67,5.58-52.42s6.65-23.95,6.65-23.95C72.75,239.29,81,268.55,81,268.55Z" fill="#c70f37" data-primary="true"/>
<polygon points="127.83 299.42 133.15 282.66 143.8 284.8 137.14 300.5 127.83 299.42" fill="#2f2e41" data-secondary="true"/>
<path d="M86.86,318.15l31.93-4s6.9.27,9.57-1.06a100.68,100.68,0,0,0,10.1-7.45,5,5,0,0,0,3.73-1.61,9.12,9.12,0,0,0,1.08-4.25l-14.91-2.12,1.59-4.52s-8.25,2.65-9,3.18a101.36,101.36,0,0,0-5.85,9.06l-25-1.35Z" fill="#f9b499"/>
<polygon points="76.21 318.06 86.33 319.91 94.03 301.3 81.81 297.57 76.21 318.06" fill="#2f2e41" data-secondary="true"/>
<path d="M226.54,209.21l28.73-38.32,4.26-1.59s6.9-1.59,8.51-4.26,1.34-13,1.34-13l5.05-5s4-1.52,5.06-4.26-2.92-2.67-9.31.8S251,162.11,251,162.11l-36.46,33.56Z" fill="#f9b499"/>
<path d="M258.47,164c2.4-2.93,2.4-12.5,2.4-12.5a24.23,24.23,0,0,0,2.65-9.06c0-4-2.93-4.26-4.26-4.53s-.53,5.06-1.59,7.72-4,6.15-6.12,9.33-4.79,12.77-4.79,12.77" fill="#f9b499"/>
<path d="M266.89,151.53c-1.57.58-2,3.14-1,4.91s6.72-.21,7.49-1.18.2-4.33.2-4.33C272.14,149.36,268.47,151,266.89,151.53Z" fill="#f7a48b"/>
<path d="M265.53,158.22a.41.41,0,0,1,0,.09,2.55,2.55,0,0,0,1,3.45,15.17,15.17,0,0,0,7.07.79c1-.4,1.18-2,1.37-4.34s-3.14-1.57-3.14-1.57S266.31,157.45,265.53,158.22Z" fill="#f7a48b"/>
<path d="M266.5,161.76s-2.17,1.57-1.18,3.14,5.33,1.59,6.5,1,1.77-3.34,1.77-3.34C272.6,162.34,266.5,161.76,266.5,161.76Z" fill="#f7a48b"/>
<polygon points="206.05 200.19 222.02 218.54 228.94 208.97 214.83 193.26 206.05 200.19" fill="#2f2e41" data-secondary="true"/>
</svg>