 <!DOCTYPE svg PUBLIC "-//W3C//DTD SVG 1.1//EN" "http://www.w3.org/Graphics/SVG/1.1/DTD/svg11.dtd">
<svg id="a3a61b71-13a8-49b4-aa64-c3ddc2bfdac7" data-name="Layer 1" xmlns="http://www.w3.org/2000/svg" width="865.76" height="682.89" viewBox="0 0 865.76 682.89">
<defs>
<style xmlns="http://www.w3.org/1999/xhtml">*, ::after, ::before { box-sizing: border-box; }
img, svg { vertical-align: middle; }
</style>
<style xmlns="http://www.w3.org/1999/xhtml">*, body, html { -webkit-font-smoothing: antialiased; }
img, svg { max-width: 100%; }
</style>
</defs>
<path d="M320,15.28H702.38a5.7,5.7,0,0,1,5.7,5.7V534.31a8.07,8.07,0,0,1-8.07,8.07H322.36a8.07,8.07,0,0,1-8.07-8.07V21A5.7,5.7,0,0,1,320,15.28Z" fill="#2f2e41" data-secondary="true"/>
<line x1="551.12" y1="421.91" x2="689.29" y2="421.91" fill="none" stroke="#e6e7e8" stroke-miterlimit="10" stroke-width="0.5"/>
<line x1="606.71" y1="413.58" x2="606.71" y2="489.44" fill="none" stroke="#e6e7e8" stroke-miterlimit="10" stroke-width="0.5"/>
<line x1="623.89" y1="413.58" x2="623.89" y2="489.44" fill="none" stroke="#e6e7e8" stroke-miterlimit="10" stroke-width="0.5"/>
<line x1="551.12" y1="435.58" x2="689.29" y2="435.58" fill="none" stroke="#e6e7e8" stroke-miterlimit="10" stroke-width="0.5"/>
<line x1="551.12" y1="449.25" x2="689.29" y2="449.25" fill="none" stroke="#e6e7e8" stroke-miterlimit="10" stroke-width="0.5"/>
<line x1="551.12" y1="462.92" x2="689.29" y2="462.92" fill="none" stroke="#e6e7e8" stroke-miterlimit="10" stroke-width="0.5"/>
<line x1="551.12" y1="480.75" x2="689.29" y2="480.75" fill="none" stroke="#e6e7e8" stroke-miterlimit="10" stroke-width="0.5"/>
<rect x="332.45" y="53.38" width="361.44" height="171.01" fill="none" stroke="#e6e7e8" stroke-miterlimit="10" stroke-width="0.5"/>
<rect x="332.45" y="232.31" width="108.16" height="108.16" fill="none" stroke="#e6e7e8" stroke-miterlimit="10" stroke-width="0.5"/>
<path d="M319.83,15.28H702.23a5.7,5.7,0,0,1,5.7,5.7V36.89a0,0,0,0,1,0,0H314.13a0,0,0,0,1,0,0V21A5.7,5.7,0,0,1,319.83,15.28Z" opacity="0.2"/>
<ellipse cx="335.8" cy="26.11" rx="2.38" ry="2.44" fill="#ccc"/>
<ellipse cx="344.09" cy="26.11" rx="2.38" ry="2.44" fill="#ccc"/>
<path d="M354.75,26.11a2.38,2.38,0,1,1-2.38-2.44,2.38,2.38,0,0,1,2.38,2.44Z" fill="#ccc"/>
<path d="M363.63,325.09a1.56,1.56,0,1,1-1.56-1.56,1.55,1.55,0,0,1,1.56,1.56Z" fill="#d1d3d4"/>
<path d="M400.11,325.09a1.56,1.56,0,1,1-1.56-1.56,1.55,1.55,0,0,1,1.56,1.56Z" fill="#fff"/>
<circle cx="361.03" cy="96.7" r="2.01" fill="#d1d3d4"/>
<circle cx="402.11" cy="96.7" r="2.01" fill="#fff"/>
<path d="M363.91,79.58h-3.26L360,81.1h-1.67l3.14-7h1.6l3.15,7h-1.7Zm-.51-1.24-1.12-2.69-1.13,2.69Z" fill="#e0e0e0"/>
<path d="M372.41,78v3.06h-1.57V78.24c0-.88-.4-1.29-1.13-1.29s-1.3.47-1.3,1.47v2.63h-1.57V75.63h1.5v.63a2.37,2.37,0,0,1,1.8-.71,2.12,2.12,0,0,1,2.28,2A2,2,0,0,1,372.41,78Z" fill="#e0e0e0"/>
<path d="M378.62,78v3H377.1v-.68a1.76,1.76,0,0,1-1.65.76c-1.27,0-2-.71-2-1.64s.68-1.62,2.33-1.62h1.35c0-.68-.4-1.06-1.25-1.06a2.65,2.65,0,0,0-1.56.49l-.56-1.13a4.17,4.17,0,0,1,2.33-.65C377.66,75.6,378.62,76.36,378.62,78Zm-1.52,1.38v-.59H376c-.73,0-1,.27-1,.64s.33.65.89.65A1.13,1.13,0,0,0,377.1,79.38Z" fill="#e0e0e0"/>
<path d="M380,73.62h1.59v7.43h-1.57Z" fill="#e0e0e0"/>
<path d="M388.4,75.68,386,81.42a2.26,2.26,0,0,1-2.26,1.71,2.35,2.35,0,0,1-1.51-.5l.57-1.13a1.36,1.36,0,0,0,.89.34c.43,0,.67-.19.88-.66v-.06l-2.34-5.46h1.69l1.51,3.67,1.54-3.67Z" fill="#e0e0e0"/>
<path d="M392.72,80.83a2.32,2.32,0,0,1-1.29.35,1.79,1.79,0,0,1-2-1.53,2,2,0,0,1,0-.42V77h-.83V75.8h.83V74.48H391V75.8h1.36V77H391v2.26a.64.64,0,0,0,.55.71h.13a1.07,1.07,0,0,0,.63-.2Z" fill="#e0e0e0"/>
<path d="M393.41,74.05a.9.9,0,0,1,.92-.88h.05a.88.88,0,0,1,1,.77V74a.9.9,0,0,1-.9.9h-.08a.9.9,0,0,1-1-.81Zm.19,1.63h1.57v5.37H393.6Z" fill="#e0e0e0"/>
<path d="M396.22,78.39a2.81,2.81,0,0,1,2.83-2.8h.2A2.5,2.5,0,0,1,401.67,77l-1.21.66a1.45,1.45,0,0,0-2.39,1.63,1.46,1.46,0,0,0,1.17.63,1.37,1.37,0,0,0,1.22-.75l1.21.67a2.52,2.52,0,0,1-2.42,1.37,2.82,2.82,0,0,1-3-2.59C396.23,78.52,396.22,78.45,396.22,78.39Z" fill="#e0e0e0"/>
<path d="M402.05,80.59l.52-1.13a3.69,3.69,0,0,0,1.89.53c.72,0,1-.19,1-.5,0-.88-3.26,0-3.26-2.14,0-1,.92-1.75,2.49-1.75a4.33,4.33,0,0,1,2.09.47l-.52,1.13a3.2,3.2,0,0,0-1.57-.41c-.7,0-1,.23-1,.51,0,.93,3.27,0,3.27,2.16,0,1-.94,1.73-2.55,1.73A4.73,4.73,0,0,1,402.05,80.59Z" fill="#e0e0e0"/>
<path d="M362,121.05v.84h-3.32v-.66l1.69-1.6c.4-.37.47-.6.47-.81a.65.65,0,0,0-.71-.55,1.15,1.15,0,0,0-.91.44l-.74-.47a2,2,0,0,1,1.75-.82c1,0,1.62.5,1.62,1.29a1.71,1.71,0,0,1-.73,1.39l-1,1Z" fill="#fff"/>
<path d="M362.42,119.69c0-1.45.8-2.26,1.89-2.26s1.87.82,1.87,2.26-.79,2.25-1.87,2.25S362.42,121.14,362.42,119.69Zm2.75,0c0-1-.35-1.42-.86-1.42s-.86.42-.86,1.42.35,1.41.86,1.41.81-.41.81-1.41Z" fill="#fff"/>
<path d="M368.29,120.58l-.47.46v.86h-1v-4.71h1v2.63l1.43-1.35h1.13L369,119.9l1.53,1.94h-1.19Z" fill="#3f3d56"/>
<path d="M360.38,138.52v4.4h-1v-3.58h-.87v-.82Z" fill="#fff"/>
<path d="M364.47,141.54c0,.77-.58,1.44-1.83,1.44a3.07,3.07,0,0,1-1.67-.46l.4-.78a2.13,2.13,0,0,0,1.24.4c.51,0,.83-.22.83-.58s-.23-.56-1-.56h-1.13l.23-2.48h2.67v.82h-1.76l-.07.83h.35C364,140.17,364.47,140.76,364.47,141.54Z" fill="#fff"/>
<path d="M366.53,141.59l-.47.47v.86h-1v-4.66h1v2.65l1.43-1.36h1.13l-1.4,1.43,1.54,2h-1.19Z" fill="#fff"/>
<path d="M360.38,159.55v4.39h-1v-3.58h-.87v-.81Z" fill="#fff"/>
<path d="M361.15,161.74c0-1.44.8-2.26,1.88-2.26s1.88.83,1.88,2.26S364.12,164,363,164,361.15,163.2,361.15,161.74Zm2.74,0c0-1-.35-1.41-.86-1.41s-.86.42-.86,1.41.35,1.41.86,1.41S363.89,162.75,363.89,161.74Z" fill="#fff"/>
<path d="M367.06,162.61l-.47.48v.85h-1v-4.65h1v2.63l1.43-1.35h1.13l-1.4,1.43,1.53,1.94h-1.19Z" fill="#3f3d56"/>
<path d="M362,183.58c0,.78-.56,1.46-1.81,1.46a3.14,3.14,0,0,1-1.69-.46l.41-.78a2.12,2.12,0,0,0,1.24.39c.51,0,.83-.21.83-.57s-.23-.57-1-.57h-1.13l.23-2.47h2.67v.81H359.9l-.06.84h.32C361.5,182.23,362,182.81,362,183.58Z" fill="#fff"/>
<path d="M364.07,183.64l-.46.47V185h-1v-4.63h1V183l1.42-1.36h1.13L364.75,183l1.53,1.95h-1.12Z" fill="#fff"/>
<path d="M358.68,203.8c0-1.45.82-2.26,1.89-2.26s1.89.82,1.89,2.26-.81,2.26-1.89,2.26S358.68,205.28,358.68,203.8Zm2.75,0c0-1-.35-1.41-.86-1.41s-.85.41-.85,1.41.35,1.41.85,1.41S361.43,204.8,361.43,203.8Z" fill="#fff"/>
<path d="M364.6,204.67l-.47.47V206h-1v-4.65h1V204l1.43-1.36h1.13l-1.4,1.43,1.53,1.95h-1.13Z" fill="#fff"/>
<path d="M384.83,306.05a27.8,27.8,0,1,1,27.79-27.8A27.8,27.8,0,0,1,384.83,306.05Zm0-49.94A22.15,22.15,0,1,0,407,278.25h0a22.16,22.16,0,0,0-22.14-22.15Z" fill="#e6e7e8"/>
<path d="M384.81,307.17a29.15,29.15,0,0,1-8.75-1.33,4.52,4.52,0,1,1,2.69-8.63,20.45,20.45,0,0,0,12.15-39,4.51,4.51,0,0,1,2.55-8.66l.13,0a29.49,29.49,0,0,1-8.77,57.6Z" fill="#d1d3d4"/>
<path d="M379.36,281.17h-1.47v1.95H375.8v-1.95h-5v-1.44l4.37-5.88h2.26l-4,5.58h2.48v-1.74h2v1.74h1.45Z" fill="#e0e0e0"/>
<path d="M387,280.21c0,1.63-1.2,3.07-3.85,3.07a6.4,6.4,0,0,1-3.53-1l.85-1.63a4.5,4.5,0,0,0,2.63.82c1.07,0,1.73-.44,1.73-1.2s-.48-1.2-2.16-1.2h-2.36l.48-5.22h5.64v1.73h-3.86l-.15,1.76h.76C385.92,277.34,387,278.57,387,280.21Z" fill="#e0e0e0"/>
<path d="M387.59,276.3a2.32,2.32,0,1,1,0,.31A1.61,1.61,0,0,1,387.59,276.3Zm3.27,0c0-1-.39-1.47-1-1.47s-1,.49-1,1.47.39,1.47,1,1.47,1-.48,1-1.47Zm4.52-2.45H397l-6.33,9.27h-1.58Zm-1.52,6.77a2.63,2.63,0,1,1,0,.28,1.79,1.79,0,0,1,0-.23Zm3.25,0c0-1-.38-1.46-1-1.46s-1,.47-1,1.46.4,1.47,1,1.47,1-.44,1-1.42Z" fill="#e0e0e0"/>
<path d="M503.06,253.47V278l-16.49,18.14a24.53,24.53,0,0,1,16.52-42.67Z" fill="#e6e7e8"/>
<path d="M520.63,260.87,503.06,278V253.47A24.49,24.49,0,0,1,520.63,260.87Z" fill="#d1d3d4"/>
<path d="M527.6,278a24.53,24.53,0,0,1-9,19l-15.5-19,17.57-17.13A24.53,24.53,0,0,1,527.6,278Z" fill="#ccc"/>
<path d="M518.56,303.48a24.56,24.56,0,0,1-32-.89l16.53-18.13Z" fill="#fff"/>
<rect x="491.75" y="316.97" width="28.64" height="2.76" fill="#fff"/>
<rect x="491.75" y="322.71" width="19.01" height="2.76" fill="#fff"/>
<rect x="478.53" y="316.93" width="8.57" height="8.57" fill="#3f3d56"/>
<path d="M591.77,254.41,585,278v24.54a24.54,24.54,0,0,1,0-49.07A25.1,25.1,0,0,1,591.77,254.41Z" fill="#ccc"/>
<path d="M599.56,297.76A24.35,24.35,0,0,1,585,302.54V278Z" fill="#fff"/>
<path d="M609.56,278a24.46,24.46,0,0,1-10,19.76L585,278l19.07-15.42A24.4,24.4,0,0,1,609.56,278Z" fill="#e6e7e8"/>
<path d="M609.56,254.63l-19.12,15.43,6.78-23.6A24.57,24.57,0,0,1,609.56,254.63Z" fill="#d1d3d4"/>
<rect x="573.72" y="316.97" width="28.64" height="2.76" fill="#fff"/>
<rect x="573.72" y="322.71" width="19.01" height="2.76" fill="#fff"/>
<rect x="560.51" y="316.93" width="8.57" height="8.57" fill="#ccc"/>
<path d="M678.86,299.51a24.54,24.54,0,1,1-11.82-46V278Z" fill="#fff"/>
<path d="M681.59,258.3,667,278.05V253.47A24.35,24.35,0,0,1,681.59,258.3Z" fill="#d1d3d4"/>
<path d="M691.57,278a24.35,24.35,0,0,1-6.5,16.63L667,278l14.59-19.7A24.46,24.46,0,0,1,691.57,278Z" fill="#ccc"/>
<path d="M693.89,306a24.63,24.63,0,0,1-6.2,4.88l-11.81-21.46Z" fill="#e6e7e8"/>
<rect x="655.74" y="316.97" width="28.64" height="2.76" fill="#fff"/>
<rect x="655.74" y="322.71" width="19.01" height="2.76" fill="#fff"/>
<rect x="642.52" y="316.93" width="8.57" height="8.57" fill="#fff"/>
<rect x="548.71" y="380.77" width="142.86" height="3.17" fill="#fff"/>
<rect x="573.15" y="387.38" width="94" height="3.17" fill="#fff"/>
<rect x="570" y="502.61" width="87.71" height="2.37" fill="#fff"/>
<rect x="570" y="508.25" width="56.67" height="2.37" fill="#fff"/>
<path d="M554.6,466.83c4.21,0,6.73-13.86,12.69-13.86s6.6,10.11,11.63,10.11,4.86-17.76,11.62-17.76,5.18,7.21,12.26,7.21,4.38-16.73,11.77-16.73,4.4,23.06,12,23.06c4.86,0,6.76-7.33,12.57-7.33,3.84,0,6.11,3.66,11.14,3.66s6.13-14.07,12.42-14.07,7,8.32,11.61,8.32,6.29-13.64,14.77-13.64v54H554.53Z" fill="#d1d3d4" opacity="0.5" style="isolation:isolate"/>
<path d="M554.6,467.49v-1.32c1.28,0,3-3.24,4.31-5.6,2.21-4.07,4.51-8.26,8.38-8.26s5.6,3.08,7.24,5.78c1.28,2.13,2.6,4.32,4.39,4.32s2.93-4.26,3.93-7.37c1.62-5.11,3.31-10.38,7.69-10.38,3.91,0,5.45,2.08,6.81,3.89s2.44,3.31,5.45,3.31c2.7,0,3.77-3.91,4.8-7.68,1.2-4.5,2.47-9,7-9s5.62,5.78,6.84,11.91c1,5,2.19,11.13,5.25,11.13,1.83,0,3.34-1.5,4.91-3.12,1.94-2,4.13-4.19,7.66-4.19a10.77,10.77,0,0,1,5.38,1.78,11.52,11.52,0,0,0,5.77,1.88c1.74,0,3.33-3.35,4.61-6,1.87-3.95,3.81-8,7.81-8s5.9,2.66,7.61,5c1.26,1.71,2.45,3.33,4,3.33s2.84-2.6,4.16-4.88c2.26-3.9,5.09-8.75,10.6-8.75v1.32c-4.23,0-6.68,4.22-8.85,7.94-1.84,3.19-3.31,5.71-5.91,5.71s-4.15-2-5.68-4.06-3.14-4.28-6-4.28-4.43,3.79-6,7.14c-1.77,3.72-3.28,6.94-6.39,6.94a13.6,13.6,0,0,1-6.82-2.2,9,9,0,0,0-4.21-1.5c-2.54,0-4.35,1.85-6.09,3.62s-3.65,3.71-6.48,3.71c-4.7,0-5.89-6-7.13-12.28-1-4.8-2.13-10.77-5-10.77s-4.1,4.23-5.12,8c-1.23,4.5-2.39,8.77-6.65,8.77a7.91,7.91,0,0,1-7.14-4c-1.26-1.69-2.35-3.18-5.12-3.18s-4.5,5.18-5.86,9.34c-1.5,4.7-2.68,8.43-5.76,8.43s-4.51-2.5-6.13-5.14-3-5-5.5-5-4.82,4.1-6.61,7.39C558.72,464.65,557.17,467.49,554.6,467.49Z" fill="#d1d3d4"/>
<g opacity="0.2">
<rect x="357.85" y="503.93" width="155.85" height="1.13" fill="#fff"/>
<rect x="357.85" y="498.28" width="155.85" height="1.13" fill="#fff"/>
<rect x="357.85" y="492.63" width="155.85" height="1.13" fill="#fff"/>
<rect x="357.85" y="486.99" width="155.85" height="1.13" fill="#fff"/>
<rect x="357.85" y="481.34" width="155.85" height="1.13" fill="#fff"/>
<rect x="357.85" y="475.69" width="155.85" height="1.13" fill="#fff"/>
<rect x="357.85" y="470.05" width="155.85" height="1.13" fill="#fff"/>
<rect x="357.85" y="464.4" width="155.85" height="1.13" fill="#fff"/>
<rect x="357.85" y="458.75" width="155.85" height="1.13" fill="#fff"/>
<rect x="357.85" y="453.11" width="155.85" height="1.13" fill="#fff"/>
<rect x="357.85" y="447.46" width="155.85" height="1.13" fill="#fff"/>
<rect x="357.85" y="441.81" width="155.85" height="1.13" fill="#fff"/>
<rect x="357.85" y="436.17" width="155.85" height="1.13" fill="#fff"/>
<rect x="357.85" y="430.52" width="155.85" height="1.13" fill="#fff"/>
<rect x="357.85" y="424.87" width="155.85" height="1.13" fill="#fff"/>
<rect x="357.85" y="419.23" width="155.85" height="1.13" fill="#fff"/>
<rect x="357.85" y="413.58" width="155.85" height="1.13" fill="#fff"/>
<rect x="357.85" y="407.93" width="155.85" height="1.13" fill="#fff"/>
<rect x="357.85" y="402.29" width="155.85" height="1.13" fill="#fff"/>
<rect x="357.85" y="396.64" width="155.85" height="1.13" fill="#fff"/>
</g>
<rect x="363.13" y="493.79" width="9.41" height="11.27" fill="#d1d3d4"/>
<rect x="380.07" y="459.88" width="9.41" height="45.17" fill="#d1d3d4"/>
<rect x="397.01" y="437.29" width="9.41" height="67.77" fill="#d1d3d4"/>
<rect x="413.95" y="444.06" width="9.41" height="60.99" fill="#d1d3d4"/>
<rect x="430.89" y="459.88" width="9.41" height="45.17" fill="#d1d3d4"/>
<rect x="447.83" y="437.29" width="9.41" height="67.77" fill="#d1d3d4"/>
<rect x="464.77" y="414.68" width="9.41" height="90.38" fill="#d1d3d4"/>
<rect x="481.7" y="409.03" width="9.41" height="96.03" fill="#d1d3d4"/>
<rect x="498.64" y="459.88" width="9.41" height="45.17" fill="#d1d3d4"/>
<g opacity="0.6">
<rect x="363.13" y="497.9" width="9.41" height="7.16" fill="#fff"/>
<rect x="380.07" y="476.36" width="9.41" height="28.7" fill="#fff"/>
<rect x="397.01" y="462.01" width="9.41" height="43.05" fill="#fff"/>
<rect x="413.95" y="466.31" width="9.41" height="38.75" fill="#fff"/>
<rect x="430.89" y="476.36" width="9.41" height="28.7" fill="#fff"/>
<rect x="447.83" y="462.01" width="9.41" height="43.05" fill="#fff"/>
<rect x="464.77" y="447.65" width="9.41" height="57.4" fill="#fff"/>
<rect x="481.7" y="444.06" width="9.41" height="60.99" fill="#fff"/>
<rect x="498.64" y="476.36" width="9.41" height="28.7" fill="#fff"/>
</g>
<g opacity="0.2">
<path d="M351.16,502.16h2.75a1.45,1.45,0,0,1,1.45,1.45h0a1.45,1.45,0,0,1-1.45,1.45h-2.75a1.45,1.45,0,0,1-1.45-1.45h0A1.45,1.45,0,0,1,351.16,502.16Z" fill="#fff"/>
<path d="M351.16,496.52h2.75a1.45,1.45,0,0,1,1.45,1.44h0a1.45,1.45,0,0,1-1.45,1.45h-2.75a1.45,1.45,0,0,1-1.45-1.45h0A1.45,1.45,0,0,1,351.16,496.52Z" fill="#fff"/>
<path d="M351.16,490.87h2.75a1.45,1.45,0,0,1,1.45,1.45h0a1.44,1.44,0,0,1-1.45,1.44h-2.75a1.44,1.44,0,0,1-1.45-1.44h0A1.45,1.45,0,0,1,351.16,490.87Z" fill="#fff"/>
<path d="M351.16,485.22h2.75a1.45,1.45,0,0,1,1.45,1.45h0a1.45,1.45,0,0,1-1.45,1.45h-2.75a1.45,1.45,0,0,1-1.45-1.45h0A1.45,1.45,0,0,1,351.16,485.22Z" fill="#fff"/>
<path d="M351.16,479.58h2.75a1.45,1.45,0,0,1,1.45,1.44h0a1.45,1.45,0,0,1-1.45,1.45h-2.75a1.45,1.45,0,0,1-1.45-1.45h0A1.45,1.45,0,0,1,351.16,479.58Z" fill="#fff"/>
<path d="M351.16,473.93h2.75a1.45,1.45,0,0,1,1.45,1.45h0a1.44,1.44,0,0,1-1.45,1.44h-2.75a1.44,1.44,0,0,1-1.45-1.44h0A1.45,1.45,0,0,1,351.16,473.93Z" fill="#fff"/>
<path d="M351.16,468.29h2.75a1.44,1.44,0,0,1,1.45,1.44h0a1.45,1.45,0,0,1-1.45,1.45h-2.75a1.45,1.45,0,0,1-1.45-1.45h0A1.44,1.44,0,0,1,351.16,468.29Z" fill="#fff"/>
<path d="M351.16,462.64h2.75a1.45,1.45,0,0,1,1.45,1.44h0a1.45,1.45,0,0,1-1.45,1.45h-2.75a1.45,1.45,0,0,1-1.45-1.45h0A1.45,1.45,0,0,1,351.16,462.64Z" fill="#fff"/>
<path d="M351.16,457h2.75a1.45,1.45,0,0,1,1.45,1.45h0a1.44,1.44,0,0,1-1.45,1.44h-2.75a1.44,1.44,0,0,1-1.45-1.44h0A1.45,1.45,0,0,1,351.16,457Z" fill="#fff"/>
<path d="M351.16,451.35h2.75a1.44,1.44,0,0,1,1.45,1.44h0a1.45,1.45,0,0,1-1.45,1.45h-2.75a1.45,1.45,0,0,1-1.45-1.45h0A1.44,1.44,0,0,1,351.16,451.35Z" fill="#fff"/>
<path d="M351.16,445.7h2.75a1.45,1.45,0,0,1,1.45,1.44h0a1.45,1.45,0,0,1-1.45,1.45h-2.75a1.45,1.45,0,0,1-1.45-1.45h0A1.45,1.45,0,0,1,351.16,445.7Z" fill="#fff"/>
<path d="M351.16,440.05h2.75a1.45,1.45,0,0,1,1.45,1.45h0a1.44,1.44,0,0,1-1.45,1.44h-2.75a1.44,1.44,0,0,1-1.45-1.44h0A1.45,1.45,0,0,1,351.16,440.05Z" fill="#fff"/>
<path d="M351.16,434.41h2.75a1.44,1.44,0,0,1,1.45,1.44h0a1.45,1.45,0,0,1-1.45,1.45h-2.75a1.45,1.45,0,0,1-1.45-1.45h0A1.44,1.44,0,0,1,351.16,434.41Z" fill="#fff"/>
<path d="M351.16,428.76h2.75a1.45,1.45,0,0,1,1.45,1.44h0a1.45,1.45,0,0,1-1.45,1.45h-2.75a1.45,1.45,0,0,1-1.45-1.45h0A1.45,1.45,0,0,1,351.16,428.76Z" fill="#fff"/>
<path d="M351.16,423.11h2.75a1.45,1.45,0,0,1,1.45,1.45h0a1.44,1.44,0,0,1-1.45,1.44h-2.75a1.44,1.44,0,0,1-1.45-1.44h0A1.45,1.45,0,0,1,351.16,423.11Z" fill="#fff"/>
<path d="M351.16,417.47h2.75a1.44,1.44,0,0,1,1.45,1.44h0a1.45,1.45,0,0,1-1.45,1.45h-2.75a1.45,1.45,0,0,1-1.45-1.45h0A1.44,1.44,0,0,1,351.16,417.47Z" fill="#fff"/>
<path d="M351.16,411.82h2.75a1.45,1.45,0,0,1,1.45,1.44h0a1.45,1.45,0,0,1-1.45,1.45h-2.75a1.45,1.45,0,0,1-1.45-1.45h0A1.45,1.45,0,0,1,351.16,411.82Z" fill="#fff"/>
<path d="M351.16,406.17h2.75a1.45,1.45,0,0,1,1.45,1.45h0a1.44,1.44,0,0,1-1.45,1.44h-2.75a1.44,1.44,0,0,1-1.45-1.44h0A1.45,1.45,0,0,1,351.16,406.17Z" fill="#fff"/>
<path d="M351.16,400.53h2.75a1.44,1.44,0,0,1,1.45,1.44h0a1.45,1.45,0,0,1-1.45,1.45h-2.75a1.45,1.45,0,0,1-1.45-1.45h0A1.44,1.44,0,0,1,351.16,400.53Z" fill="#fff"/>
<path d="M351.16,394.88h2.75a1.45,1.45,0,0,1,1.45,1.45h0a1.45,1.45,0,0,1-1.45,1.44h-2.75a1.45,1.45,0,0,1-1.45-1.44h0A1.45,1.45,0,0,1,351.16,394.88Z" fill="#fff"/>
</g>
<path d="M366.46,507.88h2.75a1.45,1.45,0,0,1,1.45,1.44h0a1.45,1.45,0,0,1-1.45,1.45h-2.75a1.45,1.45,0,0,1-1.45-1.45h0A1.45,1.45,0,0,1,366.46,507.88Z" fill="#fff"/>
<path d="M383.4,507.88h2.75a1.45,1.45,0,0,1,1.45,1.44h0a1.45,1.45,0,0,1-1.45,1.45H383.4a1.45,1.45,0,0,1-1.45-1.45h0A1.45,1.45,0,0,1,383.4,507.88Z" fill="#fff"/>
<path d="M400.34,507.88h2.75a1.45,1.45,0,0,1,1.45,1.44h0a1.45,1.45,0,0,1-1.45,1.45h-2.75a1.45,1.45,0,0,1-1.45-1.45h0A1.45,1.45,0,0,1,400.34,507.88Z" fill="#fff"/>
<path d="M417.28,507.88H420a1.45,1.45,0,0,1,1.45,1.44h0a1.45,1.45,0,0,1-1.45,1.45h-2.75a1.45,1.45,0,0,1-1.45-1.45h0A1.45,1.45,0,0,1,417.28,507.88Z" fill="#fff"/>
<path d="M434.22,507.88H437a1.45,1.45,0,0,1,1.45,1.44h0a1.45,1.45,0,0,1-1.45,1.45h-2.75a1.45,1.45,0,0,1-1.45-1.45h0A1.45,1.45,0,0,1,434.22,507.88Z" fill="#fff"/>
<path d="M451.16,507.88h2.75a1.45,1.45,0,0,1,1.45,1.44h0a1.45,1.45,0,0,1-1.45,1.45h-2.75a1.45,1.45,0,0,1-1.45-1.45h0A1.45,1.45,0,0,1,451.16,507.88Z" fill="#fff"/>
<path d="M468.1,507.88h2.75a1.45,1.45,0,0,1,1.45,1.44h0a1.45,1.45,0,0,1-1.45,1.45H468.1a1.45,1.45,0,0,1-1.45-1.45h0A1.45,1.45,0,0,1,468.1,507.88Z" fill="#fff"/>
<path d="M485,507.88h2.75a1.45,1.45,0,0,1,1.45,1.44h0a1.45,1.45,0,0,1-1.45,1.45H485a1.45,1.45,0,0,1-1.45-1.45h0A1.45,1.45,0,0,1,485,507.88Z" fill="#fff"/>
<path d="M502,507.88h2.75a1.45,1.45,0,0,1,1.45,1.44h0a1.45,1.45,0,0,1-1.45,1.45H502a1.45,1.45,0,0,1-1.45-1.45h0A1.45,1.45,0,0,1,502,507.88Z" fill="#fff"/>
<path d="M476.43,382H387a2.42,2.42,0,0,1-2.42-2.42h0a2.42,2.42,0,0,1,2.42-2.42h89.45a2.42,2.42,0,0,1,2.43,2.41h0A2.43,2.43,0,0,1,476.43,382Z" fill="#fff" opacity="0.2" style="isolation:isolate"/>
<rect x="363.13" y="499.27" width="9.41" height="5.78" fill="#fff"/>
<rect x="380.07" y="481.89" width="9.41" height="23.15" fill="#fff"/>
<rect x="397.01" y="470.32" width="9.41" height="34.74" fill="#fff"/>
<rect x="413.95" y="473.78" width="9.41" height="31.26" fill="#fff"/>
<rect x="430.89" y="481.89" width="9.41" height="23.15" fill="#fff"/>
<rect x="447.83" y="470.32" width="9.41" height="34.74" fill="#fff"/>
<rect x="464.77" y="458.73" width="9.41" height="46.32" fill="#fff"/>
<rect x="481.7" y="455.83" width="9.41" height="49.23" fill="#fff"/>
<rect x="498.64" y="481.89" width="9.41" height="23.15" fill="#fff"/>
<line x1="372.25" y1="119.78" x2="671.02" y2="119.78" fill="none" stroke="#e6e7e8" stroke-miterlimit="10" stroke-width="0.5"/>
<line x1="372.25" y1="140.59" x2="671.02" y2="140.59" fill="none" stroke="#e6e7e8" stroke-miterlimit="10" stroke-width="0.5"/>
<line x1="372.25" y1="161.41" x2="671.02" y2="161.41" fill="none" stroke="#e6e7e8" stroke-miterlimit="10" stroke-width="0.5"/>
<line x1="372.25" y1="182.81" x2="671.02" y2="182.81" fill="none" stroke="#e6e7e8" stroke-miterlimit="10" stroke-width="0.5"/>
<line x1="372.25" y1="206" x2="671.02" y2="206" fill="none" stroke="#e6e7e8" stroke-miterlimit="10" stroke-width="0.5"/>
<path d="M610.32,186c-5.42-.73-11,1.2-16.32-.08-11.89-2.85-18.34-20.19-30.34-22.33-8.5-1.52-16.29,5.21-22.92,11.59s-14.3,13.21-22.82,12c-13.7-2-20.75-23.53-34.5-25-3.62-.38-7.23.75-10.84.59C461,162.24,452.86,149.33,448,137c-2.37-6-4.45-12.3-7.9-17.58s-8.56-9.57-14.26-9.64c-4.92-.08-9.58,3-12.95,7.21s-5.65,9.42-7.7,14.63a736.27,736.27,0,0,0-24.7,74.66l242.93-.19C621.86,198.17,615.74,186.68,610.32,186Z" fill="#ccc"/>
<path d="M372.25,206.32c8.24-15.39,28.68-8.23,40.23-14.75s21.46-14.07,32.35-21c4.24-2.72,9.36-5.53,15.5-5.43a20,20,0,0,1,14.3,6.54c3.05,3.33,4.9,7.08,8.7,10.1a14.21,14.21,0,0,0,8.85,3.2c5.22,0,9.25-3.39,14.46-3.31,6.77.07,10,5.36,16.22,6.92,5.09,1.26,10.9-.28,15.19-2.38s7.91-4.75,12.77-6.3c7.69-2.44,17.23-1.56,24.95.82s12.31,8,18.35,11.84c8,5,17.67,12.42,26,13.74Z" fill="#e6e7e8"/>
<line x1="366.92" y1="96.7" x2="387.28" y2="96.7" fill="none" stroke="#d1d3d4" stroke-miterlimit="10"/>
<line x1="366.92" y1="325.09" x2="378.99" y2="325.09" fill="none" stroke="#d1d3d4" stroke-miterlimit="10"/>
<line x1="403.36" y1="325.09" x2="415.43" y2="325.09" fill="none" stroke="#e6e7e8" stroke-miterlimit="10" stroke-width="0.5"/>
<line x1="406.95" y1="96.7" x2="427.31" y2="96.7" fill="none" stroke="#e6e7e8" stroke-miterlimit="10" stroke-width="0.5"/>
<polyline points="554.52 413.58 554.52 489.97 689.1 489.97" fill="none" stroke="#e6e7e8" stroke-miterlimit="10" stroke-width="0.5"/>
<polygon points="233.7 618.77 227.6 664.24 203 661.43 209.03 615.87 233.7 618.77" fill="#c70f37" data-primary="true"/>
<polygon points="228.01 661.11 203.42 658.22 203 661.43 227.6 664.24 228.01 661.11" fill="#3f3d56"/>
<g opacity="0.3">
<polygon points="231.42 637.16 230.7 641.18 205.97 638.93 206.5 634.88 231.42 637.16"/>
</g>
<polygon points="312.48 621.81 309.67 667.61 284.93 666.59 287.64 620.69 312.48 621.81" fill="#c70f37" data-primary="true"/>
<polygon points="309.86 664.45 285.12 663.34 284.93 666.59 309.67 667.61 309.86 664.45" fill="#3f3d56"/>
<g opacity="0.3">
<polygon points="311.53 640.32 311.09 644.38 286.27 643.92 286.51 639.84 311.53 640.32"/>
</g>
<path d="M219.94,408c-.71,0-3,30.21-2.37,40.18s1.14,87.37,1.14,87.37-5.24,3.52-5.24,8.19-9.38,90.3-9.38,90.3l28.23,4.69s25.71-93.23,26.3-106.12,18.75-101.45,18.75-101.45,5.87,83.85,5.87,96.75S283,640,283,640s20.91,3,31,.56c0,0,8.58-74.62,8.58-99.25V501.49s10-46.38,14.65-69.78,0-45.82,0-45.82l-84.43-11.06Z" fill="#2f2e41" data-secondary="true"/>
<path d="M219.94,408c-.71,0-3,30.21-2.37,40.18s1.14,87.37,1.14,87.37-5.24,3.52-5.24,8.19-9.38,90.3-9.38,90.3l28.23,4.69s25.71-93.23,26.3-106.12,18.75-101.45,18.75-101.45,5.87,83.85,5.87,96.75S283,640,283,640s20.91,3,31,.56c0,0,8.58-74.62,8.58-99.25V501.49s10-46.38,14.65-69.78,0-45.82,0-45.82l-84.43-11.06Z" opacity="0.2"/>
<path d="M380.79,193.12a27,27,0,0,1,2.63-11.68c2.85-5.69,11.37-15.22,11.37-15.22s11.77-9.14,13-8.54,1.62,2,0,3.45-7.92,8.75-7.92,8.75,2.64,1,2.64,2.83a4.82,4.82,0,0,1-.61,2.73s2.44,1.19,3,2.61a7.28,7.28,0,0,1,.62,2.64,2.08,2.08,0,0,1,1.62,2,11.11,11.11,0,0,1-.21,3.45s-4.46,5.09-6.28,5.69-4.27,1.36-4.27,1.36l-1.6,2.13v5.87Z" fill="#f9b499"/>
<path d="M200.58,238.2S158,313.32,157.84,325.1C157.53,346.05,217,363,217,363L225.41,339l-30.34-21,22.07-47.9Z" fill="#c70f37" data-primary="true"/>
<path d="M200.58,238.2a39.05,39.05,0,0,1,19.1-7.87c11.59-1.37,32.3-1.76,32.3-1.76s56.18-12.28,60.38-9.84,9.83,17.56,10.91,24.55-4.76,73.87-4.76,73.87,25.12,77.75,23.38,80.26c-.86,1.18-31.21,11.86-61.86,14.22l-1.7-22.74-3.62,21.17c-28.49,2.13-60.83,3.18-60.83,3.18s22.19-77.09,21.5-79.2S197.6,245.71,200.58,238.2Z" fill="#c70f37" data-primary="true"/>
<path d="M312.39,218.72s20.65,11.66,23.09,11.39,4.87-4.34,8.11-1.09l18.14-3.25,18.14-33A58.12,58.12,0,0,1,398,203.91s-10,34.37-16.24,39.55-30.14,23-63.55,23.27l-4.09-27.4Z" fill="#c70f37" data-primary="true"/>
<path d="M217.52,361.52s.85,3.07,5.75-.38c0,0,6.82-1.36,10.34-4.73s4.09-5.46,6.54-5.61,9.55-1.17,9.7-1.1,1.94-4-.29-4.72-12.08.21-12.08.21l-2.88.18-.49-3.94.56-3.57s-6,2.3-5.93,3.95c0,0-4.29-1.25-4.86,1.6Z" fill="#f9b499"/>
<path d="M196.94,318c0,.21-3.22.85-7,2.28s-6.65,3.08-6.82,2.91a19.84,19.84,0,0,1,6.58-3.52A19.93,19.93,0,0,1,196.94,318Z" fill="#263238"/>
<g opacity="0.3">
<path d="M213.17,279c-4.61-1.89-8.73-7.46-9.67-12.35s1-9.95,1.71-14.88a215.58,215.58,0,0,0,8,27.28"/>
</g>
<g opacity="0.3">
<path d="M298.81,210.45,233.35,311.38c16,8,36.14,12,51.25,2.44,4.19,5.16,13.16,3.29,17.24-2s4.53-12.39,4.59-19.1C306.71,265.2,302.73,237.81,298.81,210.45Z"/>
</g>
<path d="M272.48,139c-7-1.14-14.3,1.9-19.53,6.73s-8.76,11.25-11.57,17.81c-5.46,12.77-8.66,26.38-11.81,39.91-4.69,19.94-9.33,40-10.57,60.43s4.87,32.51,13.64,51l31.16-4.33v-5.9l4.22,5.9,12.1-1.86s3.62-31.65,3.62-31.55,5.77,30.14,5.77,30.14l10.1-.94c10-39.76-1.37-65.93,4.37-106.54,1.37-9.65,3.51-19.27,3.48-29s-2.56-20-9.29-27-18.33-10-26.59-4.77" fill="#2f2e41" data-secondary="true"/>
<path d="M280.12,308.66a1.48,1.48,0,0,1-.11-.45,9.52,9.52,0,0,0-.26-1.37l-.93-5.2c-.76-4.51-1.83-11.06-2.73-19.19a210.61,210.61,0,0,1-1.58-28.73,163.15,163.15,0,0,1,1.27-17,141.69,141.69,0,0,1,3.68-17.9c3.44-12,8.25-23,10.58-33.56a66.75,66.75,0,0,0,1.86-15.15,42.79,42.79,0,0,0-2-13.1,36.17,36.17,0,0,0-5-9.74,29.69,29.69,0,0,0-5.76-5.93,27.71,27.71,0,0,0-4.44-2.73l-1.24-.56a1.47,1.47,0,0,1-.41-.22l.43.15,1.29.51a24.64,24.64,0,0,1,4.54,2.73,29,29,0,0,1,5.9,5.92,35.76,35.76,0,0,1,5.15,9.8,42.37,42.37,0,0,1,2.1,13.26,67.93,67.93,0,0,1-1.8,15.3c-2.32,10.64-7.12,21.64-10.55,33.61a141.91,141.91,0,0,0-3.67,17.8,161.75,161.75,0,0,0-1.36,16.89,219.29,219.29,0,0,0,1.36,28.64c.9,8.18,1.89,14.67,2.57,19.2q.51,3.36.79,5.21c.08.58.15,1,.19,1.37A1.89,1.89,0,0,1,280.12,308.66Z"/>
<path d="M236.28,288a1.21,1.21,0,0,1,0-.38,10.44,10.44,0,0,0-.14-1.11l-.45-4.29c-.09-.94-.19-2-.3-3.11s-.15-2.38-.23-3.7c-.14-2.66-.38-5.69-.4-9,0-1.68,0-3.44-.09-5.27s.07-3.72.09-5.7c0-3.94.32-8.18.58-12.57a265.29,265.29,0,0,1,3.78-28.64,268.48,268.48,0,0,1,7.1-27.95q2.06-6.33,4.09-11.89c.71-1.85,1.37-3.65,2-5.34l2-4.85c1.26-3.11,2.61-5.83,3.71-8.19.57-1.21,1.09-2.33,1.6-3.35l1.36-2.73c.86-1.62,1.53-2.91,2-3.82l.53-1q.18-.36.21-.33a2.67,2.67,0,0,1-.14.36c-.12.26-.29.6-.48,1q-.69,1.4-1.89,3.87c-.41.85-.88,1.78-1.37,2.73s-1,2.16-1.52,3.37c-1.08,2.43-2.41,5.16-3.62,8.28q-1,2.31-2,4.85c-.7,1.7-1.36,3.5-2,5.34-1.43,3.67-2.73,7.68-4.09,11.88a252.33,252.33,0,0,0-10.86,56.4c-.27,4.4-.6,8.6-.64,12.53,0,2-.14,3.87-.12,5.69s0,3.58,0,5.25c0,3.35.19,6.37.28,9,0,1.36.11,2.56.17,3.71s.17,2.15.24,3.09c.14,1.83.25,3.28.31,4.31v1.12A1.32,1.32,0,0,1,236.28,288Z"/>
<path d="M253.52,312a.84.84,0,0,0-.14-.37,7.4,7.4,0,0,1-.35-1.13c-.33-1-.77-2.49-1.37-4.33-.27-.94-.58-2-.92-3.14s-.6-2.41-.94-3.77c-.62-2.73-1.51-5.79-2.08-9.25q-.47-2.6-1-5.46c-.35-1.91-.56-3.87-.86-5.92s-.64-4.09-.77-6.35-.39-4.45-.58-6.82a219.42,219.42,0,0,1,.22-30.23,237.45,237.45,0,0,1,4.52-29.89c.53-2.27,1-4.46,1.54-6.62s1.12-4.19,1.65-6.18c1-4,2.23-7.66,3.3-11s2.18-6.31,3.09-9,1.82-4.87,2.55-6.68l1.71-4.19.46-1.08a2.42,2.42,0,0,1,.18-.36,1.9,1.9,0,0,1-.11.39l-.39,1.11c-.39,1-.92,2.42-1.59,4.22s-1.56,4.1-2.44,6.73-2,5.6-3,9-2.2,7-3.21,11c-.52,2-1.13,4.1-1.61,6.18l-1.51,6.62a245.33,245.33,0,0,0-4.45,29.8,224.4,224.4,0,0,0-.29,30.13c.2,2.3.37,4.55.55,6.75s.52,4.28.75,6.34.45,4,.82,5.91.65,3.68,1,5.45c.55,3.47,1.37,6.54,2,9.26.32,1.37.57,2.62.88,3.78s.6,2.2.88,3.15l1.18,4.35c.11.48.21.85.29,1.15A2.18,2.18,0,0,1,253.52,312Z"/>
<path d="M297.33,292.75a2.59,2.59,0,0,1-.17-.38c-.13-.3-.32-.68-.56-1.17l-.9-1.93c-.32-.77-.69-1.67-1.1-2.72a97,97,0,0,1-5.22-17.73,100.31,100.31,0,0,1,.94-43.28c1.29-5.46,3-11,4.74-16.7s3.43-11.22,4.64-16.66a83,83,0,0,0,2.14-15.92,51.3,51.3,0,0,0-1.47-14.4,37.75,37.75,0,0,0-5.09-11.52,32.13,32.13,0,0,0-13.64-11.83A27.26,27.26,0,0,0,276.9,137l-1.29-.26a1.66,1.66,0,0,1-.42-.12,1.62,1.62,0,0,1,.44,0l1.36.19a27.71,27.71,0,0,1,4.83,1.36A31.78,31.78,0,0,1,295.77,150,37.45,37.45,0,0,1,301,161.61a51.83,51.83,0,0,1,1.57,14.57,82.78,82.78,0,0,1-2.12,16c-1.21,5.46-2.89,11.05-4.63,16.74s-3.45,11.21-4.75,16.64a101.35,101.35,0,0,0-2.58,15.87,103.14,103.14,0,0,0,6.43,44.82c.39,1,.75,1.91,1.05,2.73l.84,2,.49,1.2A1.82,1.82,0,0,1,297.33,292.75Z"/>
</svg>