<svg width="600" height="135" viewBox="0 0 600 135" fill="none" xmlns="http://www.w3.org/2000/svg">
<g clip-path="url(#clip0_2_4)">
<rect width="600" height="135" fill="white"/>
<rect x="13" y="13" width="14" height="14" fill="#5C0931"/>
<rect x="40" y="13" width="14" height="14" fill="#5C0931"/>
<rect x="40" y="40" width="14" height="14" fill="#5C0931"/>
<rect x="13" y="40" width="14" height="14" fill="#5C0931"/>
<rect x="438" y="12" width="14" height="14" fill="#5C0931"/>
<rect x="465" y="12" width="14" height="14" fill="#5C0931"/>
<rect x="465" y="39" width="14" height="14" fill="#5C0931"/>
<rect x="438" y="39" width="14" height="14" fill="#5C0931"/>
<rect x="235.953" y="12" width="35" height="36" transform="rotate(12.7635 235.953 12)" fill="#D9D9D9"/>
<rect x="173.386" y="85" width="35" height="36" transform="rotate(23.554 173.386 85)" fill="#D9D9D9"/>
<rect x="549" y="99" width="35" height="36" fill="#ECE3E7"/>
<rect x="556" y="27" width="66" height="15" fill="#B9276D"/>
<rect x="-19" y="101" width="66" height="15" fill="#B9276D"/>
<path fill-rule="evenodd" clip-rule="evenodd" d="M196.438 25.4484C199.78 17.3803 201.5 8.7329 201.5 0H170.5C170.5 4.66193 169.582 9.2782 167.798 13.5853C166.014 17.8923 163.399 21.8058 160.102 25.1023C156.806 28.3988 152.892 31.0137 148.585 32.7977C144.278 34.5818 139.662 35.5 135 35.5L135 66.5C143.733 66.5 152.38 64.7799 160.448 61.438C168.517 58.0961 175.848 53.1977 182.023 47.0226C188.198 40.8475 193.096 33.5166 196.438 25.4484Z" fill="#ECE3E7"/>
<path fill-rule="evenodd" clip-rule="evenodd" d="M430.052 126.438C438.12 129.78 446.767 131.5 455.5 131.5L455.5 100.5C450.838 100.5 446.222 99.5818 441.915 97.7977C437.608 96.0137 433.694 93.3988 430.398 90.1023C427.101 86.8058 424.486 82.8923 422.702 78.5853C420.918 74.2782 420 69.6619 420 65L389 65C389 73.7329 390.72 82.3803 394.062 90.4484C397.404 98.5166 402.302 105.848 408.477 112.023C414.652 118.198 421.983 123.096 430.052 126.438Z" fill="#F7F7F7"/>
<path d="M66 33C70.4649 33 74.8862 33.8794 79.0112 35.5881C83.1363 37.2968 86.8844 39.8012 90.0416 42.9584C93.1988 46.1156 95.7032 49.8637 97.4119 53.9888C99.1206 58.1138 100 62.5351 100 67L66 67L66 33Z" fill="#F7F7F7"/>
<path d="M376 33C380.465 33 384.886 32.1206 389.011 30.4119C393.136 28.7032 396.884 26.1988 400.042 23.0416C403.199 19.8844 405.703 16.1363 407.412 12.0112C409.121 7.88617 410 3.46495 410 -0.999999L376 -0.999999L376 33Z" fill="#F7F7F7"/>
<path d="M376 33C371.535 33 367.114 33.8794 362.989 35.5881C358.864 37.2968 355.116 39.8012 351.958 42.9584C348.801 46.1156 346.297 49.8637 344.588 53.9888C342.879 58.1138 342 62.5351 342 67L376 67L376 33Z" fill="#ECE3E7"/>
<path d="M134 101C129.535 101 125.114 100.121 120.989 98.4119C116.864 96.7032 113.116 94.1988 109.958 91.0416C106.801 87.8844 104.297 84.1363 102.588 80.0112C100.879 75.8862 100 71.4649 100 67L134 67L134 101Z" fill="#ECE3E7"/>
<circle cx="220.5" cy="67.5" r="7.5" fill="#D9D9D9"/>
<path fill-rule="evenodd" clip-rule="evenodd" d="M506 120C520.359 120 532 108.359 532 94C532 79.6406 520.359 68 506 68C491.641 68 480 79.6406 480 94C480 108.359 491.641 120 506 120ZM506 108.918C514.239 108.918 520.918 102.239 520.918 94C520.918 85.761 514.239 79.082 506 79.082C497.761 79.082 491.082 85.761 491.082 94C491.082 102.239 497.761 108.918 506 108.918Z" fill="#5C0931" fill-opacity="0.1"/>
<path fill-rule="evenodd" clip-rule="evenodd" d="M73 87C70.7909 87 69 88.7909 69 91V105C69 107.209 70.7909 109 73 109H87C89.2091 109 91 107.209 91 105V91C91 88.7909 89.2091 87 87 87H73ZM75.3 90.3C73.6431 90.3 72.3 91.6431 72.3 93.3V102.7C72.3 104.357 73.6431 105.7 75.3 105.7H84.7C86.3569 105.7 87.7 104.357 87.7 102.7V93.3C87.7 91.6431 86.3569 90.3 84.7 90.3H75.3Z" fill="#ECE3E7"/>
<path fill-rule="evenodd" clip-rule="evenodd" d="M324 16C321.791 16 320 17.7909 320 20V34C320 36.2091 321.791 38 324 38H338C340.209 38 342 36.2091 342 34V20C342 17.7909 340.209 16 338 16H324ZM326.3 19.3C324.643 19.3 323.3 20.6431 323.3 22.3V31.7C323.3 33.3569 324.643 34.7 326.3 34.7H335.7C337.357 34.7 338.7 33.3569 338.7 31.7V22.3C338.7 20.6431 337.357 19.3 335.7 19.3H326.3Z" fill="#ECE3E7"/>
<path fill-rule="evenodd" clip-rule="evenodd" d="M560 65C557.791 65 556 66.7909 556 69V83C556 85.2091 557.791 87 560 87H574C576.209 87 578 85.2091 578 83V69C578 66.7909 576.209 65 574 65H560ZM562.3 68.3C560.643 68.3 559.3 69.6431 559.3 71.3V80.7C559.3 82.3569 560.643 83.7 562.3 83.7H571.7C573.357 83.7 574.7 82.3569 574.7 80.7V71.3C574.7 69.6431 573.357 68.3 571.7 68.3H562.3Z" fill="#ECE3E7"/>
<path fill-rule="evenodd" clip-rule="evenodd" d="M275.308 75C275.308 69.4771 279.785 65 285.308 65H319.986C325.509 65 329.986 69.4772 329.986 75V114.696C329.986 120.219 325.509 124.696 319.986 124.696H311.337C311.857 123.073 312.14 121.33 312.14 119.516C312.14 117.944 311.928 116.426 311.533 114.992H315.678C318.439 114.992 320.678 112.754 320.678 109.992V80.9647C320.678 78.2032 318.439 75.9647 315.678 75.9647H289.549C286.787 75.9647 284.549 78.2032 284.549 80.9647V85.5319C283.067 84.8844 281.447 84.5279 279.75 84.5279C278.188 84.5279 276.692 84.83 275.308 85.3829V75Z" fill="#5C0931"/>
<circle cx="279.5" cy="116.5" r="8.5" fill="#5C0931"/>
</g>
<defs>
<clipPath id="clip0_2_4">
<rect width="600" height="135" fill="white"/>
</clipPath>
</defs>
</svg>
