<svg width="600" height="135" viewBox="0 0 600 135" fill="none" xmlns="http://www.w3.org/2000/svg">
<g clip-path="url(#clip0_2_4)">
<rect width="600" height="135" fill="white"/>
<rect x="13" y="13" width="14" height="14" fill="#5C0931"/>
<rect x="40" y="13" width="14" height="14" fill="#5C0931"/>
<rect x="40" y="40" width="14" height="14" fill="#5C0931"/>
<rect x="13" y="40" width="14" height="14" fill="#5C0931"/>
<rect x="480" y="13" width="14" height="14" fill="#5C0931"/>
<rect x="507" y="13" width="14" height="14" fill="#5C0931"/>
<rect x="507" y="40" width="14" height="14" fill="#5C0931"/>
<rect x="480" y="40" width="14" height="14" fill="#5C0931"/>
<rect x="269.409" y="27.5786" width="35" height="36" transform="rotate(12.7635 269.409 27.5786)" fill="#D9D9D9"/>
<rect x="173.386" y="85" width="35" height="36" transform="rotate(23.554 173.386 85)" fill="#D9D9D9"/>
<rect x="566" y="100" width="35" height="36" fill="#ECE3E7"/>
<rect x="543" y="27" width="66" height="15" fill="#B9276D"/>
<rect x="-19" y="77" width="66" height="15" fill="#B9276D"/>
<path fill-rule="evenodd" clip-rule="evenodd" d="M196.438 25.4484C199.78 17.3803 201.5 8.7329 201.5 0H170.5C170.5 4.66193 169.582 9.2782 167.798 13.5853C166.014 17.8923 163.399 21.8058 160.102 25.1023C156.806 28.3988 152.892 31.0137 148.585 32.7977C144.278 34.5818 139.662 35.5 135 35.5L135 66.5C143.733 66.5 152.38 64.7799 160.448 61.438C168.517 58.0961 175.848 53.1977 182.023 47.0226C188.198 40.8475 193.096 33.5166 196.438 25.4484Z" fill="#ECE3E7"/>
<path fill-rule="evenodd" clip-rule="evenodd" d="M372.052 129.438C380.12 132.78 388.767 134.5 397.5 134.5L397.5 103.5C392.838 103.5 388.222 102.582 383.915 100.798C379.608 99.0137 375.694 96.3988 372.398 93.1023C369.101 89.8058 366.486 85.8923 364.702 81.5853C362.918 77.2782 362 72.6619 362 68L331 68C331 76.7329 332.72 85.3803 336.062 93.4484C339.404 101.517 344.302 108.848 350.477 115.023C356.652 121.198 363.983 126.096 372.052 129.438Z" fill="#F7F7F7"/>
<path d="M66 33C70.4649 33 74.8862 33.8794 79.0112 35.5881C83.1363 37.2968 86.8844 39.8012 90.0416 42.9584C93.1988 46.1156 95.7032 49.8637 97.4119 53.9888C99.1206 58.1138 100 62.5351 100 67L66 67L66 33Z" fill="#F7F7F7"/>
<path d="M398 31C402.465 31 406.886 30.1206 411.011 28.4119C415.136 26.7032 418.884 24.1988 422.042 21.0416C425.199 17.8844 427.703 14.1363 429.412 10.0112C431.121 5.88617 432 1.46495 432 -3L398 -3L398 31Z" fill="#F7F7F7"/>
<path d="M400 33C395.535 33 391.114 33.8794 386.989 35.5881C382.864 37.2968 379.116 39.8012 375.958 42.9584C372.801 46.1156 370.297 49.8637 368.588 53.9888C366.879 58.1138 366 62.5351 366 67L400 67L400 33Z" fill="#ECE3E7"/>
<path d="M-2 101C2.46494 101 6.88616 101.879 11.0112 103.588C15.1363 105.297 18.8844 107.801 22.0416 110.958C25.1988 114.116 27.7032 117.864 29.4119 121.989C31.1206 126.114 32 130.535 32 135L-2 135L-2 101Z" fill="#F7F7F7"/>
<path d="M134 101C129.535 101 125.114 100.121 120.989 98.4119C116.864 96.7032 113.116 94.1988 109.958 91.0416C106.801 87.8844 104.297 84.1363 102.588 80.0112C100.879 75.8862 100 71.4649 100 67L134 67L134 101Z" fill="#ECE3E7"/>
<circle cx="220.5" cy="86.5" r="7.5" fill="#D9D9D9"/>
<circle cx="218.34" cy="26.7343" r="7.5" transform="rotate(14.2279 218.34 26.7343)" fill="#B9276D" fill-opacity="0.3"/>
<circle cx="243.542" cy="33.1246" r="7.5" transform="rotate(14.2279 243.542 33.1246)" fill="#B9276D" fill-opacity="0.3"/>
<circle cx="236.66" cy="60.2657" r="7.5" transform="rotate(14.2279 236.66 60.2657)" fill="#B9276D" fill-opacity="0.3"/>
<circle cx="211.458" cy="53.8754" r="7.5" transform="rotate(14.2279 211.458 53.8754)" fill="#B9276D" fill-opacity="0.3"/>
<path fill-rule="evenodd" clip-rule="evenodd" d="M494 128C508.359 128 520 116.359 520 102C520 87.6406 508.359 76 494 76C479.641 76 468 87.6406 468 102C468 116.359 479.641 128 494 128ZM494 116.918C502.239 116.918 508.918 110.239 508.918 102C508.918 93.761 502.239 87.082 494 87.082C485.761 87.082 479.082 93.761 479.082 102C479.082 110.239 485.761 116.918 494 116.918Z" fill="#5C0931" fill-opacity="0.1"/>
<path fill-rule="evenodd" clip-rule="evenodd" d="M436 51C433.791 51 432 52.7909 432 55V69C432 71.2091 433.791 73 436 73H450C452.209 73 454 71.2091 454 69V55C454 52.7909 452.209 51 450 51H436ZM438.3 54.3C436.643 54.3 435.3 55.6431 435.3 57.3V66.7C435.3 68.3569 436.643 69.7 438.3 69.7H447.7C449.357 69.7 450.7 68.3569 450.7 66.7V57.3C450.7 55.6431 449.357 54.3 447.7 54.3H438.3Z" fill="#ECE3E7"/>
<path fill-rule="evenodd" clip-rule="evenodd" d="M324 16C321.791 16 320 17.7909 320 20V34C320 36.2091 321.791 38 324 38H338C340.209 38 342 36.2091 342 34V20C342 17.7909 340.209 16 338 16H324ZM326.3 19.3C324.643 19.3 323.3 20.6431 323.3 22.3V31.7C323.3 33.3569 324.643 34.7 326.3 34.7H335.7C337.357 34.7 338.7 33.3569 338.7 31.7V22.3C338.7 20.6431 337.357 19.3 335.7 19.3H326.3Z" fill="#ECE3E7"/>
<path fill-rule="evenodd" clip-rule="evenodd" d="M560 65C557.791 65 556 66.7909 556 69V83C556 85.2091 557.791 87 560 87H574C576.209 87 578 85.2091 578 83V69C578 66.7909 576.209 65 574 65H560ZM562.3 68.3C560.643 68.3 559.3 69.6431 559.3 71.3V80.7C559.3 82.3569 560.643 83.7 562.3 83.7H571.7C573.357 83.7 574.7 82.3569 574.7 80.7V71.3C574.7 69.6431 573.357 68.3 571.7 68.3H562.3Z" fill="#ECE3E7"/>
<path fill-rule="evenodd" clip-rule="evenodd" d="M70.3077 80C70.3077 74.4771 74.7849 70 80.3077 70H114.986C120.509 70 124.986 74.4772 124.986 80V109.747C124.986 115.27 120.509 119.747 114.986 119.747H106.337C106.857 118.394 107.14 116.942 107.14 115.43C107.14 114.12 106.928 112.855 106.533 111.66H110.678C113.439 111.66 115.678 109.422 115.678 106.66V84.1372C115.678 81.3758 113.439 79.1372 110.678 79.1372H84.5487C81.7872 79.1372 79.5487 81.3758 79.5487 84.1372V87.1099C78.0667 86.5704 76.4469 86.2733 74.7501 86.2733C73.1882 86.2733 71.6917 86.525 70.3077 86.9858V80Z" fill="#5C0931"/>
<ellipse cx="74.5" cy="112.917" rx="8.5" ry="7.08333" fill="#5C0931"/>
<path d="M158.916 89.2727V114H153.845L144.005 99.7287H143.848V114H137.871V89.2727H143.015L152.746 103.52H152.952V89.2727H158.916ZM162.674 114V89.2727H179.916V94.1264H168.651V99.1974H179.034V104.063H168.651V109.146H179.916V114H162.674ZM189.587 114L182.391 89.2727H188.995L192.726 105.476H192.931L197.193 89.2727H202.578L206.84 105.512H207.046L210.789 89.2727H217.381L210.197 114H204.438L199.982 99.0043H199.789L195.334 114H189.587ZM227.155 114V89.2727H233.131V99.7287H233.457L241.631 89.2727H248.67L239.905 100.308L248.827 114H241.68L235.522 104.281L233.131 107.299V114H227.155ZM251.028 114V89.2727H268.269V94.1264H257.004V99.1974H267.388V104.063H257.004V109.146H268.269V114H251.028ZM270.781 89.2727H277.457L282.685 99.62H282.903L288.131 89.2727H294.808L285.764 105.741V114H279.824V105.741L270.781 89.2727ZM304.618 114V89.2727H321.497V94.1264H310.594V99.1974H320.422V104.063H310.594V114H304.618ZM324.506 114V89.2727H341.748V94.1264H330.483V99.1974H340.866V104.063H330.483V109.146H341.748V114H324.506ZM350.839 114H344.416L352.759 89.2727H360.716L369.059 114H362.635L356.828 95.5028H356.635L350.839 114ZM349.982 104.268H363.408V108.808H349.982V104.268ZM367.824 94.1264V89.2727H388.724V94.1264H381.226V114H375.334V94.1264H367.824ZM406.602 89.2727H412.567V105.222C412.567 107.066 412.128 108.671 411.251 110.04C410.374 111.4 409.15 112.455 407.58 113.203C406.011 113.944 404.188 114.314 402.111 114.314C400.01 114.314 398.175 113.944 396.605 113.203C395.036 112.455 393.816 111.4 392.947 110.04C392.078 108.671 391.643 107.066 391.643 105.222V89.2727H397.619V104.703C397.619 105.556 397.805 106.317 398.175 106.985C398.553 107.653 399.08 108.176 399.757 108.555C400.433 108.933 401.218 109.122 402.111 109.122C403.004 109.122 403.785 108.933 404.453 108.555C405.129 108.176 405.657 107.653 406.035 106.985C406.413 106.317 406.602 105.556 406.602 104.703V89.2727ZM416.313 114V89.2727H426.527C428.379 89.2727 429.976 89.6068 431.321 90.2749C432.673 90.9349 433.715 91.8847 434.448 93.1243C435.18 94.3558 435.547 95.8168 435.547 97.5071C435.547 99.2216 435.172 100.679 434.424 101.878C433.675 103.069 432.613 103.979 431.236 104.607C429.86 105.226 428.23 105.536 426.346 105.536H419.887V100.827H425.235C426.137 100.827 426.89 100.711 427.493 100.477C428.105 100.236 428.568 99.8736 428.882 99.3906C429.196 98.8996 429.353 98.2718 429.353 97.5071C429.353 96.7424 429.196 96.1106 428.882 95.6115C428.568 95.1044 428.105 94.7261 427.493 94.4766C426.882 94.219 426.129 94.0902 425.235 94.0902H422.289V114H416.313ZM430.234 102.699L436.392 114H429.872L423.835 102.699H430.234ZM438.825 114V89.2727H456.066V94.1264H444.801V99.1974H455.185V104.063H444.801V109.146H456.066V114H438.825ZM473.175 96.6861C473.094 95.8007 472.736 95.1125 472.1 94.6214C471.472 94.1224 470.575 93.8729 469.408 93.8729C468.635 93.8729 467.991 93.9735 467.476 94.1747C466.961 94.3759 466.574 94.6536 466.317 95.0078C466.059 95.3539 465.926 95.7524 465.918 96.2031C465.902 96.5734 465.975 96.8994 466.136 97.1811C466.305 97.4628 466.546 97.7124 466.86 97.9297C467.182 98.139 467.568 98.3241 468.019 98.4851C468.47 98.6461 468.977 98.7869 469.54 98.9077L471.665 99.3906C472.889 99.6562 473.968 100.01 474.901 100.453C475.843 100.896 476.632 101.423 477.268 102.035C477.912 102.647 478.399 103.351 478.729 104.148C479.059 104.945 479.228 105.838 479.236 106.828C479.228 108.39 478.833 109.73 478.053 110.849C477.272 111.968 476.149 112.825 474.684 113.42C473.227 114.016 471.468 114.314 469.408 114.314C467.339 114.314 465.536 114.004 463.999 113.384C462.461 112.764 461.266 111.823 460.413 110.559C459.559 109.295 459.121 107.697 459.097 105.766H464.82C464.868 106.562 465.081 107.227 465.46 107.758C465.838 108.289 466.357 108.692 467.017 108.965C467.685 109.239 468.458 109.376 469.335 109.376C470.14 109.376 470.824 109.267 471.388 109.05C471.959 108.832 472.398 108.531 472.704 108.144C473.01 107.758 473.167 107.315 473.175 106.816C473.167 106.349 473.022 105.951 472.74 105.621C472.458 105.283 472.024 104.993 471.436 104.751C470.857 104.502 470.116 104.272 469.214 104.063L466.631 103.46C464.49 102.969 462.803 102.176 461.572 101.081C460.34 99.9782 459.728 98.4891 459.737 96.6136C459.728 95.0843 460.139 93.7441 460.968 92.593C461.797 91.442 462.944 90.5445 464.409 89.9006C465.874 89.2566 467.544 88.9347 469.42 88.9347C471.335 88.9347 472.998 89.2607 474.406 89.9126C475.823 90.5566 476.922 91.4621 477.702 92.6293C478.483 93.7964 478.882 95.1487 478.898 96.6861H473.175Z" fill="#5C0931"/>
</g>
<defs>
<clipPath id="clip0_2_4">
<rect width="600" height="135" fill="white"/>
</clipPath>
</defs>
</svg>
