<svg width="5101" height="1544" viewBox="0 0 5101 1544" fill="none" xmlns="http://www.w3.org/2000/svg">
<g clip-path="url(#clip0_16_202)">
<path d="M1753.8 775.2C1753.8 799.2 1752.2 820.8 1749 840H1263C1267 888 1283.8 925.6 1313.4 952.8C1343 980 1379.4 993.6 1422.6 993.6C1485 993.6 1529.4 966.8 1555.8 913.2H1737C1717.8 977.2 1681 1030 1626.6 1071.6C1572.2 1112.4 1505.4 1132.8 1426.2 1132.8C1362.2 1132.8 1304.6 1118.8 1253.4 1090.8C1203 1062 1163.4 1021.6 1134.6 969.6C1106.6 917.6 1092.6 857.6 1092.6 789.6C1092.6 720.8 1106.6 660.4 1134.6 608.4C1162.6 556.4 1201.8 516.4 1252.2 488.4C1302.6 460.4 1360.6 446.4 1426.2 446.4C1489.4 446.4 1545.8 460 1595.4 487.2C1645.8 514.4 1684.6 553.2 1711.8 603.6C1739.8 653.2 1753.8 710.4 1753.8 775.2ZM1579.8 727.2C1579 684 1563.4 649.6 1533 624C1502.6 597.6 1465.4 584.4 1421.4 584.4C1379.8 584.4 1344.6 597.2 1315.8 622.8C1287.8 647.6 1270.6 682.4 1264.2 727.2H1579.8ZM2044.43 553.2C2066.03 522.8 2095.63 497.6 2133.23 477.6C2171.63 456.8 2215.23 446.4 2264.03 446.4C2320.83 446.4 2372.03 460.4 2417.63 488.4C2464.03 516.4 2500.43 556.4 2526.83 608.4C2554.03 659.6 2567.63 719.2 2567.63 787.2C2567.63 855.2 2554.03 915.6 2526.83 968.4C2500.43 1020.4 2464.03 1060.8 2417.63 1089.6C2372.03 1118.4 2320.83 1132.8 2264.03 1132.8C2215.23 1132.8 2172.03 1122.8 2134.43 1102.8C2097.63 1082.8 2067.63 1057.6 2044.43 1027.2V1438.8H1876.43V457.2H2044.43V553.2ZM2396.03 787.2C2396.03 747.2 2387.63 712.8 2370.83 684C2354.83 654.4 2333.23 632 2306.03 616.8C2279.63 601.6 2250.83 594 2219.63 594C2189.23 594 2160.43 602 2133.23 618C2106.83 633.2 2085.23 655.6 2068.43 685.2C2052.43 714.8 2044.43 749.6 2044.43 789.6C2044.43 829.6 2052.43 864.4 2068.43 894C2085.23 923.6 2106.83 946.4 2133.23 962.4C2160.43 977.6 2189.23 985.2 2219.63 985.2C2250.83 985.2 2279.63 977.2 2306.03 961.2C2333.23 945.2 2354.83 922.4 2370.83 892.8C2387.63 863.2 2396.03 828 2396.03 787.2ZM3317.31 457.2V1122H3148.11V1038C3126.51 1066.8 3098.11 1089.6 3062.91 1106.4C3028.51 1122.4 2990.91 1130.4 2950.11 1130.4C2898.11 1130.4 2852.11 1119.6 2812.11 1098C2772.11 1075.6 2740.51 1043.2 2717.31 1000.8C2694.91 957.6 2683.71 906.4 2683.71 847.2V457.2H2851.71V823.2C2851.71 876 2864.91 916.8 2891.31 945.6C2917.71 973.6 2953.71 987.6 2999.31 987.6C3045.71 987.6 3082.11 973.6 3108.51 945.6C3134.91 916.8 3148.11 876 3148.11 823.2V457.2H3317.31ZM3651.07 234V1122H3483.07V234H3651.07ZM3773.85 787.2C3773.85 720 3787.05 660.4 3813.45 608.4C3840.65 556.4 3877.05 516.4 3922.65 488.4C3969.05 460.4 4020.65 446.4 4077.45 446.4C4127.05 446.4 4170.25 456.4 4207.05 476.4C4244.65 496.4 4274.65 521.6 4297.05 552V457.2H4466.25V1122H4297.05V1024.8C4275.45 1056 4245.45 1082 4207.05 1102.8C4169.45 1122.8 4125.85 1132.8 4076.25 1132.8C4020.25 1132.8 3969.05 1118.4 3922.65 1089.6C3877.05 1060.8 3840.65 1020.4 3813.45 968.4C3787.05 915.6 3773.85 855.2 3773.85 787.2ZM4297.05 789.6C4297.05 748.8 4289.05 714 4273.05 685.2C4257.05 655.6 4235.45 633.2 4208.25 618C4181.05 602 4151.85 594 4120.65 594C4089.45 594 4060.65 601.6 4034.25 616.8C4007.85 632 3986.25 654.4 3969.45 684C3953.45 712.8 3945.45 747.2 3945.45 787.2C3945.45 827.2 3953.45 862.4 3969.45 892.8C3986.25 922.4 4007.85 945.2 4034.25 961.2C4061.45 977.2 4090.25 985.2 4120.65 985.2C4151.85 985.2 4181.05 977.6 4208.25 962.4C4235.45 946.4 4257.05 924 4273.05 895.2C4289.05 865.6 4297.05 830.4 4297.05 789.6ZM4798.33 560.4C4819.93 525.2 4847.93 497.6 4882.33 477.6C4917.53 457.6 4957.53 447.6 5002.33 447.6V624H4957.93C4905.13 624 4865.13 636.4 4837.93 661.2C4811.53 686 4798.33 729.2 4798.33 790.8V1122H4630.33V457.2H4798.33V560.4Z" fill="white"/>
<path fill-rule="evenodd" clip-rule="evenodd" d="M184.331 147.004C142.91 147.004 109.331 180.583 109.331 222.004V472.661C133.216 463.826 159.044 459 186 459C215.285 459 243.24 464.696 268.816 475.041V352.186C268.816 335.617 282.248 322.186 298.816 322.186H862.36C878.929 322.186 892.36 335.617 892.36 352.186V915.73C892.36 932.299 878.929 945.73 862.36 945.73H734.528C741.341 968.629 745 992.887 745 1018C745 1046.99 740.126 1074.83 731.152 1100.77H978C1019.42 1100.77 1053 1067.19 1053 1025.77V1003.58C1019.91 946.613 998.805 881.22 993.521 810.783C986.425 716.185 1008.91 626.374 1053 550.819V222.004C1053 180.583 1019.42 147.004 978 147.004H184.331Z" fill="white"/>
<circle cx="197" cy="977" r="145" fill="white"/>
</g>
<defs>
<clipPath id="clip0_16_202">
<rect width="5101" height="1544" fill="white"/>
</clipPath>
</defs>
</svg>
