 <!DOCTYPE svg PUBLIC "-//W3C//DTD SVG 1.1//EN" "http://www.w3.org/Graphics/SVG/1.1/DTD/svg11.dtd">
<svg id="e2f0900b-be4a-468d-8ec7-14c6566259ff" data-name="Layer 1" xmlns="http://www.w3.org/2000/svg" width="865.76" height="682.89" viewBox="0 0 865.76 682.89">
<defs>
<style xmlns="http://www.w3.org/1999/xhtml">*, ::after, ::before { box-sizing: border-box; }
img, svg { vertical-align: middle; }
</style>
<style xmlns="http://www.w3.org/1999/xhtml">*, body, html { -webkit-font-smoothing: antialiased; }
img, svg { max-width: 100%; }
</style>
</defs>
<path d="M440.12,637.77H132.45c-17.17,0-31.09-15.76-31.1-35.17V141.92c0-19.42,13.93-35.15,31.1-35.17H440.12c17.17,0,31.08,15.75,31.1,35.17V602.6C471.2,622,457.29,637.74,440.12,637.77Z" fill="#e6e6e6"/>
<path d="M429.86,620.06H142.7c-16,0-29-14.7-29-32.82v-430c0-18.12,13-32.81,29-32.83H429.86c16,0,29,14.71,29,32.83v430C458.87,605.36,445.89,620,429.86,620.06Z" fill="#fff"/>
<path d="M423.63,223.67H148.94a9,9,0,0,1,0-17.92H423.63a9,9,0,0,1,0,17.92Z" fill="#2f2e41" data-secondary="true"/>
<path d="M423.63,259.06H148.94a9,9,0,0,1,0-17.91H423.63a9,9,0,0,1,0,17.91Z" fill="#2f2e41" data-secondary="true"/>
<path d="M268,294.46H148.94a9,9,0,1,1,0-17.91H268a9,9,0,0,1,0,17.91Z" fill="#2f2e41" data-secondary="true"/>
<path d="M423.63,368.6H148.94a9,9,0,0,1,0-17.92H423.63a9,9,0,0,1,0,17.92h0Z" fill="#e4e4e4"/>
<path d="M423.63,404H148.94a9,9,0,0,1,0-17.92H423.63a9,9,0,0,1,0,17.92Z" fill="#e4e4e4"/>
<path d="M268,439.4H148.94a9,9,0,1,1,0-17.92H268a9,9,0,0,1,0,17.92Z" fill="#e4e4e4"/>
<path d="M423.63,513.54H148.94a9,9,0,1,1,0-17.92H423.63a9,9,0,0,1,0,17.92Z" fill="#e4e4e4"/>
<path d="M423.63,548.94H148.94a9,9,0,1,1,0-17.92H423.63a9,9,0,0,1,0,17.92Z" fill="#e4e4e4"/>
<path d="M268,584.33H148.94a9,9,0,0,1,0-17.91H268a9,9,0,1,1,0,17.91Z" fill="#e4e4e4"/>
<path d="M463.09,571.78s4.51-41.5,14.21-46.11,23.19-7.66,26.87-1.47a73.83,73.83,0,0,1,9,25.5c1.46,9.93.64,25.11.64,25.11l-11.08-1.23s.53-41.37-2.84-47.48-20.42-1.2-22.28,6.18-5.94,40.42-5.94,40.42Z" fill="#2f2e41" data-secondary="true"/>
<path d="M424.54,630.29c.51-17.11,2.12-54.85,2.86-71.44a8.42,8.42,0,0,1,8.46-8.06l101.79.57a8.42,8.42,0,0,1,8.38,8.18l2,70.27a8.43,8.43,0,0,1-8.19,8.66h-.19L433,639a8.43,8.43,0,0,1-8.46-8.4Z" fill="#2f2e41" data-secondary="true"/>
<polygon points="478.99 576.9 445.01 575.48 445.15 557.74 479.15 558.03 478.99 576.9" fill="#f5f5f5"/>
<path d="M475.4,563.92a106.94,106.94,0,0,1-12.66,0,106.94,106.94,0,0,1-12.65-.73,106.94,106.94,0,0,1,12.66,0A102.85,102.85,0,0,1,475.4,563.92Z" fill="#2f2e41" data-secondary="true"/>
<path d="M475.55,568.51a103.16,103.16,0,0,1-12.68,0,104.86,104.86,0,0,1-12.65-.74,107.28,107.28,0,0,1,12.68,0A105,105,0,0,1,475.55,568.51Z" fill="#2f2e41" data-secondary="true"/>
<path d="M475.68,573.13a107.11,107.11,0,0,1-12.67,0,106.78,106.78,0,0,1-12.64-.74,111.39,111.39,0,0,1,12.66,0A102.86,102.86,0,0,1,475.68,573.13Z" fill="#2f2e41" data-secondary="true"/>
<path d="M523.27,577.22c-9.74.36-21.65,0-34.3-.32l.31-19.16,34,.29Z" fill="#f5f5f5"/>
<path d="M519.54,563.92a107.28,107.28,0,0,1-12.68,0,106.94,106.94,0,0,1-12.65-.73,107.28,107.28,0,0,1,12.68,0A102.85,102.85,0,0,1,519.54,563.92Z" fill="#2f2e41" data-secondary="true"/>
<path d="M519.67,568.51a102.84,102.84,0,0,1-12.66,0,104.74,104.74,0,0,1-12.65-.74,106.94,106.94,0,0,1,12.66,0A104.86,104.86,0,0,1,519.67,568.51Z" fill="#2f2e41" data-secondary="true"/>
<path d="M519.8,573.13a106.94,106.94,0,0,1-12.66,0,107,107,0,0,1-12.65-.74,111.74,111.74,0,0,1,12.68,0A102.53,102.53,0,0,1,519.8,573.13Z" fill="#2f2e41" data-secondary="true"/>
<polygon points="507.96 577.4 465.55 576.67 465.74 554.53 508.15 554.9 507.96 577.4" fill="#ccc"/>
<path d="M503.46,562.23c0,.22-7.07.19-15.79,0s-15.78-.61-15.78-.82,7.08-.19,15.81,0S503.48,562,503.46,562.23Z" fill="#2f2e41" data-secondary="true"/>
<path d="M503.64,568c0,.2-7.09.17-15.8,0s-15.78-.62-15.78-.82,7.09-.19,15.8,0S503.64,567.77,503.64,568Z" fill="#2f2e41" data-secondary="true"/>
<path d="M503.81,573.73c0,.2-7.08.17-15.79,0s-15.8-.62-15.78-.84,7.07-.17,15.79.07S503.81,573.52,503.81,573.73Z" fill="#2f2e41" data-secondary="true"/>
<path d="M509.73,622.31a10.15,10.15,0,0,0,1.78-.23,9,9,0,0,0,4.4-2.45,9.22,9.22,0,0,0,2.47-7.39V595.08a9,9,0,0,0-1.82-6.22,8.32,8.32,0,0,0-6-3.2c-2.48-.08-5.1,0-7.75-.09l-34.57-.26a8.39,8.39,0,0,0-8.48,8.06v4.39c0,2.93,0,5.74-.09,8.52v4.13a37.55,37.55,0,0,0,0,4,8.43,8.43,0,0,0,4,6A8.22,8.22,0,0,0,467,621.6c1.14.11,2.39,0,3.56.1l13.17.16,19,.28,5.16.12H470.57c-1.2,0-2.36,0-3.65-.09a8.76,8.76,0,0,1-3.61-1.26,9.11,9.11,0,0,1-4.31-6.5,32.81,32.81,0,0,1-.08-4.09V606.2c0-2.79,0-5.63.07-8.51V593.3a8.87,8.87,0,0,1,1.32-4.39,9.2,9.2,0,0,1,7.92-4.39l34.56.33c2.66,0,5.23,0,7.79.12a9,9,0,0,1,6.5,3.48,9.59,9.59,0,0,1,1.9,6.62c0,2.2,0,4.3-.09,6.31,0,4-.1,7.64-.14,10.85a19.74,19.74,0,0,1-.09,2.32,9.46,9.46,0,0,1-.53,2.11,9.05,9.05,0,0,1-2.08,3.17,8.82,8.82,0,0,1-4.58,2.38A6,6,0,0,1,509.73,622.31Z" opacity="0.2"/>
<g opacity="0.3">
<path d="M440.45,628.43a162.59,162.59,0,0,0,93.2.19Z"/>
</g>
<rect x="488.72" y="583.29" width="6.82" height="18.83" rx="2.78" transform="translate(-104.84 1079.64) rotate(-89.5)" fill="#e0e0e0"/>
<circle cx="483.57" cy="168.85" r="45.93" fill="#2f2e41" data-secondary="true"/>
<path d="M483.57,165.62a45.94,45.94,0,0,1-45.81-42.7c-.07,1.07-.12,2.15-.12,3.24a45.93,45.93,0,0,0,91.85,0c0-1.09,0-2.17-.12-3.24A45.94,45.94,0,0,1,483.57,165.62Z" fill="#231f20" opacity="0.16" style="isolation:isolate"/>
<path d="M483.57,191.3a5.77,5.77,0,0,1-5.76-5.76V152.26a5.76,5.76,0,0,1,11.51,0h0v33.28A5.77,5.77,0,0,1,483.57,191.3Z" fill="#fff"/>
<path d="M461.17,168.9a5.76,5.76,0,0,1,5.75-5.75h33.29a5.75,5.75,0,0,1,0,11.5h-33.3A5.76,5.76,0,0,1,461.17,168.9Z" fill="#fff"/>
<path d="M528.36,179h.91l.92,3.76-3.37,1.09s-8.93-2.68-13.07-.3-.83,6.18,3.7,6.9,14.38,2.69,17.41,3.47,6.6,2,9.43.63,7.17-.19,7.17-.19l6.66-11.33s-17.46-11.51-20.32-13.69-6-3.91-7.64-2.77l-.67.48c-.06,1.14,0,2.35,0,3.55a28.92,28.92,0,0,1-.61,5.41A29.31,29.31,0,0,0,528.36,179Z" fill="#f9b499"/>
<path d="M671.75,164.07l-6.5,1.14-57,41-48.06-27.49-13.89,23.22s51.16,43.17,61,43.67c7.32.38,43.42-20.82,43.42-20.82Z" fill="#c70f37" data-primary="true"/>
<path d="M671.75,164.07l-6.5,1.14-57,41-48.06-27.49-13.89,23.22s51.16,43.17,61,43.67c7.32.38,43.42-20.82,43.42-20.82Z" opacity="0.12"/>
<path d="M728.13,589.41l5.18,30.75s-32.39-2.76-29.12,21.38l60-7.92-6.12-48.31Z" fill="#c70f37" data-primary="true"/>
<path d="M751.52,615.12a2.47,2.47,0,0,1,2.07,2.58,2.37,2.37,0,0,1-2.54,2.06,2.6,2.6,0,0,1-2.16-2.74,2.47,2.47,0,0,1,2.92-1.86" fill="#e0e0e0"/>
<path d="M764.42,634.9l-.59-4.69-57.66,8s-2.52,1.46-2,3.35Z" fill="#2f2e41" data-secondary="true"/>
<path d="M731.9,612.85c.15.25,1.47-.32,3.12-.44s3,.25,3.15,0-1.26-1.15-3.23-1S731.73,612.65,731.9,612.85Z" fill="#263238"/>
<path d="M674.37,585.08l2.11,31.12s-33.67-4.81-31.08,18.41l60.51-2L704.56,584Z" fill="#c70f37" data-primary="true"/>
<path d="M695.13,613a2.46,2.46,0,0,1,1.8,2.77,2.37,2.37,0,0,1-2.72,1.8,2.59,2.59,0,0,1-1.89-2.93,2.48,2.48,0,0,1,3-1.58" fill="#e0e0e0"/>
<path d="M706,633.9l-.12-4.7-58.16,2.26s-2.67,1.27-2.3,3.15Z" fill="#2f2e41" data-secondary="true"/>
<path d="M675.82,608.78c.13.27,1.47-.19,3.15-.13s3,.54,3.15.28-1.15-1.28-3.12-1.3S675.68,608.55,675.82,608.78Z" fill="#263238"/>
<path d="M642.81,366.65s9.14,113.73,10.8,129.16c1.47,13.81,15.61,117.66,15.61,117.66l40.37-1.32-7-164.77V354L649,350Z" fill="#2f2e41" data-secondary="true"/>
<path d="M674.18,359.62l74-12.84c-.49,2.53,3.28,30.74,3.28,30.74l-7.67,19.64.62,74.17,19.79,140-37.84,3.71s-24.16-92-27.82-110.65-12.13-55.93-13.64-66.52c-.82-5.71-6-29.8-8.64-49.14" fill="#2f2e41" data-secondary="true"/>
<path d="M674.18,359.62l74-12.84c-.49,2.53,3.28,30.74,3.28,30.74l-7.67,19.64.62,74.17,19.79,140-37.84,3.71s-24.16-92-27.82-110.65-12.13-55.93-13.64-66.52c-.82-5.71-6-29.8-8.64-49.14" opacity="0.2"/>
<path d="M724.29,150.21s22.2,17.49,22.68,20.26l-7.41,116.31,19.34,77.36S696,375.72,640.57,373.4h0L645.47,257l2.8-52.09,9.79-23.53,9-8.68-3.6-2.93,15.91-17.88,39.23-14.47Z" fill="#c70f37" data-primary="true"/>
<g opacity="0.2">
<path d="M740.45,290.67h-96.4l-.48,11.46s82.61,1.47,99.21-2.47Z" fill="#fff"/>
</g>
<path d="M723.47,148.36a8.41,8.41,0,0,1-1,1.14l-3,3.12L708.23,164h-.08l-8.58,2.21.26-.45c.41,1.65.83,3.42,1.29,5.24v.16l-.1.15L684.91,194.8l-26,37.62-8,11.33-2.2,3.05a8,8,0,0,1-.82,1,6.33,6.33,0,0,1,.68-1.15l2.06-3.13c1.88-2.8,4.51-6.69,7.75-11.48l25.79-37.69c5.86-8.45,11.37-16.44,16.21-23.43v.31L699.16,166l-.08-.35.36-.09,8.59-2.12-.15.09L719.3,152.4l3.13-2.93A10.93,10.93,0,0,1,723.47,148.36Z" opacity="0.12"/>
<path d="M718.67,137.38c-1.67.62-22.15,16.9-33,36.44s-35.13,65.74-35.13,65.74l3.21-15.67,18.15-54.7,7.19-16.57Z" fill="#f5f5f5"/>
<path d="M757.63,201.18s-.15-39.63-25.59-34.86L712.65,183.8a44.16,44.16,0,0,0-1.28,17.57c0,1.6,9.54,57.25,9.54,57.25L643,255.8l-4.26,35.95s97,8.79,110.82.79,12.2-12.19,12.72-22.79S757.63,201.18,757.63,201.18Z" fill="#c70f37" data-primary="true"/>
<path d="M757.63,201.18s-.15-39.63-25.59-34.86L712.65,183.8a44.16,44.16,0,0,0-1.28,17.57c0,1.6,9.54,57.25,9.54,57.25L643,255.8l-4.26,35.95s97,8.79,110.82.79,12.2-12.19,12.72-22.79S757.63,201.18,757.63,201.18Z" opacity="0.12"/>
<polygon points="681.16 332.33 682.86 315.78 727.27 311.46 734.81 325.83 681.16 332.33" opacity="0.2"/>
<g opacity="0.3">
<polygon points="683.18 332.03 682.48 336.48 733.49 329.76 731.95 326.54 683.18 332.03"/>
</g>
<rect x="675.57" y="226.13" width="25.03" height="7.71" fill="#f5f5f5"/>
<path d="M718.22,137.6l1-51.85C720,68,711.12,52.58,693.32,52.37l-1.66.09A31.82,31.82,0,0,0,661.37,83.2c-.51,15.42-.88,32.47-.38,40.71,1,17,18.21,18.89,18.21,18.89,0,.53,0,4.77-.1,9.85v8.48Z" fill="#f9b499"/>
<path d="M679.16,142.77a41.41,41.41,0,0,0,22-7.61s-4.83,12.7-22,12Z" fill="#f4a58c"/>
<path d="M718.47,98.69c.29-.15,12.23-3.91,12.1,8.34s-12.41,9.61-12.43,9.26S718.47,98.69,718.47,98.69Z" fill="#f9b499"/>
<path d="M638.71,67.3a2.7,2.7,0,0,1,1.35-1.56,8.35,8.35,0,0,1,4.39-.6,24.75,24.75,0,0,0,10.7-2.4,12.93,12.93,0,0,1-3.07-2.27,7.32,7.32,0,0,1-1.91-7.32,1.58,1.58,0,0,1,.94-1.09c.76-.22,1.46.55,1.92,1.15a6.29,6.29,0,0,0,5.85,2.66,10.71,10.71,0,0,0,4.47-1.2l.15-.16,1.81-1.76h0c4.5-4.21,8.33-7.13,12.24-8.59C683.29,42,692.8,41.33,698.69,43s11.07,6.65,11.71,12.74c3.4-2.73,8.37-2.58,12.37-.85h.1c4.47,1.73,6.91,6.54,8.11,11.17a3.52,3.52,0,0,0,.19.76A17.91,17.91,0,0,0,737,72.92c.42.27.91.59,1,1.09a1.42,1.42,0,0,1-.8,1.18,9,9,0,0,1-3.68,1.47,19.66,19.66,0,0,0,1.46,3.2c.49.87,1.07,1.92.6,2.8a1.87,1.87,0,0,1-2,.82,5.52,5.52,0,0,1-2.08-1l1.46,3.66a11,11,0,0,1-4.89-.45,119.15,119.15,0,0,1-3.46,12.6c-1.88,0-3.65-.54-4.85.47-1.61,1.37-2.39,4-5,2.93-1.32-.55-2.46-3.37-2.93-4.75a66.47,66.47,0,0,1-2.16-28.18,21.33,21.33,0,0,0-6.47-4.92l.2.19c-4.71-1.77-10-3.54-14.64-1.46-3.54,1.64-5.69,5.23-8.37,8a25.24,25.24,0,0,1-18.55,8.26c-.79,5.12-.41,11.71-.77,16.42l-4.24-7.83h0c-.3-.57-.57-1.14-.82-1.73l-.08-.16h0a27.46,27.46,0,0,0-1.28-2.75h0a3,3,0,1,1-4.27-4.11,7.26,7.26,0,0,1,1.46-1.47,4.71,4.71,0,0,1-4.54,1.06,3.71,3.71,0,0,1-2.53-3.74,3.16,3.16,0,0,1,2-2.48,10.48,10.48,0,0,1-6-1.47C639.41,70,638.27,68.81,638.71,67.3Z" fill="#2f2e41" data-secondary="true"/>
<path d="M705,57.58a15.78,15.78,0,0,1,1.67,1.6,12.22,12.22,0,0,1,2.46,5.72,20.85,20.85,0,0,1,.32,4.39c0,1.57-.19,3.25-.36,5a47.28,47.28,0,0,0-.27,5.58,19.29,19.29,0,0,0,.31,2.93,6.21,6.21,0,0,0,1.13,2.92,2.58,2.58,0,0,0,2.39.87,3.79,3.79,0,0,0,2.19-1.16,8.86,8.86,0,0,0,1.74-4.29h-.35a13.92,13.92,0,0,0,2,3.63,5,5,0,0,0,3.26,1.88,3.14,3.14,0,0,0,1.76-.27,2.72,2.72,0,0,0,1.23-1.14,2.88,2.88,0,0,0,.39-1.46,2,2,0,0,0-.51-1.33l-.19.14a10.9,10.9,0,0,0,3.59,2.84,8.67,8.67,0,0,0,1.13.47l.39.12a.76.76,0,0,1-.37-.18c-.24-.17-.62-.28-1.09-.53a11.59,11.59,0,0,1-3.46-2.92l-.17.14a2.23,2.23,0,0,1,0,2.54,2.63,2.63,0,0,1-1.12,1,3.08,3.08,0,0,1-1.59.21,4.77,4.77,0,0,1-3-1.79A14.42,14.42,0,0,1,716.5,81l-.22-.55-.13.59a8.4,8.4,0,0,1-1.67,4.08,3.49,3.49,0,0,1-2,1.06,2.17,2.17,0,0,1-2-.75,5.71,5.71,0,0,1-1-2.69,18.08,18.08,0,0,1-.3-2.93,44.4,44.4,0,0,1,.23-5.53c.16-1.76.32-3.44.34-5a20.9,20.9,0,0,0-.38-4.39,12,12,0,0,0-2.62-5.75A7.18,7.18,0,0,0,705,57.58Z" fill="#3f3d56"/>
<path d="M651.92,72.79l.13.13.41.31a6,6,0,0,0,.71.49,9.34,9.34,0,0,0,1,.57,15.17,15.17,0,0,0,7.32,1.46,19.2,19.2,0,0,0,10.36-3.54A33,33,0,0,0,681,62.27c1.3-2,2.36-4.12,3.53-6.05a22.76,22.76,0,0,1,3.92-5.08,11.93,11.93,0,0,1,5-2.93,8.17,8.17,0,0,1,5,.3,9.72,9.72,0,0,1,3.49,2.22,10,10,0,0,1,1.85,2.53,12.49,12.49,0,0,1,.82,2.58.48.48,0,0,0,0-.17v-.53a8.6,8.6,0,0,0-.58-1.93,9.53,9.53,0,0,0-1.85-2.64,9.74,9.74,0,0,0-3.64-2.15,9.23,9.23,0,0,0-2.43-.56,8.7,8.7,0,0,0-2.69.21A11.94,11.94,0,0,0,688.16,51a22.3,22.3,0,0,0-4,5.15c-1.18,1.93-2.24,4-3.53,6A33.3,33.3,0,0,1,671.68,72a19.17,19.17,0,0,1-10.18,3.54,15.27,15.27,0,0,1-7.17-1.34A22.55,22.55,0,0,1,651.92,72.79Z" fill="#3f3d56"/>
<path d="M650.55,65.28a6.85,6.85,0,0,0,.6.44,15.47,15.47,0,0,0,1.79,1,17.15,17.15,0,0,0,2.84,1,18.38,18.38,0,0,0,7.33.42,17.08,17.08,0,0,0,2.93-.68,12.82,12.82,0,0,0,1.89-.75,3.51,3.51,0,0,0,.65-.37s-1,.38-2.61.85a19.64,19.64,0,0,1-6.54.7,21.61,21.61,0,0,1-3.58-.52,21.18,21.18,0,0,1-2.79-.92C651.49,65.78,650.6,65.22,650.55,65.28Z" fill="#3f3d56"/>
<path d="M621.61,232.87a1.26,1.26,0,0,0-1.6-.82,1.22,1.22,0,0,0-.43.24c-1.61,1.39-3.71,4.39-2.52,9.46a21,21,0,0,0,3.91,8.49l-14.32,4.24s-4.9,2.37-3.69,5.45,1.89,2.71,1.89,2.71a3.68,3.68,0,0,0-2.51,4.57.49.49,0,0,0,0,.11c.49,2.18,3.29,3.34,3.29,3.34s-.23,3.95.45,4.68a16.18,16.18,0,0,0,4.4,1.67s-.33,2.59,1.34,3.5,9.78,1.46,9.78,1.46,9.41-1.18,13-1.77l5.4.57,2.7-22.64s-4.5-.93-5.39-1.69c-1.9-1.62-8.78-10.61-8.78-10.61s-4.12-3.76-5.33-7A60.86,60.86,0,0,1,621.61,232.87Z" fill="#f9b499"/>
<path d="M613.37,260.91a56.46,56.46,0,0,1-8.67,1.46,27.47,27.47,0,0,1,4.31-.89A29.07,29.07,0,0,1,613.37,260.91Z" fill="#f4a58c"/>
<path d="M616.24,269.47a6.73,6.73,0,0,1-1.54.34c-1,.15-2.27.32-3.74.45s-2.8.21-3.77.24a8.13,8.13,0,0,1-1.56,0,8.14,8.14,0,0,1,1.55-.21l3.75-.32,3.74-.37A9.16,9.16,0,0,1,616.24,269.47Z" fill="#f4a58c"/>
<path d="M616.46,277a13,13,0,0,1-2.93.07,12,12,0,0,1-2.93-.27,13,13,0,0,1,2.93,0A12.5,12.5,0,0,1,616.46,277Z" fill="#f4a58c"/>
<path d="M648.27,247.84a6.73,6.73,0,0,1,0-1.1v-3.12c0-2.71.28-6.63.79-11.45a334,334,0,0,1,6.62-37.26c1.07-4.64,2.16-9.12,3.29-13.36v-.07h0l8-9.55.07.48-3.54-2.49-.29-.2.23-.26,11.32-12.33,3.17-3.31.85-.88a2.61,2.61,0,0,1,.31-.27,3.46,3.46,0,0,1-.23.35c-.16.22-.49.55-.79.93L675,157.41l-11.1,12.51v-.46l3.57,2.34.31.19-.23.29-8,9.61.07-.15c-1.09,4.23-2.19,8.78-3.25,13.35a377.15,377.15,0,0,0-6.83,37.14c-.57,4.8-.88,8.7-1,11.4,0,1.29-.1,2.33-.13,3.11A5.84,5.84,0,0,1,648.27,247.84Z" opacity="0.12"/>
<path d="M685.67,173.82a28.24,28.24,0,0,1-3.89,2.4l-.29.18-.08-.36c-.65-3.08-1.56-7.61-2.5-12.64l-.17-.94.7.13c-2.73,4.55-5.17,8.54-6.75,11l-.32.5-.11-.57a19.35,19.35,0,0,1-.51-3.55,21.71,21.71,0,0,1,1,3.44h-.43c1.47-2.59,3.78-6.63,6.49-11.2l.51-.86.19,1,.18.94c1,5.05,1.75,9.59,2.25,12.69l-.36-.18A30.1,30.1,0,0,1,685.67,173.82Z" fill="#c70f37" data-primary="true"/>
<path d="M539,577.15V589c0,7.7-.1,18.78-.17,32.47V624a4.94,4.94,0,0,1-.59,2.69,4.68,4.68,0,0,1-2.09,1.92,6,6,0,0,1-2.84.42H442.94a8.38,8.38,0,0,1-2-.13,4.67,4.67,0,0,1-3.63-4.39v-5c0-2.22.1-4.39.14-6.61q.14-6.58.27-12.95c.19-8.5.36-16.73.52-24.59V575h.37c29.28,1.78,54.33,2.26,72.08,2.33H537l-5.51.16c-4.83.12-11.87.24-20.76.27-17.75,0-42.86-.33-72.12-2l.38-.35c-.16,7.86-.33,16.1-.49,24.59q-.12,6.38-.26,12.94c0,2.2-.1,4.39-.15,6.62v3.34a6.22,6.22,0,0,0,.34,3.11,4,4,0,0,0,2.66,2.17,8.3,8.3,0,0,0,1.86.1h24.61l28.39.11,25.68.1h11.63a5.57,5.57,0,0,0,2.59-.35,4,4,0,0,0,1.85-1.69,4.5,4.5,0,0,0,.54-2.41v-2.59c.21-13.63.37-24.66.47-32.33.07-3.8.13-6.79.16-8.78V578A2.41,2.41,0,0,1,539,577.15Z" opacity="0.2"/>
</svg>