 <!DOCTYPE svg PUBLIC "-//W3C//DTD SVG 1.1//EN" "http://www.w3.org/Graphics/SVG/1.1/DTD/svg11.dtd">
<svg id="ea804faf-fa2f-4a50-8028-e1bd8ea2d146" data-name="Layer 1" xmlns="http://www.w3.org/2000/svg" width="865.76" height="682.89" viewBox="0 0 865.76 682.89">
<defs>
<style xmlns="http://www.w3.org/1999/xhtml">*, ::after, ::before { box-sizing: border-box; }
img, svg { vertical-align: middle; }
</style>
<style xmlns="http://www.w3.org/1999/xhtml">*, body, html { -webkit-font-smoothing: antialiased; }
img, svg { max-width: 100%; }
</style>
</defs>
<path d="M496.5,380.23l-18.14,25.65,12.1,13.88,12-24.06S498.37,391,496.5,380.23Z" fill="#f7a48b"/>
<path d="M436.23,573.32l36.5-15.93,14.35-59.65L472.73,470.8a183.32,183.32,0,0,0-45.33,31.45c-43.54,39.94-7.31,64.81-7.31,64.81,3.74,2.55,9.39,4.61,16.14,6.26" fill="#2f2e41" data-secondary="true"/>
<g opacity="0.2">
<path d="M436.23,573.32l36.5-15.93,14.35-59.65L472.73,470.8a183.32,183.32,0,0,0-45.33,31.45c-43.54,39.94-7.31,64.81-7.31,64.81,3.74,2.55,9.39,4.61,16.14,6.26"/>
</g>
<path d="M478.9,98.3V372.47H42.05V98.3A15.18,15.18,0,0,1,57.23,83.12h406.5A15.18,15.18,0,0,1,478.9,98.3Z" fill="#e6e7e8"/>
<path d="M33,344.67H12.31V69.5A16.19,16.19,0,0,1,28.49,53.32H435A16.19,16.19,0,0,1,451.16,69.5v5.68h-2V69.5A14.2,14.2,0,0,0,435,55.32H28.49A14.19,14.19,0,0,0,14.31,69.5V342.67H33Z" fill="#c70f37" data-primary="true"/>
<rect x="13.31" y="89.97" width="19.99" height="2" fill="#c70f37" data-primary="true"/>
<path d="M478.9,98.3v19.94H42.05V98.3A15.18,15.18,0,0,1,57.23,83.12h406.5A15.18,15.18,0,0,1,478.9,98.3Z" fill="#c70f37" data-primary="true"/>
<rect x="75.78" y="136.92" width="16.17" height="1" fill="#d1d3d4"/>
<rect x="75.78" y="144.82" width="16.17" height="1" fill="#d1d3d4"/>
<rect x="75.78" y="152.48" width="16.17" height="1" fill="#d1d3d4"/>
<rect x="113.09" y="133.88" width="284.68" height="21.71" rx="10.86" fill="#d1d3d4"/>
<path d="M378.92,148.79a5.39,5.39,0,1,1,5.39-5.39A5.4,5.4,0,0,1,378.92,148.79Zm0-9.78a4.39,4.39,0,1,0,4.39,4.39A4.39,4.39,0,0,0,378.92,139Z" fill="#e6e7e8"/>
<rect x="385.13" y="144.8" width="1" height="6.69" transform="translate(27.81 354.61) rotate(-51)" fill="#e6e7e8"/>
<polygon points="433.31 150.75 421.8 150.75 416.89 135.8 412.67 135.8 412.67 134.8 417.61 134.8 422.52 149.75 432.62 149.75 436.17 140.38 421.83 140.38 421.83 139.38 437.61 139.38 433.31 150.75" fill="#d1d3d4"/>
<rect x="422.16" y="142.9" width="13.63" height="1" fill="#d1d3d4"/>
<rect x="422.16" y="146.26" width="12.13" height="1" fill="#d1d3d4"/>
<circle cx="438.9" cy="137.79" r="4.62" fill="#c70f37" data-primary="true"/>
<path d="M423.67,155.2a2,2,0,1,1,2-2A2,2,0,0,1,423.67,155.2Zm0-3a1,1,0,0,0,0,2,1,1,0,1,0,0-2Z" fill="#d1d3d4"/>
<path d="M431.12,155.2a2,2,0,1,1,2-2A2,2,0,0,1,431.12,155.2Zm0-3a1,1,0,1,0,1,1A1,1,0,0,0,431.12,152.17Z" fill="#d1d3d4"/>
<rect x="330.83" y="171.96" width="114.9" height="185.78" rx="8.79" fill="#fff"/>
<rect x="361.27" y="293.56" width="53.36" height="1" fill="#2f2e41" data-secondary="true"/>
<rect x="344.41" y="308.62" width="88.23" height="1" fill="#2f2e41" data-secondary="true"/>
<path d="M387.35,263.31A35.84,35.84,0,0,1,376,261.5l-.31-.1-4.16-47.61a3,3,0,0,1,2.47-3.22h0c5.13-.91,18.09-2.75,27.65-.2a3,3,0,0,1,2.17,3.26l-5.9,48.1-.29.1A33.57,33.57,0,0,1,387.35,263.31Zm-10.72-2.65A35.73,35.73,0,0,0,397,261l5.82-47.48a2,2,0,0,0-1.42-2.17c-9.37-2.5-22.16-.68-27.23.21h0a2,2,0,0,0-1.64,2.15Z" fill="#c70f37" data-primary="true"/>
<path d="M387.19,275.9a21.62,21.62,0,0,1-10.4-2.89,2.3,2.3,0,0,1-1.13-2V260.33l.66.22c10.35,3.54,20.89.37,21,.34l.67-.21-.28,10.48a2.24,2.24,0,0,1-1,1.79A16.79,16.79,0,0,1,387.19,275.9Zm-10.53-14.18v9.33a1.25,1.25,0,0,0,.63,1.09c2.38,1.38,10.77,5.46,18.88,0a1.25,1.25,0,0,0,.53-1l.24-9.11C394.48,262.65,385.59,264.53,376.66,261.72Z" fill="#c70f37" data-primary="true"/>
<path d="M385,246.93a18.14,18.14,0,0,1-2.34-2,7,7,0,0,1-1.79-2.55,2,2,0,0,1,.16-1.72,2.7,2.7,0,0,1,1.4-1,9.9,9.9,0,0,1,3.12-.45l-.43.34a8.49,8.49,0,0,1,1.46-3.17,4.59,4.59,0,0,1,3.06-1.86,3.17,3.17,0,0,1,.92,0,3.76,3.76,0,0,1,.89.14,4.4,4.4,0,0,1,1.69.71,3.93,3.93,0,0,1,1.66,3.21,9.6,9.6,0,0,1-.84,3.34,23.3,23.3,0,0,1-1.57,3,36.48,36.48,0,0,1-4.06,5.26,59.24,59.24,0,0,0,3.54-5.56,20.61,20.61,0,0,0,1.35-2.95,9.75,9.75,0,0,0,.67-3.05,3.08,3.08,0,0,0-1.32-2.42,3.28,3.28,0,0,0-1.34-.55,2.62,2.62,0,0,0-.73-.1,3,3,0,0,0-.73,0,3.57,3.57,0,0,0-2.43,1.48,7.94,7.94,0,0,0-1.37,2.76l-.09.34h-.33a10.59,10.59,0,0,0-2.89.28,2,2,0,0,0-1.1.64,1.3,1.3,0,0,0-.15,1.18,7.51,7.51,0,0,0,1.49,2.5A25.24,25.24,0,0,0,385,246.93Z" fill="#2f2e41" data-secondary="true"/>
<path d="M404.17,206a38,38,0,0,0-31.91,0l-.48-.88a39,39,0,0,1,32.8,0Z" fill="#c70f37" data-primary="true"/>
<rect x="399.66" y="326.54" width="32.98" height="14.76" rx="7.38" fill="#c70f37" data-primary="true"/>
<path d="M168.43,342.41H150.21a7.88,7.88,0,1,1,0-15.76h18.22a7.88,7.88,0,0,1,0,15.76Zm-18.22-14.76a6.88,6.88,0,1,0,0,13.76h18.22a6.88,6.88,0,0,0,0-13.76Z" fill="#231f20"/>
<rect x="203.02" y="171.96" width="114.9" height="185.78" rx="8.79" fill="#fff"/>
<rect x="231.18" y="293.56" width="53.36" height="1" fill="#2f2e41" data-secondary="true"/>
<rect x="214.31" y="308.62" width="88.23" height="1" fill="#2f2e41" data-secondary="true"/>
<rect x="216.36" y="333.42" width="14.81" height="1" fill="#2f2e41" data-secondary="true"/>
<rect x="74.12" y="171.96" width="114.9" height="185.78" rx="8.79" fill="#fff"/>
<rect x="102.28" y="293.56" width="53.36" height="1" fill="#2f2e41" data-secondary="true"/>
<rect x="85.41" y="308.62" width="88.23" height="1" fill="#2f2e41" data-secondary="true"/>
<rect x="87.46" y="333.42" width="14.81" height="1" fill="#2f2e41" data-secondary="true"/>
<g opacity="0.33">
<path d="M240,207.38h37.61a1.79,1.79,0,0,1,1.76,1.47c.58,3.2,2.2,10.83,5.13,14.83,0,0,9.17,14.24,9.61,38.83a3.13,3.13,0,0,1-2.24,3.07c-4.75,1.37-16.26,3.85-27.81,0a3.1,3.1,0,0,1-2.11-2.84c-.12-3.43-.71-9.93-3.56-9.93,0,0-2.81-.75-2.1,9.32a3.27,3.27,0,0,1-2.53,3.41c-5,1.16-16.08,3-27.18.22a3.82,3.82,0,0,1-2.87-4.12l1.81-16.54a15.33,15.33,0,0,1,.44-2.34c.54-2,1.72-6.27,3.16-10.33a42.12,42.12,0,0,1,4-8.33,32.34,32.34,0,0,0,5.07-15A1.79,1.79,0,0,1,240,207.38Z" fill="#c70f37" data-primary="true"/>
</g>
<path d="M277.31,268A42.73,42.73,0,0,1,264,266a3.51,3.51,0,0,1-2.38-3.19c-.2-6-1.38-9.56-3.17-9.56h-.09a.72.72,0,0,0-.52.22c-.6.54-1.55,2.4-1.11,8.71a3.62,3.62,0,0,1-2.82,3.8c-5.5,1.27-16.37,3-27.37.22a4.22,4.22,0,0,1-3.15-4.53l1.81-16.54a15.65,15.65,0,0,1,.45-2.4c.57-2.13,1.74-6.32,3.17-10.36a42.53,42.53,0,0,1,4.07-8.4,32,32,0,0,0,5-14.86A2.18,2.18,0,0,1,240,207h37.61a2.18,2.18,0,0,1,2.14,1.78c.55,3.1,2.17,10.72,5.06,14.67.11.17,9.25,14.63,9.68,39.05A3.51,3.51,0,0,1,292,266,54.66,54.66,0,0,1,277.31,268Zm-18.85-15.55c2.94,0,3.74,5.62,3.9,10.3a2.71,2.71,0,0,0,1.85,2.48c11.54,3.82,23.13,1.25,27.58,0a2.75,2.75,0,0,0,2-2.69c-.43-24.19-9.46-38.49-9.55-38.63-3-4.06-4.62-11.82-5.19-15a1.4,1.4,0,0,0-1.38-1.16H240a1.41,1.41,0,0,0-1.4,1.36,32.85,32.85,0,0,1-5.12,15.23,41.5,41.5,0,0,0-4,8.24c-1.42,4-2.59,8.18-3.15,10.3a15.69,15.69,0,0,0-.43,2.29l-1.81,16.54a3.45,3.45,0,0,0,2.58,3.71c10.84,2.73,21.57,1,27-.22a2.87,2.87,0,0,0,2.24-3c-.36-5.14.11-8.3,1.42-9.38A1.38,1.38,0,0,1,258.46,252.47Z" fill="#c70f37" data-primary="true"/>
<path d="M275.36,265c-9.73,0-13.6-3.38-13.82-3.57l.68-.74c.06.06,7.07,6.08,26,1.67l.23,1A57.87,57.87,0,0,1,275.36,265Z" fill="#c70f37" data-primary="true"/>
<path d="M240.38,264.09a80.56,80.56,0,0,1-11.63-.85l.15-1c.18,0,17,2.66,27.15-1.68l.4.92C251.67,263.53,245.61,264.09,240.38,264.09Z" fill="#c70f37" data-primary="true"/>
<rect x="226.11" y="265.8" width="1" height="15.32" fill="#c70f37" data-primary="true"/>
<rect x="245.84" y="271.61" width="15.75" height="1" transform="translate(-71.03 453.64) rotate(-76.21)" fill="#c70f37" data-primary="true"/>
<path d="M265.44,279.94c-1.82-4.54-3-14.6-3.07-15l1-.12c0,.11,1.23,10.36,3,14.78Z" fill="#c70f37" data-primary="true"/>
<path d="M291.75,279.82l-1-.13c.44-3.33.63-14,.63-14.12l1,0C292.39,266,292.2,276.43,291.75,279.82Z" fill="#c70f37" data-primary="true"/>
<rect x="240.28" y="198.99" width="1" height="8.39" fill="#c70f37" data-primary="true"/>
<rect x="276.36" y="198.99" width="1" height="8.39" fill="#c70f37" data-primary="true"/>
<path d="M264,214.75c-12.6,0-26.14-.69-26.34-.7l0-1c.31,0,30.72,1.56,42.69,0l.13,1A146.35,146.35,0,0,1,264,214.75Z" fill="#c70f37" data-primary="true"/>
<path d="M258.67,247a1.7,1.7,0,0,1-.59-.1l-.3-.13-.55-32.49,1,0,.53,31.73a1.51,1.51,0,0,0,.82-.34c1.45-1.12,4.6-6.4,2.57-31.34l1-.08c1.92,23.45-.59,30.49-3,32.26A2.45,2.45,0,0,1,258.67,247Z" fill="#c70f37" data-primary="true"/>
<path d="M234.34,227.56a9,9,0,0,1-2.76-.44l.3-1a7.36,7.36,0,0,0,6-.52c5.3-2.92,7.69-11.79,7.71-11.88l1,.26c-.1.38-2.53,9.37-8.2,12.49A8.07,8.07,0,0,1,234.34,227.56Z" fill="#c70f37" data-primary="true"/>
<path d="M283.6,227.93c-9.63,0-13.47-13.39-13.51-13.54l1-.27c.05.15,4.37,15.24,15.18,12.46l.25,1A11.53,11.53,0,0,1,283.6,227.93Z" fill="#c70f37" data-primary="true"/>
<path d="M128.25,275.5c-15.82,0-24.77-7.36-24.9-7.47l-.17-.15v-24C95,245,93,240.25,92.92,240l0-.14c-1.88-23.82,23.65-35.57,23.91-35.69l.51-.23.17.53c2.89,8.66,12,8.89,12.4,8.89,10.3.56,14.11-8.54,14.26-8.92l.19-.46.46.18c20.6,8,25.52,34.49,25.57,34.76l0,.23-.15.18c-3.6,4.23-11.08,5.66-13,6V268l-.28.13C145.85,273.65,136.18,275.5,128.25,275.5Zm-24.07-8.1c2,1.56,21.16,15.22,52.09-.06V244.45l.44,0c.08,0,8.73-1.17,12.62-5.5-.53-2.59-5.76-26-24.47-33.6-1,2-5.39,9.64-15,9.1-.08,0-9.8-.22-13.12-9-3.5,1.75-24.46,13.13-22.84,34.38.25.55,2.25,4.26,9.71,3l.59-.09Z" fill="#c70f37" data-primary="true"/>
<rect x="103.18" y="235.54" width="1" height="7.72" fill="#c70f37" data-primary="true"/>
<rect x="156.27" y="237.51" width="1" height="7.72" fill="#c70f37" data-primary="true"/>
<path d="M127.89,252.54l-.3,0a2.05,2.05,0,0,1-1.45-1.35l0-.15a13.26,13.26,0,0,1,7.61-12.27,45.94,45.94,0,0,0-.89-10.21,2.43,2.43,0,0,0-1-1.57,2.36,2.36,0,0,0-1.79-.32c-13.15,3-14.28,17.48-14.34,18.54.17.75.49,1.63,1.11,1.72h.15c2.44,0,7.8-8.2,10.66-13.49l.88.48c-.81,1.49-8,14.53-11.83,14-1-.14-1.63-1-2-2.56l0-.07v-.06c0-.16.8-16.25,15.12-19.53a3.29,3.29,0,0,1,2.55.45,3.46,3.46,0,0,1,1.49,2.21,48.21,48.21,0,0,1,.93,9.93,24.85,24.85,0,0,1,7.08-1.83l.12,1a24.09,24.09,0,0,0-7.24,1.93,30.62,30.62,0,0,1-.55,4.62,13.72,13.72,0,0,1-3.53,7A4.17,4.17,0,0,1,127.89,252.54Zm-.8-1.69c.19.41.42.64.68.68s.93-.05,2.12-1.28a12.69,12.69,0,0,0,3.27-6.46,29,29,0,0,0,.5-3.91A12,12,0,0,0,127.09,250.85Z" fill="#2f2e41" data-secondary="true"/>
<path d="M140.13,241.44c0-.22-.66-5.52,6.58-9.38l.47.88c-6.59,3.52-6.08,8.17-6.05,8.37Z" fill="#2f2e41" data-secondary="true"/>
<rect x="309.22" y="419.76" width="91.66" height="98.42" rx="22.91" fill="#c70f37" data-primary="true"/>
<g opacity="0.2">
<rect x="309.22" y="419.76" width="91.66" height="98.42" rx="22.91"/>
</g>
<path d="M332.14,518.19H309.22a22.92,22.92,0,0,1-22.91-22.92V442.68a22.92,22.92,0,0,1,22.91-22.92h22.92a22.92,22.92,0,0,0-22.92,22.92v52.59A22.92,22.92,0,0,0,332.14,518.19Z" fill="#2f2e41" data-secondary="true"/>
<ellipse cx="359.47" cy="461.83" rx="9.98" ry="10.97" fill="#fff"/>
<path d="M362.91,472.18a10.19,10.19,0,0,1-7.86-.46s-14.4,6.8-14.4,21.42h37S376.33,476.11,362.91,472.18Z" fill="#fff"/>
<rect x="236.41" y="518.19" width="151.53" height="61.74" rx="30.87" fill="#2f2e41" data-secondary="true"/>
<path d="M685.37,432.51c4.3,16.29,15.54,41.59,19.51,50.3a20.53,20.53,0,0,1,1.91,8.89c-.1,5-1.91,6.92-3.57,7.63a3.77,3.77,0,0,1-3.83-.55c-13.23-10.72-35-12.9-35-12.9l-161-88.38c-6.41-4.66-7.11-19.2-7.19-22.32a1.41,1.41,0,0,1,.39-1c51.53-54.6,91.91-60.56,91.91-60.56v5.33l13.82,6L623,311.77l-.39-2.21,42.61-11.91L727,319.92l-1.68,40.27c7.94,7.26,21.42,29.52,27.51,39.94A7.94,7.94,0,0,1,751,410.28C727.5,429.6,685.37,432.51,685.37,432.51Z" fill="#c70f37" data-primary="true"/>
<g opacity="0.2">
<path d="M704.88,482.81c-41-44.64-40.82-86.94-40.82-86.94,6.23,17.35,19,30.44,21.31,36.64C689.67,448.8,700.91,474.1,704.88,482.81Z"/>
</g>
<path d="M689.75,432.08s40.32,82.62,76.37,120.08c0,0,7.11,5.22,4.27,18.5l-3,14.25a2.07,2.07,0,0,0,1.11,2.28c2.87,1.42,9.53,2.73,14.25-11.79,0,0,1.42-5.69,10.43-.47,0,0,18,16.68,48.38,13.09,0,0,17.07-.76,8.54-10.24L815,544.1s-10.43-8.06-24.19-38.89c0,0-35.86-79.64-44.73-91.28C746.05,413.93,727.2,428.19,689.75,432.08Z" fill="#f9b499"/>
<path d="M827.1,583.45a77.84,77.84,0,0,1-25.31-17.68l.75-.65a77.14,77.14,0,0,0,25,17.42Z" fill="#f7a48b"/>
<path d="M840.79,583.47c-8.91-3.06-20.7-14.83-21.2-15.33l.71-.71c.12.12,12.12,12.11,20.81,15.09Z" fill="#f7a48b"/>
<rect x="836.8" y="564.92" width="1" height="13.34" transform="translate(-109.7 933.5) rotate(-55.23)" fill="#f7a48b"/>
<path d="M538.22,544.49C535,554,513.92,550,513.92,550c-60.38-7.19-52.72-36.9-52.72-36.9,10.06-8.15,34.94-1.44,34.94-1.44C531.83,520.67,537.38,538.38,538.22,544.49Z" fill="#2f2e41" data-secondary="true"/>
<g opacity="0.4">
<path d="M538.22,544.49C535,554,513.92,550,513.92,550c-60.38-7.19-52.72-36.9-52.72-36.9,10.06-8.15,34.94-1.44,34.94-1.44C531.83,520.67,537.38,538.38,538.22,544.49Z"/>
</g>
<path d="M472.73,470.8s-18.47-.15-40.1-53.85l-16.49-6.87s-8.53.12-10.19-21.34c0,0-12.39,8.49-15.52,2.23,0,0-5.36-3.58,13.42-14.76,0,0,26.09-16.87,41.88-3.74s44.73,47.29,44.73,47.29A521.3,521.3,0,0,0,472.73,470.8Z" fill="#f9b499"/>
<rect x="404.69" y="383.98" width="15.62" height="1" transform="translate(-142.92 287.06) rotate(-33.04)" fill="#f7a48b"/>
<path d="M432.23,410.37c-6.49-8.86-5.13-15.68-3-19.71-7.92,6.34-12.63,5.74-12.85,5.7a1.21,1.21,0,0,1-.94-.79C414.07,392,426.6,374.2,428,372.19l.81.57c-5.3,7.46-13.37,20.15-12.49,22.45a.2.2,0,0,0,.19.17s5.75.68,15.2-8.28a6.17,6.17,0,0,1,.57-.54l.66.74-.76.74c-2.17,2.29-7.78,10,.82,21.74Z" fill="#f7a48b"/>
<g opacity="0.2">
<path d="M538.22,365.79S549.8,353,555.3,351.62c0,0-6,9.79-8.06,15.85C547.24,367.47,541.55,365.83,538.22,365.79Z"/>
</g>
<path d="M585.18,299.3s2.29,6.87,3.27,19.64c0,0-24.55,20.95-6.22,26.84,0,0,22.32,5.35,51.24-21.54a7.57,7.57,0,0,0,2.44-6.61c-.49-3.17-3.19-6.57-12.92-5.86l-7-22.94L601.67,274.6l-3.84,1.61Z" fill="#f9b499"/>
<path d="M585.18,299.3l2.33,11.11s8.14-8.71,8.38-19.91Z" fill="#f7a48b"/>
<ellipse cx="576.45" cy="266.97" rx="23.22" ry="36.31" transform="translate(-28.76 73.88) rotate(-7.15)" fill="#f9b499"/>
<path d="M592.06,265.91s-22.91,4.52-34.51-13.25a13.57,13.57,0,0,1-1.92-10.39c1.71-7.5,8.44-19.62,33.91-21.39a24.93,24.93,0,0,1,6,.3,50.12,50.12,0,0,1,35.73,26.21s11,38.26,55.15,25.59c0,0-36.38,18.77-54.45-17.61,0,0,3,24.18,29.34,26.53,0,0-13.85,3.05-25.35-10.1,0,0,3.86,17.35,23.45,17.28a33,33,0,0,0,9.55-1.52l21.45-6.6s20.66-8.92,43.19,5.16c0,0-23.24-10.33-38.26-3.76,0,0,57.45-6.15,62.67,39.43,0,0-8.92-23.7-24.18-29.1,0,0,41.82,41.31-8.59,67.5,0,0-21.93-45-102.68-50.63l1,6c.42,2.44.76,4.89,1,7.36.59,6.35,3,22.1,12.58,26.76,0,0-13.09-.65-17-27.17,0,0-2.94-22.58-7.53-27.17,0,0,3,12.11-4.58,19.32,0,0,8.12-18-6.42-40.09Z" fill="#2f2e41" data-secondary="true"/>
<ellipse cx="597.83" cy="268.69" rx="6.22" ry="7.52" fill="#f9b499"/>
<circle cx="602.27" cy="276.21" r="2.95" fill="#c70f37" data-primary="true"/>
<path d="M697.67,522.53A39.71,39.71,0,0,1,676,549.82c-18.19,8.76-52.11,16.79-87.26-17.79,5-10.79,11.52-13.84,11.52-13.84l-26.8-3.75c-1.14-1.39-2.33-2.73-3.57-4l-17-18-6.72,25-7.28,27.12a.36.36,0,0,1-.7,0c-.06-.39-.13-.82-.23-1.3-1.44-7-8.43-23.09-41.85-31.55,0,0-24.88-6.71-34.94,1.44a0,0,0,0,0,0,0c.16-.67,4.47-18.87,11.52-42.26,10-33.27,25.59-77,42.63-95.74,0,0,17.72-24.92,57,6.71,0,0,58.92,53,92,104.13,0,0,20.08,1.07,35,12.89A89.17,89.17,0,0,1,697.67,522.53Z" fill="#2f2e41" data-secondary="true"/>
<path d="M600.28,518.19s-6.53,3-11.52,13.84A142.88,142.88,0,0,1,576,517.58c-.83-1.06-1.67-2.11-2.54-3.14Z" fill="#2f2e41" data-secondary="true"/>
<path d="M601.88,519.4c2.86,2,8.51,6.59,10.3,13.85a14.94,14.94,0,0,1,.33,2.11c.63,6.46,2.94,38.5-12.25,44a9.13,9.13,0,0,1-8.74-1.35c-5-3.9-12.82-14.63-5.67-40,0,0,4.1-12.17,12.73-18.6A2.86,2.86,0,0,1,601.88,519.4Z" fill="#2f2e41" data-secondary="true"/>
<g opacity="0.4">
<path d="M601.88,519.4c2.86,2,8.51,6.59,10.3,13.85a14.94,14.94,0,0,1,.33,2.11c.63,6.46,2.94,38.5-12.25,44a9.13,9.13,0,0,1-8.74-1.35c-5-3.9-12.82-14.63-5.67-40,0,0,4.1-12.17,12.73-18.6A2.86,2.86,0,0,1,601.88,519.4Z"/>
</g>
<path d="M598.44,531.35s-10.45,2.43-7.9,36.43c0,0,2.05,12.05,11.73,10.64l107.05-1.33s8.59-9.49-13.57-22.15c0,0-14.17-11.4-42.49-10.24,0,0-13.87-1.2-17.27-7.82Z" fill="#f9b499"/>
<path d="M653.83,511.12a5.27,5.27,0,0,0-6.33.53c-6.09,5.42-18.44,18-11.51,25.23,0,0,3.11,6.91,17.27,7.82,0,0,23.6-1.79,42.49,10.24,0,0,21.24,11,13.57,22.15l42.48,1.44s4.72-10.84-26-23.59C725.84,554.94,670.91,521.91,653.83,511.12Z" fill="#c70f37" data-primary="true"/>
<path d="M524,528.89c-4.39,8.23-7.21,21.57-7.21,21.57-19.21,26.33-54.24,43.72-54.24,43.72-40.05,14.81-38.4-7.68-38.4-7.68L454.86,553c9.87-8.23,14.81-42.25,14.81-42.25C504.79,508.59,524,528.89,524,528.89Z" fill="#f9b499"/>
<path d="M515.42,507.7c-28.14-16.69-56.46-6.12-56.75-6l-.36-.93c.29-.11,29.05-10.87,57.62,6.08Z" fill="#231f20"/>
<path d="M583.5,553.66S583,577,595.93,579.92l-74.06-.15a14.27,14.27,0,0,0-2.75.19s7.27-9.31-2.34-29.5l.09-.15c16.52,1.94,20.28-4.58,21.12-7.12.1.48.17.91.23,1.3a.36.36,0,0,0,.7,0l7.28-27.12,1.76-6.56,25.52,3.59,26.8,3.75s-6.53,3-11.52,13.84C586.34,537.24,584.28,544.28,583.5,553.66Z" fill="#2f2e41" data-secondary="true"/>
<g opacity="0.2">
<path d="M583.5,553.66S583,577,595.93,579.92l-74.06-.15a14.27,14.27,0,0,0-2.75.19s7.27-9.31-2.34-29.5l.09-.15c16.52,1.94,20.28-4.58,21.12-7.12.1.48.17.91.23,1.3a.36.36,0,0,0,.7,0l7.28-27.12,1.76-6.56,25.52,3.59,26.8,3.75s-6.53,3-11.52,13.84C586.34,537.24,584.28,544.28,583.5,553.66Z"/>
</g>
<path d="M501.42,590.59a58,58,0,0,0-21.5,15.76A60.15,60.15,0,0,1,469,616.5c-34.64,24.67-63.84,3.9-63.84,3.9-12.83-10.18,18.94-33.9,18.94-33.9s-1.65,22.49,38.4,7.68c0,0,35-17.39,54.24-43.72C535.9,584.27,501.42,590.59,501.42,590.59Z" fill="#c70f37" data-primary="true"/>
<rect x="247.67" y="518.19" width="151.53" height="61.74" rx="30.87" fill="#c70f37" data-primary="true"/>
<path d="M332.24,558.55h-16c-3.54-.35-5.85-6.82-5.94-7.09L304,533.09a1.85,1.85,0,0,0-1.74-1.24h-4.44v-1h4.44a2.83,2.83,0,0,1,2.68,1.92l6.22,18.36c.6,1.7,2.67,6.18,5.05,6.42h16a3.52,3.52,0,0,0,3.22-2.09l6.3-14.17-.07-.11H312.18v-1h29.51a1.08,1.08,0,0,1,1,1.52l-6.29,14.16A4.54,4.54,0,0,1,332.24,558.55Z" fill="#fff"/>
<rect x="314.42" y="545.97" width="25.59" height="1" fill="#fff"/>
<rect x="316.2" y="550.79" width="21.66" height="1" fill="#fff"/>
<path d="M319.25,567.56a3.56,3.56,0,1,1,3.56-3.56A3.56,3.56,0,0,1,319.25,567.56Zm0-6.12a2.56,2.56,0,1,0,2.56,2.56A2.56,2.56,0,0,0,319.25,561.44Z" fill="#fff"/>
<path d="M330.1,567.56a3.56,3.56,0,1,1,3.56-3.56A3.56,3.56,0,0,1,330.1,567.56Zm0-6.12a2.56,2.56,0,1,0,2.56,2.56A2.56,2.56,0,0,0,330.1,561.44Z" fill="#fff"/>
<path d="M388.37,412.87H267.13l-24.06-77.24a2.8,2.8,0,0,1,2.48-3.63L362.44,324a7.09,7.09,0,0,1,7.4,5.54Z" fill="#c70f37" data-primary="true"/>
<path d="M267.13,412.87a8,8,0,0,0,7,6.88h121.4s-5.91-1.17-7.17-6.88Z" fill="#2f2e41" data-secondary="true"/>
<g opacity="0.2">
<path d="M267.13,412.87a8,8,0,0,0,7,6.88h121.4s-5.91-1.17-7.17-6.88Z"/>
</g>
<path d="M447,412.87h-58.6s.15,4.72,7.17,6.88h44.55S444.25,420.43,447,412.87Z" fill="#2f2e41" data-secondary="true"/>
<circle cx="64.41" cy="101.03" r="4.79" fill="#fff"/>
<circle cx="80.58" cy="101.03" r="4.79" fill="#fff"/>
<circle cx="96.74" cy="101.03" r="4.79" fill="#fff"/>
<path d="M302.87,194.18c-.21-.2-.42-.41-.64-.6l-2.08-1.84c-.55-.48-1.11-1-1.62-1.48a5.66,5.66,0,0,1-1-1.33,4.59,4.59,0,0,1-.45-1.4,6.62,6.62,0,0,1-.06-1.18,2.93,2.93,0,0,1,2-2.7,3.07,3.07,0,0,1,3.28.78,3.51,3.51,0,0,1,.56.71l0,.05,0-.06a3.65,3.65,0,0,1,1.24-1.23,3.1,3.1,0,0,1,3.74.48,2.86,2.86,0,0,1,.8,1.65,4.59,4.59,0,0,1,0,1,4.86,4.86,0,0,1-.2,1.19,4.37,4.37,0,0,1-.84,1.54,10.64,10.64,0,0,1-1.29,1.31c-.69.61-1.38,1.2-2.07,1.82-.47.41-.93.84-1.4,1.27Z" fill="#c70f37" data-primary="true"/>
<path d="M173.64,194.18l-.64-.6-2.09-1.84c-.55-.48-1.1-1-1.61-1.48a5.44,5.44,0,0,1-1-1.33,4.31,4.31,0,0,1-.44-1.4,6.62,6.62,0,0,1-.07-1.18,2.94,2.94,0,0,1,2-2.7,3.08,3.08,0,0,1,3.29.78,3.46,3.46,0,0,1,.55.71l0,.05,0-.06a3.56,3.56,0,0,1,1.24-1.23,3.08,3.08,0,0,1,3.73.48,2.94,2.94,0,0,1,.81,1.65,4.59,4.59,0,0,1,0,1,5.39,5.39,0,0,1-.2,1.19,4.37,4.37,0,0,1-.84,1.54,11.4,11.4,0,0,1-1.29,1.31c-.69.61-1.39,1.2-2.08,1.82-.47.41-.93.84-1.39,1.27Z" fill="#c70f37" data-primary="true"/>
<path d="M432.63,194.18c-.21-.2-.42-.41-.64-.6l-2.08-1.84c-.55-.48-1.11-1-1.62-1.48a5.66,5.66,0,0,1-1-1.33,4.31,4.31,0,0,1-.44-1.4,5.8,5.8,0,0,1-.07-1.18,2.93,2.93,0,0,1,2-2.7,3.07,3.07,0,0,1,3.28.78,3.51,3.51,0,0,1,.56.71l0,.05.05-.06a3.48,3.48,0,0,1,1.24-1.23,3.09,3.09,0,0,1,3.73.48,2.94,2.94,0,0,1,.81,1.65,4.59,4.59,0,0,1,0,1,6,6,0,0,1-.2,1.19,4.54,4.54,0,0,1-.84,1.54,12.28,12.28,0,0,1-1.29,1.31c-.69.61-1.39,1.2-2.08,1.82-.47.41-.93.84-1.39,1.27Z" fill="#c70f37" data-primary="true"/>
<rect x="146.95" y="326.54" width="32.98" height="14.76" rx="7.38" fill="#c70f37" data-primary="true"/>
<path d="M144.31,205.07c-13.66-10.11-26.86-.11-27,0l-.61-.79c.14-.11,13.92-10.57,28.2,0Z" fill="#c70f37" data-primary="true"/>
<path d="M574.34,577.32c-4.86-9.31-4.13-27.32-4.1-28.08-.81-20.11,13.14-33.41,13.28-33.55l.69.73c-.14.13-13.76,13.14-13,32.82,0,.22-.75,18.55,4,27.62Z" fill="#231f20"/>
<g id="a35db1ab-326a-4622-a2e1-0798c932dcd0" data-name="freepik--Tab--inject-453">
<g opacity="0.2">
<rect x="95.75" y="254.02" width="127.04" height="189.36"/>
</g>
<rect x="86.85" y="243.97" width="127.04" height="189.36" fill="#c70f37" data-primary="true"/>
<g opacity="0.5">
<rect x="86.85" y="243.97" width="127.04" height="189.36" fill="#fff"/>
</g>
<rect x="86.84" y="243.97" width="127.06" height="12.68" fill="#c70f37" data-primary="true"/>
<path d="M209.79,250.25a3.77,3.77,0,1,1-3.81-3.73h0A3.76,3.76,0,0,1,209.79,250.25Z" fill="#fff"/>
<path d="M191.46,419.76H110.68A13.67,13.67,0,0,1,97,406.11v0h0a13.67,13.67,0,0,1,13.66-13.66h80.8a13.66,13.66,0,0,1,13.67,13.65h0a13.66,13.66,0,0,1-13.66,13.67Z" fill="#c70f37" data-primary="true"/>
<path d="M108,410.86a5.45,5.45,0,0,1-2.16-2,5.84,5.84,0,0,1,0-5.86,5.23,5.23,0,0,1,2.16-2,6.54,6.54,0,0,1,3.09-.73,7,7,0,0,1,2.82.56,5.21,5.21,0,0,1,2,1.61l-2.31,2.07a3,3,0,0,0-2.38-1.28,2.41,2.41,0,0,0-1.84.74,2.72,2.72,0,0,0-.7,2,2.75,2.75,0,0,0,.7,2,2.35,2.35,0,0,0,1.84.72,3,3,0,0,0,2.38-1.26l2.31,2.06a5.21,5.21,0,0,1-2,1.61,7.2,7.2,0,0,1-5.94-.16Z" fill="#fff"/>
<path d="M127.7,400.49v10.84h-3.65v-4h-3.37v4H117V400.49h3.67v3.84h3.37v-3.84Z" fill="#fff"/>
<path d="M138.48,408.58v2.75h-9V400.49h8.81v2.76h-5.22v1.26h4.59v2.64h-4.59v1.43Z" fill="#fff"/>
<path d="M142.4,410.86a5.36,5.36,0,0,1-2.15-2,5.84,5.84,0,0,1,0-5.86,5.27,5.27,0,0,1,2.15-2,6.67,6.67,0,0,1,3.1-.73,7,7,0,0,1,2.82.56,5.3,5.3,0,0,1,2.05,1.61l-2.31,2.07a3,3,0,0,0-2.38-1.28,2.37,2.37,0,0,0-1.83.74,3.14,3.14,0,0,0,0,3.95,2.37,2.37,0,0,0,1.83.72,3,3,0,0,0,2.38-1.26l2.31,2.06a5.3,5.3,0,0,1-2.05,1.61,7.24,7.24,0,0,1-5.94-.16Z" fill="#fff"/>
<path d="M155.81,407.73l-.82.92v2.68h-3.57V400.49H155v3.94l3.57-3.94h4l-4.33,4.76,4.56,6.06h-4.24Z" fill="#fff"/>
<path d="M165.4,410.85a5.63,5.63,0,0,1-2.31-7.63l.13-.23a5.51,5.51,0,0,1,2.18-2,7.1,7.1,0,0,1,6.29,0,5.56,5.56,0,0,1,.38,9.66l-.38.22A7.16,7.16,0,0,1,165.4,410.85Zm4.35-2.62a2.35,2.35,0,0,0,.88-.94,3,3,0,0,0,.32-1.42,3.13,3.13,0,0,0-.32-1.44,2.41,2.41,0,0,0-.88-.94,2.38,2.38,0,0,0-3.26.82.75.75,0,0,0-.07.12,3,3,0,0,0-.34,1.44,2.92,2.92,0,0,0,.34,1.42,2.37,2.37,0,0,0,3.21,1Z" fill="#fff"/>
<path d="M177.29,410.23a5,5,0,0,1-1.4-3.78v-5.94h3.65v5.85a2.77,2.77,0,0,0,.43,1.73,1.58,1.58,0,0,0,2.38,0,2.77,2.77,0,0,0,.43-1.73v-5.85h3.57v5.94a5,5,0,0,1-1.4,3.78,6.29,6.29,0,0,1-7.77,0Z" fill="#fff"/>
<path d="M190.33,403.32h-3.18v-2.83h10v2.83H194v8h-3.65Z" fill="#fff"/>
<path d="M113,294.09h-4.76v-4.28h15.11v4.28h-4.75v12.1h-5.53Z" fill="#c70f37" data-primary="true"/>
<path d="M126.26,305.57a6.5,6.5,0,0,1-2.66-2.38,6.61,6.61,0,0,1,0-6.86,6.5,6.5,0,0,1,2.66-2.38,9.17,9.17,0,0,1,7.67,0,6.53,6.53,0,0,1,2.92,8.75,4.39,4.39,0,0,1-.27.47,6.41,6.41,0,0,1-2.65,2.38,9,9,0,0,1-7.67,0Zm5.33-3.92a2.8,2.8,0,0,0,.58-1.87,2.67,2.67,0,0,0-.58-1.84,2.06,2.06,0,0,0-2.91-.1l-.1.1a2.72,2.72,0,0,0-.58,1.84,2.8,2.8,0,0,0,.58,1.87,2,2,0,0,0,2.87.13A.86.86,0,0,0,131.59,301.65Z" fill="#c70f37" data-primary="true"/>
<path d="M148.63,305.75a6.67,6.67,0,0,1-3.26.68,6,6,0,0,1-4.14-1.3,5,5,0,0,1-1.45-3.91V298H138v-3.86h1.76v-3.57h5.29v3.57h2.62V298h-2.62v3.27a1.34,1.34,0,0,0,.3.92,1.14,1.14,0,0,0,.8.33,2.11,2.11,0,0,0,1.19-.36Z" fill="#c70f37" data-primary="true"/>
<path d="M160.85,294.67a5.74,5.74,0,0,1,1.76,4.65v6.88H157.7v-1.69a3.56,3.56,0,0,1-3.57,1.92,5.66,5.66,0,0,1-2.59-.53,3.69,3.69,0,0,1-2.16-3.44,3.27,3.27,0,0,1,1.45-2.89,7.94,7.94,0,0,1,4.4-1h2.13c-.17-1-1-1.5-2.38-1.5a5.83,5.83,0,0,0-1.76.27,4.75,4.75,0,0,0-1.52.73L150,294.61a9.57,9.57,0,0,1,2.66-1.07,13,13,0,0,1,3.11-.38A7.7,7.7,0,0,1,160.85,294.67ZM156.68,303a1.71,1.71,0,0,0,.65-.91v-.9H156c-1.07,0-1.62.37-1.62,1.09a.91.91,0,0,0,.34.73,1.39,1.39,0,0,0,.93.3,1.71,1.71,0,0,0,1-.36Z" fill="#c70f37" data-primary="true"/>
<path d="M164.92,288.83h5.29V306.2h-5.29Z" fill="#c70f37" data-primary="true"/>
<rect x="102.29" y="330.52" width="37.22" height="4.09" fill="#c70f37" data-primary="true"/>
<rect x="102.29" y="320.46" width="27.03" height="4.09" fill="#2f2e41" data-secondary="true"/>
<rect x="102.29" y="341.43" width="44.22" height="4.09" fill="#c70f37" data-primary="true"/>
<rect x="175.89" y="341.43" width="20.48" height="4.09" fill="#c70f37" data-primary="true"/>
<rect x="102.29" y="357.94" width="31.39" height="4.09" fill="#c70f37" data-primary="true"/>
</g>
</svg>