<svg width="1000" height="667" viewBox="0 0 1000 667" fill="none" xmlns="http://www.w3.org/2000/svg">
<mask id="mask0_1_2" style="mask-type:luminance" maskUnits="userSpaceOnUse" x="0" y="0" width="1000" height="667">
<path d="M0 6.00815e-05H1000V666.667H0V6.00815e-05Z" fill="white"/>
</mask>
<g mask="url(#mask0_1_2)">
<path d="M241.258 203.775C223.145 213.202 206.625 225.961 192.62 240.382C124.57 310.446 114.358 487.547 235.498 509.354C274.264 516.333 309.281 503.378 343.36 486.791C406.404 456.109 479.629 425.063 548.381 457.657C584.854 474.946 611.701 507.71 650.004 521.75C715.1 545.609 786.233 518.646 827.705 465.129C877.233 401.217 873.329 308.381 830.946 241.566C808.662 206.435 770.317 177.823 727.806 174.239C661.189 168.626 602.829 206.038 542.346 226.886C504.516 239.925 462.48 240.399 424.269 228.607C378.72 214.55 347.314 183.285 296.22 187.373C276.988 188.911 258.408 194.851 241.258 203.775Z" fill="#E2CDB6"/>
<path d="M605.803 509.307H417.822V502.738C417.822 494.829 424.234 488.417 432.143 488.417H591.482C599.39 488.417 605.803 494.829 605.803 502.738V509.307Z" fill="#02576C"/>
<path d="M557.235 488.417H465.161V428.295H557.235V488.417Z" fill="#003F4E"/>
<path d="M465.161 428.294L557.235 477.006V428.294H465.161Z" fill="#003141"/>
<path d="M759.734 119.184V411.349C759.734 420.704 752.149 428.289 742.793 428.289H279.613C270.258 428.289 262.673 420.704 262.673 411.349V119.184C262.673 109.829 270.258 102.244 279.613 102.244H742.793C752.149 102.244 759.734 109.829 759.734 119.184Z" fill="#003141"/>
</g>
<mask id="mask1_1_2" style="mask-type:luminance" maskUnits="userSpaceOnUse" x="272" y="111" width="479" height="308">
<path d="M279.576 111.976C275.603 111.976 272.381 115.197 272.381 119.169V411.379C272.381 415.352 275.603 418.572 279.576 418.572H742.82C746.792 418.572 750.015 415.352 750.015 411.379V119.169C750.015 115.197 746.792 111.976 742.82 111.976H279.576Z" fill="white"/>
</mask>
<g mask="url(#mask1_1_2)">
<path d="M738.953 418.572H283.442C277.334 418.572 272.382 413.62 272.382 407.512V123.037C272.382 116.928 277.334 111.976 283.442 111.976H738.953C745.061 111.976 750.014 116.928 750.014 123.037V407.512C750.014 413.62 745.061 418.572 738.953 418.572Z" fill="#E0CAB7"/>
<path d="M750.014 122.303V272.839H272.382V122.303C272.382 121.857 272.402 121.429 272.48 121.001C273.082 115.905 277.225 111.975 282.224 111.975H740.172C741.612 111.975 742.992 112.306 744.217 112.89C747.641 114.505 750.014 118.122 750.014 122.303Z" fill="#FAE5D3"/>
</g>
<mask id="mask2_1_2" style="mask-type:luminance" maskUnits="userSpaceOnUse" x="0" y="0" width="1000" height="667">
<path d="M0 6.00815e-05H1000V666.667H0V6.00815e-05Z" fill="white"/>
</mask>
<g mask="url(#mask2_1_2)">
<path d="M411.146 565.221H110.837C108.98 565.221 107.474 563.716 107.474 561.86V558.773C107.474 556.916 108.98 555.412 110.837 555.412H411.146C413.004 555.412 414.509 556.916 414.509 558.773V561.86C414.509 563.716 413.004 565.221 411.146 565.221Z" fill="#02576C"/>
<path d="M112.385 565.221C120.103 568.376 128.361 570 136.699 570H385.283C393.622 570 401.881 568.376 409.599 565.221H112.385Z" fill="#003F4E"/>
<path d="M404.583 378.728V542.781C404.583 549.744 398.943 555.404 391.961 555.404H130.039C123.058 555.404 117.417 549.744 117.417 542.781V378.728C117.417 371.745 123.058 366.105 130.039 366.105H391.961C398.943 366.105 404.583 371.745 404.583 378.728Z" fill="#003141"/>
</g>
<mask id="mask3_1_2" style="mask-type:luminance" maskUnits="userSpaceOnUse" x="124" y="373" width="274" height="176">
<path d="M129.455 373.22C126.715 373.22 124.493 375.441 124.493 378.18V543.337C124.493 546.076 126.715 548.299 129.455 548.299H392.529C395.269 548.299 397.489 546.076 397.489 543.337V378.18C397.489 375.441 395.269 373.22 392.529 373.22H129.455Z" fill="white"/>
</mask>
<g mask="url(#mask3_1_2)">
<path d="M395.633 558.858H126.35C120.242 558.858 115.29 553.906 115.29 547.798V382.865C115.29 376.755 120.242 371.803 126.35 371.803H395.633C401.742 371.803 406.693 376.757 406.693 382.865V547.798C406.693 553.906 401.742 558.858 395.633 558.858Z" fill="#E0CAB7"/>
<path d="M406.693 378.104V469.947H115.291V378.104C115.291 377.832 115.303 377.571 115.349 377.309C115.717 374.2 118.245 371.803 121.295 371.803H400.689C401.567 371.803 402.409 372.005 403.157 372.361C405.245 373.347 406.693 375.553 406.693 378.104Z" fill="#FAE5D3"/>
</g>
<mask id="mask4_1_2" style="mask-type:luminance" maskUnits="userSpaceOnUse" x="0" y="0" width="1000" height="667">
<path d="M0 6.00815e-05H1000V666.667H0V6.00815e-05Z" fill="white"/>
</mask>
<g mask="url(#mask4_1_2)">
<path d="M881.964 353.086V566.437C881.964 569.051 879.853 571.162 877.238 571.162H715.718C713.117 571.162 710.993 569.051 710.993 566.437V353.086C710.993 350.471 713.117 348.361 715.718 348.361H877.238C879.853 348.361 881.964 350.471 881.964 353.086Z" fill="#003141"/>
</g>
<mask id="mask5_1_2" style="mask-type:luminance" maskUnits="userSpaceOnUse" x="716" y="355" width="161" height="210">
<path d="M718.761 355.099C717.329 355.099 716.168 356.26 716.168 357.693V561.831C716.168 563.263 717.329 564.424 718.761 564.424H874.2C875.633 564.424 876.793 563.263 876.793 561.831V357.693C876.793 356.26 875.633 355.099 874.2 355.099H718.761Z" fill="white"/>
</mask>
<g mask="url(#mask5_1_2)">
<path d="M876.793 564.424H716.168V355.099H876.793V564.424Z" fill="#E0CAB7"/>
<path d="M880.371 359.572V432.548H713.167V359.572C713.167 359.377 713.175 359.193 713.2 359.008C713.412 356.801 714.862 355.1 716.612 355.1H876.926C877.43 355.1 877.912 355.242 878.343 355.494C879.54 356.194 880.371 357.761 880.371 359.572Z" fill="#FAE5D3"/>
</g>
<mask id="mask6_1_2" style="mask-type:luminance" maskUnits="userSpaceOnUse" x="0" y="0" width="1000" height="667">
<path d="M0 6.00815e-05H1000V666.667H0V6.00815e-05Z" fill="white"/>
</mask>
<g mask="url(#mask6_1_2)">
<path d="M645.883 457.798V579.687C645.883 581.602 644.336 583.149 642.42 583.149H582.428C580.513 583.149 578.967 581.602 578.967 579.687V457.798C578.967 455.883 580.513 454.326 582.428 454.326H642.42C644.336 454.326 645.883 455.883 645.883 457.798Z" fill="#003141"/>
<path d="M621.016 458.943H603.835V457.155H621.016V458.943Z" fill="#02576C"/>
</g>
<mask id="mask7_1_2" style="mask-type:luminance" maskUnits="userSpaceOnUse" x="581" y="461" width="63" height="115">
<path d="M583.128 461.488C582.144 461.488 581.348 462.284 581.348 463.267V574.216C581.348 575.197 582.144 575.995 583.128 575.995H641.721C642.704 575.995 643.5 575.197 643.5 574.216V463.267C643.5 462.284 642.704 461.488 641.721 461.488H583.128Z" fill="white"/>
</mask>
<g mask="url(#mask7_1_2)">
<path d="M643.5 575.995H581.349V461.488H643.5V575.995Z" fill="#E0CAB7"/>
<path d="M645.884 464.266V516.475H578.965V464.266C578.965 464.127 578.967 463.995 578.979 463.862C579.064 462.283 579.643 461.067 580.344 461.067H644.505C644.707 461.067 644.9 461.168 645.072 461.348C645.552 461.85 645.884 462.97 645.884 464.266Z" fill="#FAE5D3"/>
<path d="M607.686 527.332H587.051C585.377 527.332 584.017 525.972 584.017 524.297C584.017 522.62 585.377 521.261 587.051 521.261H607.686C609.363 521.261 610.721 522.62 610.721 524.297C610.721 525.972 609.363 527.332 607.686 527.332Z" fill="#004032"/>
<path d="M588.67 524.751V523.155H589.039V524.45H589.84V524.751H588.67ZM590.795 524.779C590.669 524.779 590.552 524.758 590.444 524.717C590.338 524.676 590.245 524.618 590.166 524.544C590.088 524.469 590.027 524.382 589.983 524.281C589.941 524.181 589.92 524.072 589.92 523.953C589.92 523.834 589.941 523.725 589.983 523.624C590.027 523.524 590.089 523.437 590.168 523.362C590.247 523.288 590.34 523.23 590.446 523.189C590.553 523.148 590.668 523.127 590.793 523.127C590.919 523.127 591.035 523.148 591.14 523.189C591.246 523.23 591.338 523.288 591.416 523.362C591.495 523.437 591.557 523.524 591.601 523.624C591.645 523.723 591.667 523.833 591.667 523.953C591.667 524.072 591.645 524.182 591.601 524.284C591.557 524.384 591.495 524.472 591.416 524.546C591.338 524.619 591.246 524.676 591.14 524.717C591.035 524.758 590.92 524.779 590.795 524.779ZM590.793 524.464C590.865 524.464 590.93 524.452 590.989 524.427C591.05 524.403 591.103 524.368 591.149 524.322C591.195 524.277 591.23 524.223 591.254 524.161C591.28 524.098 591.293 524.029 591.293 523.953C591.293 523.877 591.28 523.808 591.254 523.745C591.23 523.683 591.195 523.629 591.149 523.583C591.105 523.538 591.052 523.503 590.992 523.478C590.931 523.454 590.865 523.442 590.793 523.442C590.722 523.442 590.656 523.454 590.595 523.478C590.535 523.503 590.483 523.538 590.437 523.583C590.392 523.629 590.356 523.683 590.33 523.745C590.306 523.808 590.294 523.877 590.294 523.953C590.294 524.027 590.306 524.097 590.33 524.161C590.356 524.223 590.391 524.277 590.435 524.322C590.481 524.368 590.534 524.403 590.595 524.427C590.656 524.452 590.722 524.464 590.793 524.464ZM591.945 524.751V523.155H592.636C592.779 523.155 592.902 523.178 593.005 523.225C593.109 523.271 593.189 523.337 593.245 523.424C593.301 523.51 593.329 523.614 593.329 523.734C593.329 523.853 593.301 523.955 593.245 524.042C593.189 524.127 593.109 524.192 593.005 524.238C592.902 524.284 592.779 524.307 592.636 524.307H592.15L592.314 524.145V524.751H591.945ZM592.96 524.751L592.561 524.172H592.955L593.359 524.751H592.96ZM592.314 524.186L592.15 524.012H592.615C592.729 524.012 592.815 523.988 592.871 523.939C592.927 523.889 592.955 523.821 592.955 523.734C592.955 523.646 592.927 523.577 592.871 523.529C592.815 523.48 592.729 523.456 592.615 523.456H592.15L592.314 523.28V524.186ZM593.962 523.798H594.731V524.085H593.962V523.798ZM593.989 524.455H594.859V524.751H593.622V523.155H594.829V523.451H593.989V524.455ZM595.153 524.751V523.155H595.458L596.138 524.281H595.976L596.644 523.155H596.948L596.952 524.751H596.606L596.603 523.686H596.667L596.133 524.583H595.967L595.422 523.686H595.499V524.751H595.153ZM597.977 524.751V523.155H598.347V524.751H597.977ZM598.726 524.751V523.155H599.417C599.56 523.155 599.683 523.178 599.787 523.225C599.89 523.271 599.97 523.337 600.026 523.424C600.082 523.51 600.111 523.614 600.111 523.734C600.111 523.853 600.082 523.955 600.026 524.042C599.97 524.129 599.89 524.196 599.787 524.243C599.683 524.288 599.56 524.311 599.417 524.311H598.931L599.095 524.145V524.751H598.726ZM599.095 524.186L598.931 524.01H599.397C599.511 524.01 599.596 523.986 599.652 523.937C599.708 523.888 599.736 523.821 599.736 523.734C599.736 523.646 599.708 523.577 599.652 523.529C599.596 523.48 599.511 523.456 599.397 523.456H598.931L599.095 523.28V524.186ZM600.921 524.779C600.794 524.779 600.671 524.762 600.554 524.729C600.437 524.694 600.343 524.649 600.271 524.594L600.397 524.316C600.465 524.364 600.546 524.405 600.638 524.437C600.733 524.467 600.828 524.482 600.924 524.482C600.997 524.482 601.055 524.475 601.099 524.462C601.145 524.446 601.178 524.426 601.2 524.4C601.221 524.374 601.232 524.345 601.232 524.311C601.232 524.269 601.215 524.235 601.181 524.211C601.148 524.185 601.104 524.164 601.049 524.149C600.994 524.132 600.934 524.117 600.867 524.103C600.801 524.088 600.735 524.07 600.668 524.049C600.603 524.027 600.543 524 600.488 523.967C600.433 523.933 600.388 523.889 600.353 523.834C600.32 523.78 600.303 523.71 600.303 523.624C600.303 523.533 600.327 523.45 600.376 523.376C600.426 523.3 600.501 523.24 600.6 523.196C600.7 523.15 600.826 523.127 600.976 523.127C601.076 523.127 601.175 523.139 601.273 523.164C601.37 523.186 601.456 523.221 601.53 523.269L601.416 523.549C601.342 523.507 601.267 523.475 601.193 523.456C601.118 523.434 601.045 523.424 600.974 523.424C600.902 523.424 600.844 523.432 600.798 523.449C600.753 523.466 600.72 523.488 600.7 523.515C600.68 523.541 600.67 523.571 600.67 523.606C600.67 523.647 600.687 523.681 600.721 523.707C600.754 523.731 600.798 523.751 600.853 523.766C600.908 523.781 600.968 523.796 601.033 523.812C601.1 523.827 601.166 523.844 601.232 523.864C601.298 523.884 601.359 523.91 601.414 523.944C601.469 523.977 601.513 524.021 601.546 524.076C601.581 524.131 601.599 524.2 601.599 524.284C601.599 524.373 601.574 524.456 601.524 524.53C601.473 524.605 601.398 524.665 601.298 524.71C601.199 524.756 601.073 524.779 600.921 524.779ZM602.561 524.779C602.334 524.779 602.157 524.716 602.029 524.589C601.902 524.463 601.838 524.283 601.838 524.049V523.155H602.207V524.035C602.207 524.187 602.238 524.297 602.301 524.364C602.363 524.43 602.451 524.464 602.563 524.464C602.676 524.464 602.763 524.43 602.825 524.364C602.888 524.297 602.919 524.187 602.919 524.035V523.155H603.284V524.049C603.284 524.283 603.22 524.463 603.092 524.589C602.965 524.716 602.787 524.779 602.561 524.779ZM603.649 524.751V523.155H603.955L604.635 524.281H604.473L605.141 523.155H605.444L605.449 524.751H605.102L605.1 523.686H605.164L604.63 524.583H604.464L603.918 523.686H603.996V524.751H603.649Z" fill="#FAE5D3"/>
<path d="M637.797 527.332H617.162C615.488 527.332 614.128 525.972 614.128 524.297C614.128 522.62 615.488 521.261 617.162 521.261H637.797C639.473 521.261 640.832 522.62 640.832 524.297C640.832 525.972 639.473 527.332 637.797 527.332Z" fill="#004032"/>
<path d="M618.776 524.751V523.155H619.146V524.45H619.947V524.751H618.776ZM620.902 524.779C620.776 524.779 620.659 524.758 620.551 524.717C620.444 524.676 620.352 524.618 620.273 524.544C620.195 524.469 620.134 524.382 620.09 524.281C620.047 524.181 620.026 524.072 620.026 523.953C620.026 523.834 620.047 523.725 620.09 523.624C620.134 523.524 620.196 523.437 620.275 523.362C620.354 523.288 620.447 523.23 620.553 523.189C620.66 523.148 620.775 523.127 620.9 523.127C621.026 523.127 621.142 523.148 621.247 523.189C621.353 523.23 621.445 523.288 621.523 523.362C621.602 523.437 621.663 523.524 621.707 523.624C621.751 523.723 621.774 523.833 621.774 523.953C621.774 524.072 621.751 524.182 621.707 524.284C621.663 524.384 621.602 524.472 621.523 524.546C621.445 524.619 621.353 524.676 621.247 524.717C621.142 524.758 621.027 524.779 620.902 524.779ZM620.9 524.464C620.971 524.464 621.037 524.452 621.096 524.427C621.157 524.403 621.21 524.368 621.256 524.322C621.301 524.277 621.336 524.223 621.361 524.161C621.386 524.098 621.399 524.029 621.399 523.953C621.399 523.877 621.386 523.808 621.361 523.745C621.336 523.683 621.301 523.629 621.256 523.583C621.212 523.538 621.159 523.503 621.098 523.478C621.037 523.454 620.971 523.442 620.9 523.442C620.828 523.442 620.762 523.454 620.701 523.478C620.642 523.503 620.59 523.538 620.544 523.583C620.498 523.629 620.463 523.683 620.437 523.745C620.412 523.808 620.4 523.877 620.4 523.953C620.4 524.027 620.412 524.097 620.437 524.161C620.463 524.223 620.498 524.277 620.542 524.322C620.587 524.368 620.641 524.403 620.701 524.427C620.762 524.452 620.828 524.464 620.9 524.464ZM622.051 524.751V523.155H622.742C622.885 523.155 623.009 523.178 623.112 523.225C623.215 523.271 623.295 523.337 623.352 523.424C623.408 523.51 623.436 523.614 623.436 523.734C623.436 523.853 623.408 523.955 623.352 524.042C623.295 524.127 623.215 524.192 623.112 524.238C623.009 524.284 622.885 524.307 622.742 524.307H622.257L622.421 524.145V524.751H622.051ZM623.066 524.751L622.667 524.172H623.062L623.466 524.751H623.066ZM622.421 524.186L622.257 524.012H622.722C622.836 524.012 622.921 523.988 622.977 523.939C623.034 523.889 623.062 523.821 623.062 523.734C623.062 523.646 623.034 523.577 622.977 523.529C622.921 523.48 622.836 523.456 622.722 523.456H622.257L622.421 523.28V524.186ZM624.069 523.798H624.837V524.085H624.069V523.798ZM624.096 524.455H624.965V524.751H623.729V523.155H624.936V523.451H624.096V524.455ZM625.259 524.751V523.155H625.565L626.245 524.281H626.083L626.751 523.155H627.055L627.059 524.751H626.712L626.71 523.686H626.774L626.24 524.583H626.074L625.528 523.686H625.606V524.751H625.259ZM628.084 524.751V523.155H628.454V524.751H628.084ZM628.832 524.751V523.155H629.524C629.667 523.155 629.79 523.178 629.893 523.225C629.997 523.271 630.077 523.337 630.133 523.424C630.189 523.51 630.217 523.614 630.217 523.734C630.217 523.853 630.189 523.955 630.133 524.042C630.077 524.129 629.997 524.196 629.893 524.243C629.79 524.288 629.667 524.311 629.524 524.311H629.038L629.202 524.145V524.751H628.832ZM629.202 524.186L629.038 524.01H629.503C629.617 524.01 629.702 523.986 629.759 523.937C629.815 523.888 629.843 523.821 629.843 523.734C629.843 523.646 629.815 523.577 629.759 523.529C629.702 523.48 629.617 523.456 629.503 523.456H629.038L629.202 523.28V524.186ZM631.028 524.779C630.9 524.779 630.778 524.762 630.661 524.729C630.544 524.694 630.449 524.649 630.378 524.594L630.503 524.316C630.572 524.364 630.652 524.405 630.745 524.437C630.839 524.467 630.934 524.482 631.03 524.482C631.103 524.482 631.162 524.475 631.206 524.462C631.252 524.446 631.285 524.426 631.306 524.4C631.328 524.374 631.338 524.345 631.338 524.311C631.338 524.269 631.321 524.235 631.288 524.211C631.255 524.185 631.21 524.164 631.156 524.149C631.101 524.132 631.04 524.117 630.973 524.103C630.908 524.088 630.842 524.07 630.775 524.049C630.709 524.027 630.649 524 630.595 523.967C630.54 523.933 630.495 523.889 630.46 523.834C630.426 523.78 630.41 523.71 630.41 523.624C630.41 523.533 630.434 523.45 630.483 523.376C630.533 523.3 630.607 523.24 630.706 523.196C630.807 523.15 630.932 523.127 631.083 523.127C631.183 523.127 631.282 523.139 631.379 523.164C631.477 523.186 631.563 523.221 631.637 523.269L631.523 523.549C631.448 523.507 631.374 523.475 631.299 523.456C631.225 523.434 631.152 523.424 631.08 523.424C631.009 523.424 630.95 523.432 630.905 523.449C630.859 523.466 630.826 523.488 630.807 523.515C630.787 523.541 630.777 523.571 630.777 523.606C630.777 523.647 630.794 523.681 630.827 523.707C630.861 523.731 630.905 523.751 630.96 523.766C631.014 523.781 631.074 523.796 631.14 523.812C631.207 523.827 631.273 523.844 631.338 523.864C631.405 523.884 631.466 523.91 631.521 523.944C631.575 523.977 631.62 524.021 631.653 524.076C631.688 524.131 631.705 524.2 631.705 524.284C631.705 524.373 631.68 524.456 631.63 524.53C631.58 524.605 631.505 524.665 631.404 524.71C631.306 524.756 631.18 524.779 631.028 524.779ZM632.667 524.779C632.441 524.779 632.264 524.716 632.136 524.589C632.008 524.463 631.944 524.283 631.944 524.049V523.155H632.314V524.035C632.314 524.187 632.345 524.297 632.407 524.364C632.47 524.43 632.557 524.464 632.67 524.464C632.782 524.464 632.87 524.43 632.932 524.364C632.994 524.297 633.026 524.187 633.026 524.035V523.155H633.391V524.049C633.391 524.283 633.327 524.463 633.199 524.589C633.071 524.716 632.894 524.779 632.667 524.779ZM633.756 524.751V523.155H634.061L634.741 524.281H634.579L635.248 523.155H635.551L635.556 524.751H635.209L635.207 523.686H635.27L634.737 524.583H634.57L634.025 523.686H634.103V524.751H633.756Z" fill="#FAE5D3"/>
<path d="M634.419 566.855H590.429V532.327H634.419V566.855Z" fill="#FFF4E9"/>
<path d="M620.644 562.094H604.206C602.474 562.094 601.07 560.69 601.07 558.959C601.07 557.23 602.474 555.826 604.206 555.826H620.644C622.375 555.826 623.779 557.23 623.779 558.959C623.779 560.69 622.375 562.094 620.644 562.094Z" fill="#F79921"/>
<path d="M604.297 559.223V557.735H604.641V558.942H605.387V559.223H604.297ZM606.278 559.248C606.16 559.248 606.051 559.229 605.95 559.191C605.851 559.153 605.765 559.099 605.691 559.029C605.619 558.96 605.562 558.879 605.521 558.785C605.481 558.691 605.461 558.589 605.461 558.479C605.461 558.368 605.481 558.266 605.521 558.173C605.562 558.079 605.619 557.998 605.693 557.928C605.767 557.859 605.853 557.805 605.953 557.767C606.052 557.728 606.159 557.709 606.276 557.709C606.393 557.709 606.501 557.728 606.599 557.767C606.698 557.805 606.784 557.859 606.856 557.928C606.93 557.998 606.987 558.079 607.028 558.173C607.069 558.265 607.09 558.367 607.09 558.479C607.09 558.589 607.069 558.692 607.028 558.787C606.987 558.881 606.93 558.962 606.856 559.032C606.784 559.1 606.698 559.153 606.599 559.191C606.501 559.229 606.394 559.248 606.278 559.248ZM606.276 558.955C606.342 558.955 606.403 558.944 606.459 558.921C606.515 558.898 606.565 558.866 606.607 558.823C606.65 558.781 606.682 558.73 606.705 558.672C606.729 558.614 606.741 558.55 606.741 558.479C606.741 558.408 606.729 558.343 606.705 558.285C606.682 558.227 606.65 558.177 606.607 558.134C606.566 558.092 606.517 558.059 606.461 558.037C606.404 558.014 606.342 558.003 606.276 558.003C606.209 558.003 606.147 558.014 606.091 558.037C606.035 558.059 605.987 558.092 605.944 558.134C605.902 558.177 605.868 558.227 605.844 558.285C605.821 558.343 605.81 558.408 605.81 558.479C605.81 558.548 605.821 558.613 605.844 558.672C605.868 558.73 605.901 558.781 605.942 558.823C605.984 558.866 606.034 558.898 606.091 558.921C606.147 558.944 606.209 558.955 606.276 558.955ZM607.349 559.223V557.735H607.993C608.126 557.735 608.241 557.757 608.337 557.801C608.434 557.843 608.508 557.905 608.561 557.986C608.613 558.066 608.639 558.163 608.639 558.275C608.639 558.385 608.613 558.481 608.561 558.562C608.508 558.641 608.434 558.702 608.337 558.745C608.241 558.787 608.126 558.808 607.993 558.808H607.54L607.693 558.657V559.223H607.349ZM608.295 559.223L607.923 558.683H608.291L608.667 559.223H608.295ZM607.693 558.696L607.54 558.534H607.974C608.08 558.534 608.16 558.511 608.212 558.466C608.264 558.419 608.291 558.356 608.291 558.275C608.291 558.193 608.264 558.129 608.212 558.083C608.16 558.038 608.08 558.015 607.974 558.015H607.54L607.693 557.852V558.696ZM609.229 558.334H609.945V558.602H609.229V558.334ZM609.254 558.947H610.064V559.223H608.912V557.735H610.037V558.011H609.254V558.947ZM610.338 559.223V557.735H610.623L611.257 558.785H611.106L611.729 557.735H612.012L612.016 559.223H611.693L611.691 558.23H611.75L611.253 559.066H611.097L610.589 558.23H610.662V559.223H610.338ZM612.971 559.223V557.735H613.315V559.223H612.971ZM613.669 559.223V557.735H614.313C614.446 557.735 614.561 557.757 614.657 557.801C614.754 557.843 614.828 557.905 614.88 557.986C614.933 558.066 614.959 558.163 614.959 558.275C614.959 558.385 614.933 558.481 614.88 558.562C614.828 558.643 614.754 558.705 614.657 558.749C614.561 558.791 614.446 558.813 614.313 558.813H613.86L614.013 558.657V559.223H613.669ZM614.013 558.696L613.86 558.532H614.294C614.4 558.532 614.479 558.509 614.532 558.464C614.584 558.419 614.61 558.356 614.61 558.275C614.61 558.193 614.584 558.129 614.532 558.083C614.479 558.038 614.4 558.015 614.294 558.015H613.86L614.013 557.852V558.696ZM615.715 559.248C615.596 559.248 615.482 559.233 615.372 559.202C615.263 559.169 615.175 559.127 615.109 559.076L615.226 558.817C615.29 558.862 615.365 558.9 615.451 558.93C615.539 558.958 615.628 558.972 615.717 558.972C615.785 558.972 615.839 558.966 615.881 558.953C615.923 558.939 615.954 558.92 615.974 558.896C615.994 558.871 616.004 558.844 616.004 558.813C616.004 558.773 615.988 558.742 615.957 558.719C615.926 558.695 615.885 558.676 615.834 558.662C615.783 558.646 615.726 558.632 615.664 558.619C615.603 558.605 615.541 558.588 615.479 558.568C615.418 558.548 615.362 558.523 615.311 558.492C615.26 558.46 615.218 558.419 615.185 558.368C615.154 558.317 615.139 558.252 615.139 558.173C615.139 558.088 615.161 558.01 615.207 557.941C615.253 557.87 615.323 557.814 615.415 557.773C615.509 557.73 615.625 557.709 615.766 557.709C615.859 557.709 615.951 557.721 616.042 557.743C616.133 557.765 616.213 557.797 616.282 557.841L616.176 558.103C616.107 558.063 616.037 558.034 615.968 558.015C615.898 557.996 615.83 557.986 615.764 557.986C615.697 557.986 615.642 557.993 615.6 558.009C615.557 558.025 615.527 558.045 615.509 558.071C615.49 558.095 615.481 558.123 615.481 558.156C615.481 558.194 615.496 558.225 615.528 558.249C615.559 558.272 615.6 558.29 615.651 558.305C615.702 558.319 615.758 558.333 615.819 558.347C615.881 558.361 615.943 558.378 616.004 558.396C616.066 558.414 616.123 558.439 616.174 558.47C616.225 558.502 616.266 558.543 616.297 558.594C616.33 558.645 616.346 558.709 616.346 558.787C616.346 558.871 616.323 558.947 616.276 559.017C616.229 559.086 616.159 559.142 616.066 559.185C615.973 559.227 615.857 559.248 615.715 559.248ZM617.243 559.248C617.032 559.248 616.866 559.19 616.747 559.072C616.628 558.954 616.569 558.786 616.569 558.568V557.735H616.913V558.555C616.913 558.697 616.942 558.799 617 558.862C617.058 558.924 617.14 558.955 617.245 558.955C617.35 558.955 617.431 558.924 617.489 558.862C617.547 558.799 617.576 558.697 617.576 558.555V557.735H617.917V558.568C617.917 558.786 617.857 558.954 617.738 559.072C617.619 559.19 617.454 559.248 617.243 559.248ZM618.257 559.223V557.735H618.542L619.175 558.785H619.024L619.647 557.735H619.93L619.934 559.223H619.611L619.609 558.23H619.669L619.171 559.066H619.016L618.508 558.23H618.58V559.223H618.257Z" fill="white"/>
<path d="M606.56 553.866H618.29V538.759H615.676V540.559C615.676 540.639 615.609 540.706 615.53 540.706H609.32C609.24 540.706 609.174 540.639 609.174 540.559V538.759H606.56V553.866ZM618.436 554.158H606.414C606.333 554.158 606.266 554.093 606.266 554.011V538.614C606.266 538.533 606.333 538.467 606.414 538.467H609.32C609.401 538.467 609.466 538.533 609.466 538.614V540.413H615.382V538.614C615.382 538.533 615.448 538.467 615.53 538.467H618.436C618.517 538.467 618.582 538.533 618.582 538.614V554.011C618.582 554.093 618.517 554.158 618.436 554.158Z" fill="#004032"/>
<path d="M607.643 552.783H617.206V539.843H615.675V540.559C615.675 540.64 615.61 540.705 615.53 540.705H609.321C609.239 540.705 609.174 540.64 609.174 540.559V539.843H607.643V552.783ZM617.353 553.076H607.498C607.417 553.076 607.351 553.009 607.351 552.929V539.697C607.351 539.616 607.417 539.549 607.498 539.549H609.321C609.401 539.549 609.466 539.616 609.466 539.697V540.413H615.383V539.697C615.383 539.616 615.449 539.549 615.53 539.549H617.353C617.434 539.549 617.499 539.616 617.499 539.697V552.929C617.499 553.009 617.434 553.076 617.353 553.076Z" fill="#004032"/>
<path d="M609.466 540.413H615.382V538.477H614.542C614.461 538.477 614.395 538.411 614.395 538.33V537.378H610.454V538.33C610.454 538.411 610.389 538.477 610.309 538.477H609.466V540.413ZM615.53 540.706H609.321C609.239 540.706 609.174 540.639 609.174 540.558V538.33C609.174 538.25 609.239 538.185 609.321 538.185H610.162V537.231C610.162 537.151 610.227 537.085 610.309 537.085H614.542C614.622 537.085 614.687 537.151 614.687 537.231V538.185H615.53C615.609 538.185 615.675 538.25 615.675 538.33V540.558C615.675 540.639 615.609 540.706 615.53 540.706Z" fill="#004032"/>
<path d="M612.426 538.336C612.163 538.336 611.951 538.548 611.951 538.809C611.951 539.072 612.163 539.285 612.426 539.285C612.686 539.285 612.899 539.072 612.899 538.809C612.899 538.548 612.686 538.336 612.426 538.336ZM612.426 539.577C612.002 539.577 611.658 539.233 611.658 538.809C611.658 538.388 612.002 538.044 612.426 538.044C612.847 538.044 613.191 538.388 613.191 538.809C613.191 539.233 612.847 539.577 612.426 539.577Z" fill="#004032"/>
<path d="M615.574 544.371H609.276C609.196 544.371 609.13 544.304 609.13 544.224C609.13 544.144 609.196 544.078 609.276 544.078H615.574C615.654 544.078 615.72 544.144 615.72 544.224C615.72 544.304 615.654 544.371 615.574 544.371Z" fill="#004032"/>
<path d="M610.93 545.846H609.276C609.195 545.846 609.13 545.781 609.13 545.701C609.13 545.62 609.195 545.554 609.276 545.554H610.93C611.011 545.554 611.075 545.62 611.075 545.701C611.075 545.781 611.011 545.846 610.93 545.846Z" fill="#004032"/>
<path d="M613.711 547.323H609.276C609.195 547.323 609.13 547.258 609.13 547.178C609.13 547.096 609.195 547.031 609.276 547.031H613.711C613.792 547.031 613.856 547.096 613.856 547.178C613.856 547.258 613.792 547.323 613.711 547.323Z" fill="#004032"/>
<path d="M614.525 548.799H609.275C609.195 548.799 609.13 548.734 609.13 548.654C609.13 548.573 609.195 548.506 609.275 548.506H614.525C614.606 548.506 614.67 548.573 614.67 548.654C614.67 548.734 614.606 548.799 614.525 548.799Z" fill="#004032"/>
<path d="M615.574 550.277H609.276C609.196 550.277 609.13 550.211 609.13 550.132C609.13 550.051 609.196 549.984 609.276 549.984H615.574C615.654 549.984 615.72 550.051 615.72 550.132C615.72 550.211 615.654 550.277 615.574 550.277Z" fill="#004032"/>
<path d="M599.582 571.992V570.375H599.956V571.687H600.767V571.992H599.582ZM601.535 572.01C601.403 572.01 601.285 571.982 601.182 571.927C601.08 571.872 600.999 571.796 600.939 571.701C600.881 571.604 600.851 571.494 600.851 571.37C600.851 571.246 600.881 571.136 600.939 571.04C600.999 570.943 601.08 570.868 601.182 570.814C601.285 570.758 601.403 570.731 601.535 570.731C601.666 570.731 601.783 570.758 601.886 570.814C601.989 570.868 602.07 570.942 602.128 571.038C602.187 571.133 602.216 571.244 602.216 571.37C602.216 571.494 602.187 571.604 602.128 571.701C602.07 571.796 601.989 571.872 601.886 571.927C601.783 571.982 601.666 572.01 601.535 572.01ZM601.535 571.715C601.595 571.715 601.649 571.701 601.697 571.673C601.744 571.645 601.782 571.606 601.81 571.555C601.837 571.503 601.851 571.441 601.851 571.37C601.851 571.298 601.837 571.236 601.81 571.186C601.782 571.135 601.744 571.096 601.697 571.068C601.649 571.04 601.595 571.026 601.535 571.026C601.475 571.026 601.421 571.04 601.373 571.068C601.326 571.096 601.287 571.135 601.258 571.186C601.23 571.236 601.216 571.298 601.216 571.37C601.216 571.441 601.23 571.503 601.258 571.555C601.287 571.606 601.326 571.645 601.373 571.673C601.421 571.701 601.475 571.715 601.535 571.715ZM602.457 571.992V570.749H602.801V571.1L602.752 570.999C602.789 570.911 602.849 570.845 602.93 570.8C603.012 570.754 603.111 570.731 603.228 570.731V571.063C603.213 571.062 603.199 571.061 603.187 571.061C603.174 571.059 603.161 571.059 603.147 571.059C603.049 571.059 602.969 571.087 602.907 571.144C602.847 571.2 602.817 571.287 602.817 571.405V571.992H602.457ZM604.05 572.01C603.908 572.01 603.784 571.982 603.676 571.927C603.57 571.872 603.487 571.796 603.429 571.701C603.37 571.604 603.341 571.494 603.341 571.37C603.341 571.246 603.369 571.136 603.426 571.04C603.485 570.943 603.564 570.868 603.664 570.814C603.764 570.758 603.878 570.731 604.004 570.731C604.125 570.731 604.235 570.757 604.332 570.809C604.43 570.86 604.508 570.934 604.565 571.031C604.622 571.126 604.65 571.241 604.65 571.375C604.65 571.389 604.65 571.405 604.648 571.424C604.646 571.44 604.645 571.457 604.643 571.472H603.634V571.262H604.454L604.315 571.324C604.315 571.26 604.302 571.203 604.276 571.156C604.25 571.108 604.214 571.071 604.168 571.045C604.122 571.017 604.068 571.003 604.006 571.003C603.944 571.003 603.89 571.017 603.842 571.045C603.796 571.071 603.76 571.109 603.734 571.158C603.707 571.206 603.694 571.263 603.694 571.329V571.384C603.694 571.452 603.709 571.512 603.738 571.564C603.769 571.615 603.811 571.654 603.865 571.682C603.921 571.708 603.985 571.721 604.059 571.721C604.125 571.721 604.183 571.711 604.232 571.691C604.283 571.671 604.329 571.641 604.371 571.601L604.563 571.809C604.506 571.874 604.434 571.924 604.348 571.959C604.262 571.993 604.162 572.01 604.05 572.01ZM606.481 570.731C606.58 570.731 606.667 570.751 606.742 570.791C606.819 570.829 606.879 570.889 606.922 570.971C606.967 571.051 606.989 571.154 606.989 571.28V571.992H606.629V571.336C606.629 571.236 606.608 571.162 606.567 571.114C606.525 571.066 606.467 571.043 606.391 571.043C606.339 571.043 606.292 571.055 606.25 571.079C606.209 571.103 606.176 571.138 606.153 571.186C606.13 571.233 606.119 571.294 606.119 571.368V571.992H605.758V571.336C605.758 571.236 605.738 571.162 605.696 571.114C605.656 571.066 605.598 571.043 605.523 571.043C605.471 571.043 605.424 571.055 605.382 571.079C605.34 571.103 605.308 571.138 605.285 571.186C605.262 571.233 605.25 571.294 605.25 571.368V571.992H604.89V570.749H605.234V571.089L605.17 570.989C605.213 570.905 605.273 570.841 605.352 570.798C605.432 570.753 605.523 570.731 605.624 570.731C605.738 570.731 605.838 570.76 605.922 570.819C606.009 570.875 606.066 570.963 606.093 571.082L605.966 571.047C606.008 570.95 606.074 570.873 606.165 570.816C606.257 570.759 606.363 570.731 606.481 570.731ZM607.966 571.992V570.749H608.326V571.992H607.966ZM608.146 570.576C608.08 570.576 608.026 570.557 607.985 570.518C607.943 570.48 607.922 570.432 607.922 570.375C607.922 570.318 607.943 570.27 607.985 570.232C608.026 570.194 608.08 570.174 608.146 570.174C608.212 570.174 608.266 570.193 608.308 570.23C608.349 570.265 608.37 570.311 608.37 570.368C608.37 570.428 608.349 570.478 608.308 570.518C608.268 570.557 608.214 570.576 608.146 570.576ZM609.395 572.01C609.29 572.01 609.199 571.987 609.12 571.941C609.042 571.895 608.98 571.825 608.935 571.731C608.892 571.635 608.871 571.515 608.871 571.37C608.871 571.224 608.892 571.104 608.933 571.01C608.975 570.916 609.035 570.846 609.113 570.8C609.192 570.754 609.286 570.731 609.395 570.731C609.512 570.731 609.617 570.758 609.709 570.812C609.803 570.864 609.877 570.938 609.931 571.033C609.986 571.129 610.014 571.241 610.014 571.37C610.014 571.501 609.986 571.614 609.931 571.71C609.877 571.805 609.803 571.879 609.709 571.932C609.617 571.984 609.512 572.01 609.395 572.01ZM608.661 572.44V570.749H609.005V571.003L608.998 571.373L609.021 571.74V572.44H608.661ZM609.333 571.715C609.393 571.715 609.446 571.701 609.492 571.673C609.54 571.645 609.577 571.606 609.605 571.555C609.634 571.503 609.649 571.441 609.649 571.37C609.649 571.298 609.634 571.236 609.605 571.186C609.577 571.135 609.54 571.096 609.492 571.068C609.446 571.04 609.393 571.026 609.333 571.026C609.273 571.026 609.219 571.04 609.171 571.068C609.123 571.096 609.086 571.135 609.058 571.186C609.03 571.236 609.016 571.298 609.016 571.37C609.016 571.441 609.03 571.503 609.058 571.555C609.086 571.606 609.123 571.645 609.171 571.673C609.219 571.701 609.273 571.715 609.333 571.715ZM610.673 572.01C610.567 572.01 610.464 571.998 610.366 571.973C610.269 571.947 610.192 571.915 610.135 571.876L610.255 571.618C610.312 571.653 610.379 571.682 610.456 571.705C610.534 571.727 610.611 571.738 610.687 571.738C610.77 571.738 610.828 571.728 610.862 571.708C610.898 571.688 610.915 571.66 610.915 571.624C610.915 571.595 610.902 571.574 610.874 571.56C610.848 571.544 610.812 571.533 610.768 571.525C610.723 571.517 610.674 571.51 610.62 571.502C610.567 571.494 610.514 571.484 610.46 571.472C610.407 571.458 610.357 571.438 610.313 571.412C610.268 571.386 610.232 571.35 610.204 571.306C610.178 571.261 610.165 571.203 610.165 571.133C610.165 571.054 610.187 570.985 610.232 570.925C610.278 570.865 610.344 570.818 610.43 570.784C610.517 570.748 610.62 570.731 610.74 570.731C610.825 570.731 610.911 570.74 610.999 570.758C611.086 570.777 611.159 570.804 611.218 570.839L611.098 571.096C611.038 571.06 610.977 571.036 610.915 571.024C610.855 571.01 610.797 571.003 610.74 571.003C610.66 571.003 610.601 571.014 610.564 571.036C610.527 571.057 610.509 571.085 610.509 571.119C610.509 571.15 610.522 571.173 610.548 571.188C610.576 571.203 610.612 571.216 610.657 571.225C610.701 571.234 610.75 571.243 610.802 571.25C610.856 571.257 610.91 571.267 610.964 571.28C611.018 571.294 611.066 571.314 611.109 571.34C611.154 571.365 611.19 571.4 611.218 571.444C611.246 571.487 611.259 571.544 611.259 571.615C611.259 571.692 611.236 571.761 611.19 571.821C611.144 571.879 611.077 571.925 610.989 571.959C610.903 571.993 610.798 572.01 610.673 572.01ZM612.006 572.01C611.903 572.01 611.81 571.99 611.729 571.95C611.649 571.91 611.586 571.849 611.542 571.768C611.497 571.684 611.475 571.579 611.475 571.451V570.749H611.835V571.398C611.835 571.501 611.857 571.577 611.9 571.627C611.944 571.674 612.007 571.698 612.087 571.698C612.142 571.698 612.191 571.687 612.235 571.664C612.278 571.639 612.312 571.602 612.336 571.553C612.361 571.502 612.373 571.439 612.373 571.364V570.749H612.733V571.992H612.392V571.65L612.454 571.749C612.412 571.835 612.351 571.901 612.269 571.945C612.189 571.989 612.101 572.01 612.006 572.01ZM614.658 570.731C614.757 570.731 614.844 570.751 614.919 570.791C614.996 570.829 615.056 570.889 615.099 570.971C615.144 571.051 615.166 571.154 615.166 571.28V571.992H614.806V571.336C614.806 571.236 614.785 571.162 614.744 571.114C614.702 571.066 614.643 571.043 614.568 571.043C614.516 571.043 614.469 571.055 614.427 571.079C614.386 571.103 614.353 571.138 614.33 571.186C614.307 571.233 614.296 571.294 614.296 571.368V571.992H613.935V571.336C613.935 571.236 613.915 571.162 613.873 571.114C613.833 571.066 613.775 571.043 613.7 571.043C613.647 571.043 613.6 571.055 613.559 571.079C613.517 571.103 613.485 571.138 613.462 571.186C613.439 571.233 613.427 571.294 613.427 571.368V571.992H613.067V570.749H613.411V571.089L613.346 570.989C613.39 570.905 613.45 570.841 613.529 570.798C613.609 570.753 613.7 570.731 613.801 570.731C613.915 570.731 614.015 570.76 614.099 570.819C614.185 570.875 614.242 570.963 614.27 571.082L614.143 571.047C614.185 570.95 614.251 570.873 614.342 570.816C614.434 570.759 614.54 570.731 614.658 570.731ZM616.676 572.01C616.559 572.01 616.454 571.984 616.36 571.932C616.266 571.878 616.191 571.803 616.136 571.708C616.082 571.612 616.055 571.5 616.055 571.37C616.055 571.24 616.082 571.126 616.136 571.031C616.191 570.936 616.266 570.862 616.36 570.809C616.454 570.757 616.559 570.731 616.676 570.731C616.781 570.731 616.873 570.754 616.951 570.8C617.03 570.846 617.091 570.916 617.134 571.01C617.177 571.104 617.198 571.224 617.198 571.37C617.198 571.515 617.178 571.635 617.136 571.731C617.094 571.825 617.034 571.895 616.956 571.941C616.879 571.987 616.786 572.01 616.676 572.01ZM616.739 571.715C616.797 571.715 616.85 571.701 616.898 571.673C616.946 571.645 616.984 571.606 617.011 571.555C617.04 571.503 617.055 571.441 617.055 571.37C617.055 571.298 617.04 571.236 617.011 571.186C616.984 571.135 616.946 571.096 616.898 571.068C616.85 571.04 616.797 571.026 616.739 571.026C616.679 571.026 616.625 571.04 616.577 571.068C616.529 571.096 616.491 571.135 616.462 571.186C616.434 571.236 616.42 571.298 616.42 571.37C616.42 571.441 616.434 571.503 616.462 571.555C616.491 571.606 616.529 571.645 616.577 571.673C616.625 571.701 616.679 571.715 616.739 571.715ZM617.064 571.992V571.738L617.071 571.368L617.048 571.001V570.278H617.408V571.992H617.064ZM618.333 572.01C618.201 572.01 618.083 571.982 617.98 571.927C617.878 571.872 617.797 571.796 617.737 571.701C617.679 571.604 617.649 571.494 617.649 571.37C617.649 571.246 617.679 571.136 617.737 571.04C617.797 570.943 617.878 570.868 617.98 570.814C618.083 570.758 618.201 570.731 618.333 570.731C618.464 570.731 618.581 570.758 618.684 570.814C618.787 570.868 618.868 570.942 618.926 571.038C618.985 571.133 619.014 571.244 619.014 571.37C619.014 571.494 618.985 571.604 618.926 571.701C618.868 571.796 618.787 571.872 618.684 571.927C618.581 571.982 618.464 572.01 618.333 572.01ZM618.333 571.715C618.393 571.715 618.447 571.701 618.495 571.673C618.542 571.645 618.58 571.606 618.608 571.555C618.635 571.503 618.649 571.441 618.649 571.37C618.649 571.298 618.635 571.236 618.608 571.186C618.58 571.135 618.542 571.096 618.495 571.068C618.447 571.04 618.393 571.026 618.333 571.026C618.273 571.026 618.219 571.04 618.171 571.068C618.124 571.096 618.085 571.135 618.056 571.186C618.028 571.236 618.014 571.298 618.014 571.37C618.014 571.441 618.028 571.503 618.056 571.555C618.085 571.606 618.124 571.645 618.171 571.673C618.219 571.701 618.273 571.715 618.333 571.715ZM619.255 571.992V570.278H619.615V571.992H619.255ZM620.541 572.01C620.408 572.01 620.291 571.982 620.187 571.927C620.086 571.872 620.005 571.796 619.945 571.701C619.886 571.604 619.857 571.494 619.857 571.37C619.857 571.246 619.886 571.136 619.945 571.04C620.005 570.943 620.086 570.868 620.187 570.814C620.291 570.758 620.408 570.731 620.541 570.731C620.672 570.731 620.789 570.758 620.892 570.814C620.995 570.868 621.076 570.942 621.134 571.038C621.193 571.133 621.222 571.244 621.222 571.37C621.222 571.494 621.193 571.604 621.134 571.701C621.076 571.796 620.995 571.872 620.892 571.927C620.789 571.982 620.672 572.01 620.541 572.01ZM620.541 571.715C620.601 571.715 620.655 571.701 620.702 571.673C620.75 571.645 620.788 571.606 620.816 571.555C620.843 571.503 620.857 571.441 620.857 571.37C620.857 571.298 620.843 571.236 620.816 571.186C620.788 571.135 620.75 571.096 620.702 571.068C620.655 571.04 620.601 571.026 620.541 571.026C620.481 571.026 620.427 571.04 620.379 571.068C620.331 571.096 620.293 571.135 620.264 571.186C620.236 571.236 620.222 571.298 620.222 571.37C620.222 571.441 620.236 571.503 620.264 571.555C620.293 571.606 620.331 571.645 620.379 571.673C620.427 571.701 620.481 571.715 620.541 571.715ZM621.463 571.992V570.749H621.807V571.1L621.758 570.999C621.795 570.911 621.855 570.845 621.936 570.8C622.018 570.754 622.117 570.731 622.234 570.731V571.063C622.219 571.062 622.205 571.061 622.192 571.061C622.18 571.059 622.167 571.059 622.153 571.059C622.055 571.059 621.975 571.087 621.913 571.144C621.853 571.2 621.823 571.287 621.823 571.405V571.992H621.463ZM623.529 572.01C623.423 572.01 623.321 571.998 623.222 571.973C623.125 571.947 623.048 571.915 622.991 571.876L623.111 571.618C623.168 571.653 623.235 571.682 623.312 571.705C623.391 571.727 623.468 571.738 623.543 571.738C623.626 571.738 623.685 571.728 623.718 571.708C623.754 571.688 623.772 571.66 623.772 571.624C623.772 571.595 623.758 571.574 623.73 571.56C623.704 571.544 623.668 571.533 623.624 571.525C623.579 571.517 623.53 571.51 623.476 571.502C623.424 571.494 623.371 571.484 623.317 571.472C623.263 571.458 623.214 571.438 623.169 571.412C623.124 571.386 623.088 571.35 623.06 571.306C623.034 571.261 623.021 571.203 623.021 571.133C623.021 571.054 623.043 570.985 623.088 570.925C623.134 570.865 623.2 570.818 623.287 570.784C623.373 570.748 623.476 570.731 623.596 570.731C623.681 570.731 623.767 570.74 623.855 570.758C623.942 570.777 624.016 570.804 624.074 570.839L623.954 571.096C623.894 571.06 623.833 571.036 623.772 571.024C623.712 571.01 623.653 571.003 623.596 571.003C623.516 571.003 623.458 571.014 623.421 571.036C623.384 571.057 623.365 571.085 623.365 571.119C623.365 571.15 623.378 571.173 623.404 571.188C623.432 571.203 623.468 571.216 623.513 571.225C623.558 571.234 623.606 571.243 623.658 571.25C623.712 571.257 623.766 571.267 623.82 571.28C623.874 571.294 623.922 571.314 623.966 571.34C624.01 571.365 624.046 571.4 624.074 571.444C624.102 571.487 624.116 571.544 624.116 571.615C624.116 571.692 624.093 571.761 624.046 571.821C624 571.879 623.933 571.925 623.846 571.959C623.759 571.993 623.654 572.01 623.529 572.01ZM624.338 571.992V570.749H624.698V571.992H624.338ZM624.518 570.576C624.452 570.576 624.398 570.557 624.356 570.518C624.315 570.48 624.294 570.432 624.294 570.375C624.294 570.318 624.315 570.27 624.356 570.232C624.398 570.194 624.452 570.174 624.518 570.174C624.584 570.174 624.638 570.193 624.68 570.23C624.721 570.265 624.742 570.311 624.742 570.368C624.742 570.428 624.721 570.478 624.68 570.518C624.64 570.557 624.586 570.576 624.518 570.576ZM625.541 572.01C625.394 572.01 625.28 571.973 625.199 571.899C625.117 571.824 625.076 571.712 625.076 571.564V570.474H625.437V571.56C625.437 571.612 625.45 571.653 625.478 571.682C625.506 571.71 625.544 571.724 625.591 571.724C625.648 571.724 625.697 571.708 625.737 571.678L625.834 571.932C625.797 571.958 625.752 571.978 625.7 571.992C625.649 572.004 625.596 572.01 625.541 572.01ZM624.885 571.054V570.777H625.746V571.054H624.885Z" fill="#004032"/>
<path d="M598.619 574.46V574.218L598.596 574.165V573.73C598.596 573.653 598.572 573.593 598.525 573.55C598.478 573.507 598.407 573.486 598.31 573.486C598.244 573.486 598.178 573.496 598.114 573.518C598.051 573.538 597.997 573.566 597.952 573.601L597.823 573.349C597.89 573.302 597.972 573.265 598.067 573.239C598.163 573.212 598.26 573.199 598.358 573.199C598.548 573.199 598.695 573.244 598.799 573.333C598.904 573.423 598.956 573.562 598.956 573.751V574.46H598.619ZM598.241 574.479C598.144 574.479 598.061 574.462 597.991 574.43C597.922 574.396 597.869 574.351 597.832 574.294C597.795 574.237 597.776 574.173 597.776 574.102C597.776 574.028 597.794 573.964 597.83 573.908C597.867 573.853 597.924 573.81 598.003 573.779C598.081 573.747 598.184 573.73 598.31 573.73H598.64V573.941H598.349C598.264 573.941 598.206 573.954 598.174 573.982C598.143 574.01 598.127 574.044 598.127 574.086C598.127 574.132 598.145 574.169 598.181 574.197C598.218 574.223 598.268 574.236 598.331 574.236C598.391 574.236 598.445 574.222 598.492 574.195C598.54 574.165 598.575 574.123 598.596 574.068L598.652 574.234C598.625 574.314 598.578 574.375 598.508 574.416C598.439 574.458 598.35 574.479 598.241 574.479ZM600.874 573.199C600.972 573.199 601.059 573.219 601.134 573.259C601.211 573.298 601.272 573.358 601.315 573.439C601.359 573.52 601.382 573.623 601.382 573.749V574.46H601.021V573.804C601.021 573.704 601.001 573.63 600.959 573.583C600.917 573.535 600.859 573.511 600.783 573.511C600.731 573.511 600.684 573.523 600.643 573.548C600.601 573.571 600.569 573.607 600.546 573.654C600.523 573.702 600.511 573.763 600.511 573.837V574.46H600.151V573.804C600.151 573.704 600.13 573.63 600.088 573.583C600.048 573.535 599.991 573.511 599.915 573.511C599.863 573.511 599.816 573.523 599.774 573.548C599.733 573.571 599.7 573.607 599.677 573.654C599.654 573.702 599.643 573.763 599.643 573.837V574.46H599.283V573.218H599.627V573.557L599.562 573.458C599.605 573.373 599.666 573.309 599.744 573.266C599.824 573.222 599.915 573.199 600.017 573.199C600.131 573.199 600.23 573.229 600.315 573.287C600.401 573.344 600.458 573.432 600.486 573.55L600.359 573.516C600.4 573.419 600.466 573.342 600.557 573.285C600.65 573.228 600.755 573.199 600.874 573.199ZM602.33 574.479C602.188 574.479 602.064 574.451 601.956 574.395C601.85 574.34 601.767 574.265 601.709 574.169C601.65 574.072 601.621 573.962 601.621 573.839C601.621 573.714 601.65 573.604 601.707 573.509C601.765 573.412 601.844 573.336 601.944 573.282C602.044 573.227 602.158 573.199 602.284 573.199C602.405 573.199 602.515 573.225 602.612 573.278C602.71 573.329 602.788 573.403 602.845 573.5C602.902 573.595 602.93 573.71 602.93 573.844C602.93 573.857 602.93 573.874 602.928 573.892C602.927 573.909 602.925 573.925 602.924 573.941H601.914V573.73H602.734L602.596 573.793C602.596 573.728 602.583 573.672 602.556 573.624C602.53 573.576 602.494 573.54 602.448 573.513C602.402 573.486 602.348 573.472 602.286 573.472C602.225 573.472 602.17 573.486 602.122 573.513C602.076 573.54 602.04 573.577 602.014 573.627C601.988 573.674 601.974 573.731 601.974 573.797V573.853C601.974 573.921 601.989 573.981 602.018 574.033C602.049 574.084 602.091 574.123 602.145 574.151C602.201 574.177 602.265 574.19 602.339 574.19C602.405 574.19 602.463 574.18 602.512 574.16C602.563 574.14 602.609 574.11 602.651 574.07L602.843 574.278C602.786 574.342 602.714 574.392 602.628 574.428C602.542 574.462 602.442 574.479 602.33 574.479ZM603.678 574.479C603.532 574.479 603.418 574.442 603.337 574.368C603.255 574.292 603.214 574.181 603.214 574.033V572.943H603.574V574.028C603.574 574.081 603.588 574.121 603.616 574.151C603.644 574.178 603.681 574.192 603.729 574.192C603.786 574.192 603.835 574.177 603.875 574.146L603.972 574.4C603.935 574.426 603.89 574.446 603.838 574.46C603.787 574.472 603.734 574.479 603.678 574.479ZM603.022 573.523V573.246H603.884V573.523H603.022ZM604.134 574.816L604.286 574.262L604.337 574.469C604.271 574.469 604.216 574.45 604.173 574.412C604.132 574.373 604.111 574.32 604.111 574.252C604.111 574.185 604.132 574.131 604.176 574.091C604.219 574.051 604.272 574.031 604.335 574.031C604.4 574.031 604.453 574.051 604.494 574.093C604.536 574.133 604.557 574.186 604.557 574.252C604.557 574.272 604.555 574.292 604.552 574.312C604.549 574.331 604.543 574.354 604.533 574.382C604.526 574.408 604.513 574.442 604.494 574.483L604.363 574.816H604.134ZM606.055 574.479C605.921 574.479 605.802 574.452 605.697 574.398C605.592 574.342 605.51 574.266 605.45 574.169C605.392 574.072 605.362 573.962 605.362 573.839C605.362 573.714 605.392 573.604 605.45 573.509C605.51 573.412 605.592 573.336 605.697 573.282C605.802 573.227 605.921 573.199 606.055 573.199C606.186 573.199 606.3 573.227 606.397 573.282C606.494 573.336 606.565 573.414 606.612 573.516L606.332 573.666C606.3 573.607 606.259 573.564 606.21 573.536C606.162 573.509 606.11 573.495 606.053 573.495C605.991 573.495 605.936 573.509 605.886 573.536C605.837 573.564 605.798 573.603 605.769 573.654C605.741 573.705 605.727 573.767 605.727 573.839C605.727 573.911 605.741 573.973 605.769 574.024C605.798 574.075 605.837 574.114 605.886 574.141C605.936 574.169 605.991 574.183 606.053 574.183C606.11 574.183 606.162 574.17 606.21 574.144C606.259 574.116 606.3 574.072 606.332 574.012L606.612 574.165C606.565 574.265 606.494 574.342 606.397 574.398C606.3 574.452 606.186 574.479 606.055 574.479ZM607.394 574.479C607.262 574.479 607.144 574.451 607.041 574.395C606.939 574.34 606.859 574.265 606.799 574.169C606.74 574.072 606.711 573.962 606.711 573.839C606.711 573.714 606.74 573.604 606.799 573.509C606.859 573.412 606.939 573.336 607.041 573.282C607.144 573.227 607.262 573.199 607.394 573.199C607.525 573.199 607.642 573.227 607.745 573.282C607.848 573.336 607.929 573.411 607.988 573.506C608.046 573.602 608.076 573.713 608.076 573.839C608.076 573.962 608.046 574.072 607.988 574.169C607.929 574.265 607.848 574.34 607.745 574.395C607.642 574.451 607.525 574.479 607.394 574.479ZM607.394 574.183C607.454 574.183 607.508 574.169 607.556 574.141C607.604 574.114 607.641 574.075 607.669 574.024C607.697 573.971 607.711 573.91 607.711 573.839C607.711 573.767 607.697 573.705 607.669 573.654C607.641 573.603 607.604 573.564 607.556 573.536C607.508 573.509 607.454 573.495 607.394 573.495C607.334 573.495 607.28 573.509 607.233 573.536C607.185 573.564 607.146 573.603 607.117 573.654C607.09 573.705 607.076 573.767 607.076 573.839C607.076 573.91 607.09 573.971 607.117 574.024C607.146 574.075 607.185 574.114 607.233 574.141C607.28 574.169 607.334 574.183 607.394 574.183ZM609.071 573.199C609.17 573.199 609.258 573.219 609.335 573.259C609.413 573.298 609.475 573.358 609.519 573.439C609.564 573.52 609.586 573.623 609.586 573.749V574.46H609.226V573.804C609.226 573.704 609.204 573.63 609.159 573.583C609.116 573.535 609.055 573.511 608.974 573.511C608.918 573.511 608.866 573.523 608.82 573.548C608.775 573.571 608.74 573.607 608.714 573.657C608.689 573.706 608.677 573.769 608.677 573.846V574.46H608.316V573.218H608.66V573.562L608.596 573.458C608.64 573.375 608.704 573.311 608.787 573.266C608.871 573.222 608.965 573.199 609.071 573.199ZM610.331 574.479C610.225 574.479 610.122 574.466 610.024 574.442C609.927 574.415 609.85 574.383 609.793 574.345L609.913 574.086C609.97 574.121 610.037 574.151 610.114 574.174C610.192 574.195 610.269 574.206 610.345 574.206C610.428 574.206 610.486 574.196 610.52 574.176C610.556 574.156 610.573 574.128 610.573 574.093C610.573 574.064 610.56 574.042 610.532 574.028C610.506 574.013 610.47 574.001 610.426 573.994C610.381 573.986 610.332 573.978 610.278 573.971C610.225 573.963 610.172 573.953 610.118 573.941C610.065 573.927 610.015 573.907 609.971 573.881C609.926 573.854 609.89 573.819 609.862 573.774C609.836 573.73 609.823 573.672 609.823 573.601C609.823 573.523 609.845 573.453 609.89 573.393C609.936 573.333 610.002 573.286 610.088 573.252C610.175 573.217 610.278 573.199 610.398 573.199C610.483 573.199 610.569 573.209 610.657 573.227C610.744 573.246 610.817 573.272 610.876 573.308L610.756 573.564C610.696 573.529 610.635 573.505 610.573 573.493C610.513 573.479 610.455 573.472 610.398 573.472C610.318 573.472 610.259 573.483 610.222 573.504C610.185 573.526 610.167 573.553 610.167 573.587C610.167 573.618 610.18 573.641 610.206 573.657C610.234 573.672 610.27 573.684 610.315 573.693C610.359 573.703 610.408 573.711 610.46 573.719C610.514 573.725 610.568 573.735 610.622 573.749C610.676 573.763 610.724 573.783 610.767 573.809C610.812 573.834 610.848 573.868 610.876 573.913C610.904 573.956 610.917 574.013 610.917 574.084C610.917 574.161 610.894 574.229 610.848 574.289C610.802 574.348 610.735 574.394 610.647 574.428C610.561 574.462 610.456 574.479 610.331 574.479ZM611.756 574.479C611.615 574.479 611.49 574.451 611.382 574.395C611.276 574.34 611.194 574.265 611.135 574.169C611.077 574.072 611.047 573.962 611.047 573.839C611.047 573.714 611.076 573.604 611.133 573.509C611.191 573.412 611.271 573.336 611.371 573.282C611.471 573.227 611.584 573.199 611.71 573.199C611.832 573.199 611.941 573.225 612.038 573.278C612.137 573.329 612.214 573.403 612.271 573.5C612.328 573.595 612.357 573.71 612.357 573.844C612.357 573.857 612.356 573.874 612.354 573.892C612.353 573.909 612.351 573.925 612.35 573.941H611.341V573.73H612.16L612.022 573.793C612.022 573.728 612.009 573.672 611.983 573.624C611.956 573.576 611.92 573.54 611.874 573.513C611.828 573.486 611.774 573.472 611.712 573.472C611.651 573.472 611.596 573.486 611.548 573.513C611.502 573.54 611.466 573.577 611.44 573.627C611.414 573.674 611.401 573.731 611.401 573.797V573.853C611.401 573.921 611.415 573.981 611.445 574.033C611.475 574.084 611.518 574.123 611.572 574.151C611.627 574.177 611.692 574.19 611.766 574.19C611.832 574.19 611.889 574.18 611.939 574.16C611.989 574.14 612.036 574.11 612.077 574.07L612.269 574.278C612.212 574.342 612.14 574.392 612.054 574.428C611.968 574.462 611.869 574.479 611.756 574.479ZM613.197 574.479C613.063 574.479 612.944 574.452 612.839 574.398C612.734 574.342 612.652 574.266 612.592 574.169C612.533 574.072 612.504 573.962 612.504 573.839C612.504 573.714 612.533 573.604 612.592 573.509C612.652 573.412 612.734 573.336 612.839 573.282C612.944 573.227 613.063 573.199 613.197 573.199C613.328 573.199 613.442 573.227 613.539 573.282C613.636 573.336 613.707 573.414 613.753 573.516L613.474 573.666C613.442 573.607 613.401 573.564 613.352 573.536C613.304 573.509 613.252 573.495 613.195 573.495C613.133 573.495 613.078 573.509 613.028 573.536C612.979 573.564 612.94 573.603 612.911 573.654C612.883 573.705 612.869 573.767 612.869 573.839C612.869 573.911 612.883 573.973 612.911 574.024C612.94 574.075 612.979 574.114 613.028 574.141C613.078 574.169 613.133 574.183 613.195 574.183C613.252 574.183 613.304 574.17 613.352 574.144C613.401 574.116 613.442 574.072 613.474 574.012L613.753 574.165C613.707 574.265 613.636 574.342 613.539 574.398C613.442 574.452 613.328 574.479 613.197 574.479ZM614.487 574.479C614.341 574.479 614.227 574.442 614.145 574.368C614.064 574.292 614.023 574.181 614.023 574.033V572.943H614.383V574.028C614.383 574.081 614.397 574.121 614.425 574.151C614.452 574.178 614.49 574.192 614.538 574.192C614.595 574.192 614.643 574.177 614.683 574.146L614.78 574.4C614.743 574.426 614.699 574.446 614.646 574.46C614.595 574.472 614.542 574.479 614.487 574.479ZM613.831 573.523V573.246H614.692V573.523H613.831ZM615.561 574.479C615.419 574.479 615.294 574.451 615.186 574.395C615.08 574.34 614.998 574.265 614.939 574.169C614.881 574.072 614.852 573.962 614.852 573.839C614.852 573.714 614.88 573.604 614.937 573.509C614.996 573.412 615.075 573.336 615.175 573.282C615.275 573.227 615.388 573.199 615.514 573.199C615.636 573.199 615.745 573.225 615.842 573.278C615.941 573.329 616.019 573.403 616.076 573.5C616.132 573.595 616.161 573.71 616.161 573.844C616.161 573.857 616.16 573.874 616.159 573.892C616.157 573.909 616.156 573.925 616.154 573.941H615.145V573.73H615.965L615.826 573.793C615.826 573.728 615.813 573.672 615.787 573.624C615.761 573.576 615.725 573.54 615.678 573.513C615.632 573.486 615.578 573.472 615.517 573.472C615.455 573.472 615.4 573.486 615.353 573.513C615.307 573.54 615.27 573.577 615.244 573.627C615.218 573.674 615.205 573.731 615.205 573.797V573.853C615.205 573.921 615.22 573.981 615.249 574.033C615.28 574.084 615.322 574.123 615.376 574.151C615.431 574.177 615.496 574.19 615.57 574.19C615.636 574.19 615.694 574.18 615.743 574.16C615.794 574.14 615.84 574.11 615.882 574.07L616.073 574.278C616.016 574.342 615.945 574.392 615.858 574.428C615.772 574.462 615.673 574.479 615.561 574.479ZM616.909 574.479C616.763 574.479 616.649 574.442 616.567 574.368C616.485 574.292 616.445 574.181 616.445 574.033V572.943H616.805V574.028C616.805 574.081 616.819 574.121 616.846 574.151C616.874 574.178 616.912 574.192 616.96 574.192C617.017 574.192 617.065 574.177 617.105 574.146L617.202 574.4C617.165 574.426 617.121 574.446 617.068 574.46C617.017 574.472 616.964 574.479 616.909 574.479ZM616.253 573.523V573.246H617.114V573.523H616.253ZM617.929 574.479C617.825 574.479 617.733 574.459 617.651 574.419C617.571 574.379 617.509 574.318 617.464 574.236C617.42 574.153 617.397 574.048 617.397 573.92V573.218H617.758V573.867C617.758 573.97 617.779 574.046 617.822 574.095C617.867 574.143 617.929 574.167 618.009 574.167C618.065 574.167 618.114 574.155 618.157 574.132C618.2 574.108 618.234 574.071 618.259 574.021C618.283 573.971 618.296 573.907 618.296 573.832V573.218H618.656V574.46H618.314V574.118L618.376 574.218C618.335 574.304 618.273 574.369 618.192 574.414C618.112 574.457 618.024 574.479 617.929 574.479ZM619.606 574.479C619.465 574.479 619.34 574.451 619.232 574.395C619.126 574.34 619.044 574.265 618.985 574.169C618.927 574.072 618.897 573.962 618.897 573.839C618.897 573.714 618.926 573.604 618.983 573.509C619.041 573.412 619.12 573.336 619.221 573.282C619.321 573.227 619.434 573.199 619.56 573.199C619.682 573.199 619.791 573.225 619.888 573.278C619.986 573.329 620.064 573.403 620.121 573.5C620.178 573.595 620.207 573.71 620.207 573.844C620.207 573.857 620.206 573.874 620.204 573.892C620.203 573.909 620.201 573.925 620.2 573.941H619.191V573.73H620.01L619.872 573.793C619.872 573.728 619.859 573.672 619.832 573.624C619.806 573.576 619.77 573.54 619.724 573.513C619.678 573.486 619.624 573.472 619.562 573.472C619.501 573.472 619.446 573.486 619.398 573.513C619.352 573.54 619.316 573.577 619.29 573.627C619.264 573.674 619.251 573.731 619.251 573.797V573.853C619.251 573.921 619.265 573.981 619.294 574.033C619.325 574.084 619.368 574.123 619.421 574.151C619.477 574.177 619.542 574.19 619.615 574.19C619.682 574.19 619.739 574.18 619.789 574.16C619.839 574.14 619.886 574.11 619.927 574.07L620.119 574.278C620.062 574.342 619.99 574.392 619.904 574.428C619.818 574.462 619.719 574.479 619.606 574.479ZM620.446 574.46V573.218H620.79V573.569L620.742 573.467C620.779 573.379 620.838 573.313 620.92 573.269C621.001 573.222 621.101 573.199 621.218 573.199V573.532C621.202 573.53 621.188 573.53 621.176 573.53C621.164 573.528 621.151 573.527 621.137 573.527C621.038 573.527 620.958 573.556 620.897 573.613C620.837 573.668 620.807 573.755 620.807 573.874V574.46H620.446ZM622.857 574.46V574.218L622.834 574.165V573.73C622.834 573.653 622.81 573.593 622.762 573.55C622.716 573.507 622.644 573.486 622.547 573.486C622.481 573.486 622.416 573.496 622.351 573.518C622.288 573.538 622.234 573.566 622.19 573.601L622.06 573.349C622.128 573.302 622.21 573.265 622.305 573.239C622.4 573.212 622.497 573.199 622.596 573.199C622.785 573.199 622.932 573.244 623.037 573.333C623.142 573.423 623.194 573.562 623.194 573.751V574.46H622.857ZM622.478 574.479C622.381 574.479 622.298 574.462 622.229 574.43C622.16 574.396 622.106 574.351 622.069 574.294C622.033 574.237 622.014 574.173 622.014 574.102C622.014 574.028 622.032 573.964 622.067 573.908C622.104 573.853 622.162 573.81 622.24 573.779C622.319 573.747 622.421 573.73 622.547 573.73H622.878V573.941H622.587C622.502 573.941 622.444 573.954 622.411 573.982C622.38 574.01 622.365 574.044 622.365 574.086C622.365 574.132 622.383 574.169 622.418 574.197C622.455 574.223 622.505 574.236 622.568 574.236C622.628 574.236 622.682 574.222 622.73 574.195C622.778 574.165 622.812 574.123 622.834 574.068L622.889 574.234C622.863 574.314 622.815 574.375 622.746 574.416C622.677 574.458 622.588 574.479 622.478 574.479ZM624.028 574.479C623.882 574.479 623.768 574.442 623.686 574.368C623.605 574.292 623.564 574.181 623.564 574.033V572.943H623.924V574.028C623.924 574.081 623.938 574.121 623.966 574.151C623.993 574.178 624.031 574.192 624.079 574.192C624.136 574.192 624.184 574.177 624.224 574.146L624.321 574.4C624.284 574.426 624.24 574.446 624.187 574.46C624.137 574.472 624.084 574.479 624.028 574.479ZM623.372 573.523V573.246H624.234V573.523H623.372ZM624.524 574.46V572.747H624.884V574.46H624.524ZM625.98 574.46V574.218L625.957 574.165V573.73C625.957 573.653 625.933 573.593 625.886 573.55C625.839 573.507 625.768 573.486 625.671 573.486C625.605 573.486 625.539 573.496 625.474 573.518C625.411 573.538 625.357 573.566 625.313 573.601L625.184 573.349C625.251 573.302 625.333 573.265 625.428 573.239C625.524 573.212 625.621 573.199 625.719 573.199C625.909 573.199 626.056 573.244 626.16 573.333C626.265 573.423 626.317 573.562 626.317 573.751V574.46H625.98ZM625.601 574.479C625.505 574.479 625.421 574.462 625.352 574.43C625.283 574.396 625.23 574.351 625.193 574.294C625.156 574.237 625.137 574.173 625.137 574.102C625.137 574.028 625.155 573.964 625.19 573.908C625.227 573.853 625.285 573.81 625.364 573.779C625.442 573.747 625.545 573.73 625.671 573.73H626.001V573.941H625.71C625.625 573.941 625.567 573.954 625.535 573.982C625.504 574.01 625.488 574.044 625.488 574.086C625.488 574.132 625.506 574.169 625.541 574.197C625.578 574.223 625.628 574.236 625.692 574.236C625.752 574.236 625.805 574.222 625.853 574.195C625.901 574.165 625.936 574.123 625.957 574.068L626.013 574.234C625.986 574.314 625.939 574.375 625.869 574.416C625.8 574.458 625.711 574.479 625.601 574.479ZM627.061 574.479C626.955 574.479 626.853 574.466 626.754 574.442C626.657 574.415 626.58 574.383 626.523 574.345L626.643 574.086C626.7 574.121 626.767 574.151 626.844 574.174C626.923 574.195 627 574.206 627.075 574.206C627.158 574.206 627.217 574.196 627.251 574.176C627.286 574.156 627.304 574.128 627.304 574.093C627.304 574.064 627.29 574.042 627.262 574.028C627.236 574.013 627.201 574.001 627.156 573.994C627.111 573.986 627.062 573.978 627.008 573.971C626.956 573.963 626.903 573.953 626.849 573.941C626.795 573.927 626.746 573.907 626.701 573.881C626.656 573.854 626.62 573.819 626.593 573.774C626.566 573.73 626.553 573.672 626.553 573.601C626.553 573.523 626.576 573.453 626.62 573.393C626.666 573.333 626.733 573.286 626.819 573.252C626.905 573.217 627.008 573.199 627.128 573.199C627.213 573.199 627.299 573.209 627.387 573.227C627.475 573.246 627.548 573.272 627.606 573.308L627.486 573.564C627.426 573.529 627.365 573.505 627.304 573.493C627.244 573.479 627.185 573.472 627.128 573.472C627.048 573.472 626.99 573.483 626.953 573.504C626.916 573.526 626.897 573.553 626.897 573.587C626.897 573.618 626.91 573.641 626.937 573.657C626.964 573.672 627.001 573.684 627.045 573.693C627.09 573.703 627.138 573.711 627.191 573.719C627.245 573.725 627.298 573.735 627.352 573.749C627.406 573.763 627.455 573.783 627.498 573.809C627.542 573.834 627.579 573.868 627.606 573.913C627.634 573.956 627.648 574.013 627.648 574.084C627.648 574.161 627.625 574.229 627.579 574.289C627.532 574.348 627.465 574.394 627.378 574.428C627.291 574.462 627.186 574.479 627.061 574.479Z" fill="#004032"/>
<path d="M598.322 575.668C598.42 575.668 598.508 575.688 598.585 575.728C598.663 575.766 598.725 575.826 598.77 575.908C598.814 575.988 598.836 576.091 598.836 576.217V576.929H598.476V576.273C598.476 576.173 598.454 576.099 598.409 576.051C598.366 576.003 598.305 575.98 598.225 575.98C598.168 575.98 598.116 575.992 598.07 576.017C598.025 576.04 597.99 576.076 597.964 576.125C597.939 576.174 597.927 576.237 597.927 576.314V576.929H597.566V575.686H597.91V576.03L597.846 575.926C597.89 575.843 597.954 575.779 598.037 575.735C598.121 575.69 598.215 575.668 598.322 575.668ZM599.763 576.947C599.631 576.947 599.513 576.919 599.41 576.864C599.308 576.809 599.227 576.733 599.167 576.638C599.109 576.541 599.08 576.431 599.08 576.308C599.08 576.183 599.109 576.073 599.167 575.977C599.227 575.88 599.308 575.805 599.41 575.751C599.513 575.696 599.631 575.668 599.763 575.668C599.894 575.668 600.011 575.696 600.114 575.751C600.217 575.805 600.298 575.88 600.357 575.975C600.415 576.07 600.444 576.181 600.444 576.308C600.444 576.431 600.415 576.541 600.357 576.638C600.298 576.733 600.217 576.809 600.114 576.864C600.011 576.919 599.894 576.947 599.763 576.947ZM599.763 576.652C599.823 576.652 599.877 576.638 599.925 576.61C599.973 576.582 600.01 576.543 600.038 576.492C600.066 576.44 600.08 576.378 600.08 576.308C600.08 576.235 600.066 576.174 600.038 576.123C600.01 576.072 599.973 576.033 599.925 576.005C599.877 575.977 599.823 575.963 599.763 575.963C599.703 575.963 599.649 575.977 599.602 576.005C599.554 576.033 599.515 576.072 599.486 576.123C599.458 576.174 599.445 576.235 599.445 576.308C599.445 576.378 599.458 576.44 599.486 576.492C599.515 576.543 599.554 576.582 599.602 576.61C599.649 576.638 599.703 576.652 599.763 576.652ZM601.44 575.668C601.539 575.668 601.627 575.688 601.704 575.728C601.782 575.766 601.844 575.826 601.888 575.908C601.933 575.988 601.955 576.091 601.955 576.217V576.929H601.595V576.273C601.595 576.173 601.573 576.099 601.528 576.051C601.485 576.003 601.423 575.98 601.343 575.98C601.286 575.98 601.235 575.992 601.189 576.017C601.144 576.04 601.109 576.076 601.082 576.125C601.058 576.174 601.045 576.237 601.045 576.314V576.929H600.685V575.686H601.029V576.03L600.965 575.926C601.009 575.843 601.073 575.779 601.156 575.735C601.239 575.69 601.334 575.668 601.44 575.668ZM602.806 576.947C602.703 576.947 602.61 576.927 602.529 576.887C602.449 576.847 602.386 576.786 602.342 576.705C602.297 576.622 602.275 576.516 602.275 576.388V575.686H602.635V576.335C602.635 576.438 602.657 576.515 602.7 576.564C602.744 576.612 602.807 576.635 602.887 576.635C602.942 576.635 602.991 576.624 603.035 576.601C603.078 576.576 603.112 576.539 603.136 576.49C603.161 576.439 603.173 576.376 603.173 576.301V575.686H603.533V576.929H603.192V576.587L603.254 576.686C603.212 576.772 603.151 576.838 603.069 576.882C602.989 576.926 602.901 576.947 602.806 576.947ZM605.458 575.668C605.557 575.668 605.644 575.688 605.719 575.728C605.796 575.766 605.856 575.826 605.899 575.908C605.944 575.988 605.966 576.091 605.966 576.217V576.929H605.606V576.273C605.606 576.173 605.585 576.099 605.544 576.051C605.502 576.003 605.444 575.98 605.368 575.98C605.316 575.98 605.269 575.992 605.227 576.017C605.186 576.04 605.153 576.075 605.13 576.123C605.107 576.17 605.096 576.231 605.096 576.305V576.929H604.735V576.273C604.735 576.173 604.715 576.099 604.673 576.051C604.633 576.003 604.575 575.98 604.5 575.98C604.447 575.98 604.401 575.992 604.359 576.017C604.317 576.04 604.285 576.075 604.262 576.123C604.239 576.17 604.227 576.231 604.227 576.305V576.929H603.867V575.686H604.211V576.026L604.147 575.926C604.19 575.842 604.25 575.778 604.329 575.735C604.409 575.69 604.5 575.668 604.601 575.668C604.715 575.668 604.815 575.697 604.899 575.756C604.986 575.813 605.042 575.9 605.07 576.019L604.943 575.984C604.985 575.887 605.051 575.81 605.142 575.753C605.234 575.696 605.34 575.668 605.458 575.668ZM607.88 575.668C607.979 575.668 608.066 575.688 608.141 575.728C608.218 575.766 608.278 575.826 608.321 575.908C608.366 575.988 608.388 576.091 608.388 576.217V576.929H608.028V576.273C608.028 576.173 608.007 576.099 607.966 576.051C607.924 576.003 607.865 575.98 607.79 575.98C607.738 575.98 607.691 575.992 607.649 576.017C607.608 576.04 607.575 576.075 607.552 576.123C607.529 576.17 607.518 576.231 607.518 576.305V576.929H607.157V576.273C607.157 576.173 607.137 576.099 607.095 576.051C607.055 576.003 606.997 575.98 606.922 575.98C606.869 575.98 606.822 575.992 606.781 576.017C606.739 576.04 606.707 576.075 606.684 576.123C606.661 576.17 606.649 576.231 606.649 576.305V576.929H606.289V575.686H606.633V576.026L606.568 575.926C606.612 575.842 606.672 575.778 606.751 575.735C606.831 575.69 606.922 575.668 607.023 575.668C607.137 575.668 607.237 575.697 607.321 575.756C607.407 575.813 607.464 575.9 607.492 576.019L607.365 575.984C607.407 575.887 607.473 575.81 607.564 575.753C607.656 575.696 607.762 575.668 607.88 575.668ZM608.845 577.395C608.781 577.395 608.717 577.385 608.654 577.365C608.591 577.345 608.539 577.317 608.499 577.282L608.631 577.026C608.658 577.05 608.69 577.07 608.725 577.083C608.762 577.097 608.799 577.104 608.834 577.104C608.885 577.104 608.925 577.092 608.954 577.067C608.985 577.044 609.013 577.005 609.037 576.949L609.102 576.797L609.13 576.758L609.575 575.686H609.922L609.36 577.005C609.32 577.105 609.274 577.183 609.222 577.24C609.171 577.297 609.114 577.337 609.051 577.361C608.989 577.384 608.921 577.395 608.845 577.395ZM609.058 576.977L608.504 575.686H608.875L609.305 576.725L609.058 576.977ZM611.478 575.668C611.576 575.668 611.664 575.688 611.741 575.728C611.819 575.766 611.881 575.826 611.926 575.908C611.97 575.988 611.993 576.091 611.993 576.217V576.929H611.632V576.273C611.632 576.173 611.61 576.099 611.565 576.051C611.522 576.003 611.461 575.98 611.381 575.98C611.324 575.98 611.272 575.992 611.226 576.017C611.181 576.04 611.146 576.076 611.12 576.125C611.095 576.174 611.083 576.237 611.083 576.314V576.929H610.723V575.686H611.067V576.03L611.002 575.926C611.047 575.843 611.11 575.779 611.194 575.735C611.277 575.69 611.371 575.668 611.478 575.668ZM612.319 576.929V575.686H612.679V576.929H612.319ZM612.499 575.513C612.433 575.513 612.379 575.494 612.338 575.455C612.296 575.417 612.275 575.369 612.275 575.312C612.275 575.255 612.296 575.208 612.338 575.169C612.379 575.131 612.433 575.111 612.499 575.111C612.565 575.111 612.619 575.13 612.661 575.167C612.702 575.202 612.723 575.248 612.723 575.305C612.723 575.365 612.702 575.415 612.661 575.455C612.621 575.494 612.567 575.513 612.499 575.513ZM613.748 576.947C613.639 576.947 613.545 576.924 613.466 576.878C613.388 576.832 613.328 576.762 613.286 576.668C613.245 576.572 613.224 576.452 613.224 576.308C613.224 576.161 613.245 576.041 613.288 575.947C613.333 575.853 613.395 575.783 613.473 575.737C613.552 575.691 613.643 575.668 613.748 575.668C613.865 575.668 613.97 575.694 614.062 575.746C614.156 575.799 614.23 575.873 614.284 575.968C614.339 576.064 614.367 576.177 614.367 576.308C614.367 576.437 614.339 576.549 614.284 576.645C614.23 576.74 614.156 576.815 614.062 576.869C613.97 576.921 613.865 576.947 613.748 576.947ZM613.014 576.929V575.215H613.374V575.938L613.351 576.305L613.358 576.675V576.929H613.014ZM613.686 576.652C613.746 576.652 613.799 576.638 613.845 576.61C613.893 576.582 613.93 576.543 613.958 576.492C613.987 576.44 614.002 576.378 614.002 576.308C614.002 576.235 613.987 576.174 613.958 576.123C613.93 576.072 613.893 576.033 613.845 576.005C613.799 575.977 613.746 575.963 613.686 575.963C613.626 575.963 613.572 575.977 613.524 576.005C613.476 576.033 613.439 576.072 613.411 576.123C613.383 576.174 613.369 576.235 613.369 576.308C613.369 576.378 613.383 576.44 613.411 576.492C613.439 576.543 613.476 576.582 613.524 576.61C613.572 576.638 613.626 576.652 613.686 576.652ZM615.363 575.668C615.462 575.668 615.549 575.688 615.626 575.728C615.705 575.766 615.766 575.826 615.811 575.908C615.856 575.988 615.878 576.091 615.878 576.217V576.929H615.518V576.273C615.518 576.173 615.496 576.099 615.451 576.051C615.408 576.003 615.346 575.98 615.266 575.98C615.209 575.98 615.158 575.992 615.111 576.017C615.067 576.04 615.031 576.076 615.005 576.125C614.981 576.174 614.968 576.237 614.968 576.314V576.929H614.608V575.215H614.968V576.03L614.887 575.926C614.932 575.843 614.996 575.779 615.079 575.735C615.162 575.69 615.257 575.668 615.363 575.668ZM616.142 577.284L616.295 576.73L616.345 576.938C616.279 576.938 616.225 576.919 616.182 576.88C616.14 576.842 616.119 576.789 616.119 576.721C616.119 576.653 616.141 576.599 616.184 576.559C616.227 576.519 616.28 576.499 616.343 576.499C616.408 576.499 616.461 576.52 616.503 576.562C616.544 576.602 616.565 576.655 616.565 576.721C616.565 576.741 616.563 576.761 616.56 576.781C616.557 576.799 616.551 576.822 616.542 576.85C616.534 576.876 616.521 576.91 616.503 576.952L616.371 577.284H616.142ZM618.08 576.947C617.938 576.947 617.813 576.919 617.705 576.864C617.599 576.809 617.517 576.733 617.458 576.638C617.4 576.541 617.371 576.431 617.371 576.308C617.371 576.183 617.399 576.073 617.456 575.977C617.515 575.88 617.594 575.805 617.694 575.751C617.794 575.696 617.907 575.668 618.033 575.668C618.155 575.668 618.264 575.694 618.361 575.746C618.46 575.797 618.538 575.871 618.594 575.968C618.651 576.064 618.68 576.178 618.68 576.312C618.68 576.326 618.679 576.342 618.678 576.361C618.676 576.378 618.675 576.394 618.673 576.409H617.664V576.199H618.484L618.345 576.261C618.345 576.197 618.332 576.14 618.306 576.093C618.28 576.045 618.243 576.008 618.197 575.982C618.151 575.954 618.097 575.94 618.036 575.94C617.974 575.94 617.919 575.954 617.872 575.982C617.826 576.008 617.789 576.046 617.763 576.095C617.737 576.143 617.724 576.2 617.724 576.266V576.321C617.724 576.389 617.739 576.449 617.768 576.501C617.799 576.552 617.841 576.592 617.895 576.619C617.95 576.645 618.015 576.659 618.089 576.659C618.155 576.659 618.213 576.648 618.262 576.628C618.313 576.608 618.359 576.578 618.4 576.538L618.592 576.746C618.535 576.811 618.464 576.861 618.377 576.896C618.291 576.93 618.192 576.947 618.08 576.947ZM619.444 576.947C619.341 576.947 619.248 576.927 619.167 576.887C619.087 576.847 619.024 576.786 618.98 576.705C618.935 576.622 618.913 576.516 618.913 576.388V575.686H619.273V576.335C619.273 576.438 619.295 576.515 619.338 576.564C619.382 576.612 619.445 576.635 619.525 576.635C619.58 576.635 619.629 576.624 619.673 576.601C619.716 576.576 619.75 576.539 619.774 576.49C619.799 576.439 619.811 576.376 619.811 576.301V575.686H620.171V576.929H619.83V576.587L619.892 576.686C619.85 576.772 619.789 576.838 619.707 576.882C619.627 576.926 619.539 576.947 619.444 576.947ZM620.505 576.929V575.686H620.865V576.929H620.505ZM620.685 575.513C620.619 575.513 620.565 575.494 620.524 575.455C620.482 575.417 620.461 575.369 620.461 575.312C620.461 575.255 620.482 575.208 620.524 575.169C620.565 575.131 620.619 575.111 620.685 575.111C620.751 575.111 620.805 575.13 620.847 575.167C620.888 575.202 620.909 575.248 620.909 575.305C620.909 575.365 620.888 575.415 620.847 575.455C620.807 575.494 620.753 575.513 620.685 575.513ZM621.618 576.947C621.511 576.947 621.409 576.935 621.31 576.91C621.213 576.884 621.137 576.852 621.08 576.813L621.2 576.555C621.257 576.59 621.324 576.619 621.401 576.642C621.479 576.664 621.556 576.675 621.631 576.675C621.715 576.675 621.773 576.665 621.807 576.645C621.842 576.625 621.86 576.597 621.86 576.562C621.86 576.532 621.846 576.511 621.818 576.497C621.792 576.481 621.757 576.47 621.712 576.462C621.668 576.455 621.618 576.447 621.564 576.439C621.512 576.431 621.459 576.421 621.405 576.409C621.351 576.395 621.302 576.375 621.257 576.349C621.213 576.323 621.177 576.287 621.149 576.243C621.123 576.198 621.11 576.14 621.11 576.07C621.11 575.991 621.132 575.922 621.177 575.862C621.223 575.802 621.289 575.755 621.375 575.721C621.461 575.686 621.564 575.668 621.685 575.668C621.769 575.668 621.855 575.677 621.943 575.696C622.031 575.714 622.104 575.741 622.163 575.776L622.042 576.033C621.982 575.997 621.922 575.973 621.86 575.961C621.8 575.947 621.742 575.94 621.685 575.94C621.605 575.94 621.546 575.951 621.509 575.973C621.472 575.994 621.454 576.022 621.454 576.056C621.454 576.087 621.467 576.11 621.493 576.125C621.521 576.14 621.557 576.153 621.601 576.162C621.646 576.171 621.695 576.18 621.747 576.187C621.801 576.194 621.855 576.204 621.909 576.217C621.962 576.231 622.011 576.251 622.054 576.277C622.099 576.302 622.135 576.337 622.163 576.381C622.19 576.425 622.204 576.481 622.204 576.552C622.204 576.629 622.181 576.698 622.135 576.758C622.089 576.816 622.022 576.862 621.934 576.896C621.848 576.93 621.742 576.947 621.618 576.947ZM624.017 575.668C624.116 575.668 624.203 575.688 624.278 575.728C624.355 575.766 624.415 575.826 624.458 575.908C624.503 575.988 624.525 576.091 624.525 576.217V576.929H624.165V576.273C624.165 576.173 624.144 576.099 624.103 576.051C624.061 576.003 624.003 575.98 623.927 575.98C623.875 575.98 623.828 575.992 623.787 576.017C623.745 576.04 623.713 576.075 623.69 576.123C623.666 576.17 623.655 576.231 623.655 576.305V576.929H623.295V576.273C623.295 576.173 623.274 576.099 623.232 576.051C623.192 576.003 623.135 575.98 623.059 575.98C623.007 575.98 622.96 575.992 622.918 576.017C622.877 576.04 622.844 576.075 622.821 576.123C622.798 576.17 622.787 576.231 622.787 576.305V576.929H622.426V575.686H622.77V576.026L622.706 575.926C622.749 575.842 622.81 575.778 622.888 575.735C622.968 575.69 623.059 575.668 623.161 575.668C623.275 575.668 623.374 575.697 623.459 575.756C623.545 575.813 623.602 575.9 623.629 576.019L623.502 575.984C623.544 575.887 623.61 575.81 623.701 575.753C623.793 575.696 623.899 575.668 624.017 575.668ZM625.449 576.947C625.316 576.947 625.198 576.919 625.095 576.864C624.994 576.809 624.913 576.733 624.853 576.638C624.794 576.541 624.765 576.431 624.765 576.308C624.765 576.183 624.794 576.073 624.853 575.977C624.913 575.88 624.994 575.805 625.095 575.751C625.198 575.696 625.316 575.668 625.449 575.668C625.579 575.668 625.696 575.696 625.8 575.751C625.903 575.805 625.983 575.88 626.042 575.975C626.1 576.07 626.13 576.181 626.13 576.308C626.13 576.431 626.1 576.541 626.042 576.638C625.983 576.733 625.903 576.809 625.8 576.864C625.696 576.919 625.579 576.947 625.449 576.947ZM625.449 576.652C625.509 576.652 625.562 576.638 625.61 576.61C625.658 576.582 625.696 576.543 625.723 576.492C625.751 576.44 625.765 576.378 625.765 576.308C625.765 576.235 625.751 576.174 625.723 576.123C625.696 576.072 625.658 576.033 625.61 576.005C625.562 575.977 625.509 575.963 625.449 575.963C625.388 575.963 625.335 575.977 625.287 576.005C625.239 576.033 625.201 576.072 625.171 576.123C625.144 576.174 625.13 576.235 625.13 576.308C625.13 576.378 625.144 576.44 625.171 576.492C625.201 576.543 625.239 576.582 625.287 576.61C625.335 576.638 625.388 576.652 625.449 576.652ZM626.904 576.947C626.787 576.947 626.681 576.921 626.588 576.869C626.494 576.815 626.419 576.74 626.364 576.645C626.31 576.549 626.283 576.437 626.283 576.308C626.283 576.177 626.31 576.064 626.364 575.968C626.419 575.873 626.494 575.799 626.588 575.746C626.681 575.694 626.787 575.668 626.904 575.668C627.009 575.668 627.1 575.691 627.179 575.737C627.257 575.783 627.318 575.853 627.361 575.947C627.404 576.041 627.426 576.161 627.426 576.308C627.426 576.452 627.405 576.572 627.363 576.668C627.322 576.762 627.262 576.832 627.183 576.878C627.106 576.924 627.013 576.947 626.904 576.947ZM626.966 576.652C627.025 576.652 627.078 576.638 627.126 576.61C627.173 576.582 627.211 576.543 627.239 576.492C627.268 576.44 627.283 576.378 627.283 576.308C627.283 576.235 627.268 576.174 627.239 576.123C627.211 576.072 627.173 576.033 627.126 576.005C627.078 575.977 627.025 575.963 626.966 575.963C626.906 575.963 626.852 575.977 626.805 576.005C626.757 576.033 626.718 576.072 626.689 576.123C626.661 576.174 626.648 576.235 626.648 576.308C626.648 576.378 626.661 576.44 626.689 576.492C626.718 576.543 626.757 576.582 626.805 576.61C626.852 576.638 626.906 576.652 626.966 576.652ZM627.292 576.929V576.675L627.299 576.305L627.276 575.938V575.215H627.636V576.929H627.292Z" fill="#004032"/>
</g>
</svg>
